<svg width="191" height="179" viewBox="0 0 191 179" fill="none" xmlns="http://www.w3.org/2000/svg">
<path d="M85.5598 125H84.2318V115.512H80.8558V114.328H88.9518V115.512H85.5598V125ZM98.9673 123.624C97.9753 124.669 96.7006 125.192 95.1433 125.192C93.5859 125.192 92.3113 124.669 91.3193 123.624C90.3379 122.579 89.8473 121.261 89.8473 119.672C89.8473 118.083 90.3379 116.765 91.3193 115.72C92.3113 114.675 93.5859 114.152 95.1433 114.152C96.7006 114.152 97.9753 114.675 98.9673 115.72C99.9593 116.765 100.455 118.083 100.455 119.672C100.455 121.261 99.9593 122.579 98.9673 123.624ZM95.1433 124.008C96.3166 124.008 97.2659 123.603 97.9913 122.792C98.7166 121.971 99.0793 120.931 99.0793 119.672C99.0793 118.413 98.7166 117.379 97.9913 116.568C97.2659 115.747 96.3166 115.336 95.1433 115.336C93.9593 115.336 93.0099 115.741 92.2953 116.552C91.5806 117.363 91.2233 118.403 91.2233 119.672C91.2233 120.931 91.5806 121.971 92.2953 122.792C93.0099 123.603 93.9593 124.008 95.1433 124.008ZM103.842 125H102.514V114.328H106.802C107.836 114.328 108.652 114.637 109.25 115.256C109.847 115.875 110.146 116.637 110.146 117.544C110.146 118.451 109.842 119.213 109.234 119.832C108.636 120.451 107.826 120.76 106.802 120.76H103.842V125ZM106.642 119.576C107.271 119.576 107.783 119.389 108.178 119.016C108.572 118.632 108.77 118.141 108.77 117.544C108.77 116.947 108.572 116.461 108.178 116.088C107.783 115.704 107.271 115.512 106.642 115.512H103.842V119.576H106.642ZM27.2434 140H25.7234L24.7794 137.616H19.4674L18.5234 140H17.0034L21.3074 129.328H22.9554L27.2434 140ZM24.3954 136.448L22.1234 130.688L19.8674 136.448H24.3954ZM37.4706 140H36.1906L29.9666 131.488V140H28.6386V129.328H29.9986L36.1426 137.664V129.328H37.4706V140ZM43.4227 140.192C41.6947 140.192 40.3294 139.627 39.3268 138.496L40.1268 137.472C41.0121 138.496 42.1268 139.008 43.4708 139.008C44.3348 139.008 44.9694 138.821 45.3748 138.448C45.7801 138.075 45.9828 137.643 45.9828 137.152C45.9828 136.725 45.8228 136.373 45.5028 136.096C45.1934 135.808 44.8041 135.6 44.3348 135.472C43.8761 135.344 43.3694 135.2 42.8148 135.04C42.2708 134.869 41.7641 134.693 41.2948 134.512C40.8361 134.331 40.4468 134.037 40.1268 133.632C39.8174 133.227 39.6628 132.725 39.6628 132.128C39.6628 131.253 40.0094 130.539 40.7028 129.984C41.3961 129.429 42.2761 129.152 43.3428 129.152C44.9108 129.152 46.1694 129.653 47.1188 130.656L46.3188 131.632C45.5614 130.779 44.5321 130.352 43.2308 130.352C42.5908 130.352 42.0628 130.512 41.6468 130.832C41.2414 131.141 41.0388 131.547 41.0388 132.048C41.0388 132.421 41.1934 132.731 41.5028 132.976C41.8228 133.221 42.2121 133.403 42.6708 133.52C43.1401 133.637 43.6468 133.787 44.1908 133.968C44.7454 134.139 45.2521 134.325 45.7108 134.528C46.1801 134.72 46.5694 135.035 46.8788 135.472C47.1988 135.909 47.3588 136.437 47.3588 137.056C47.3588 137.92 47.0334 138.661 46.3828 139.28C45.7428 139.888 44.7561 140.192 43.4227 140.192ZM58.9418 140H57.5017L55.1498 131.392L52.7977 140H51.3578L48.3178 129.328H49.7898L52.1578 138.224L54.6058 129.328H55.7098L58.1578 138.224L60.5098 129.328H61.9978L58.9418 140ZM70.4588 140H63.4668V129.328H70.4588V130.512H64.7948V133.952H70.3468V135.136H64.7948V138.816H70.4588V140ZM80.3201 140H78.7521L76.0481 135.76H73.9041V140H72.5761V129.328H76.8641C77.8561 129.328 78.6615 129.621 79.2801 130.208C79.9095 130.795 80.2241 131.573 80.2241 132.544C80.2241 133.461 79.9521 134.192 79.4081 134.736C78.8748 135.28 78.2188 135.584 77.4401 135.648L80.3201 140ZM76.7041 134.592C77.3335 134.592 77.8455 134.4 78.2401 134.016C78.6455 133.632 78.8481 133.141 78.8481 132.544C78.8481 131.936 78.6455 131.445 78.2401 131.072C77.8455 130.699 77.3335 130.512 76.7041 130.512H73.9041V134.592H76.7041ZM83.6541 140H82.3261V129.328H83.6541V140ZM94.9863 140H93.7063L87.4823 131.488V140H86.1543V129.328H87.5143L93.6583 137.664V129.328H94.9863V140ZM102.538 140.208C100.992 140.208 99.6904 139.696 98.6344 138.672C97.5784 137.637 97.0504 136.304 97.0504 134.672C97.0504 133.04 97.573 131.712 98.6184 130.688C99.6744 129.664 100.981 129.152 102.538 129.152C104.234 129.152 105.616 129.813 106.682 131.136L105.626 131.808C105.285 131.36 104.837 131.003 104.282 130.736C103.738 130.469 103.157 130.336 102.538 130.336C101.354 130.336 100.373 130.741 99.5944 131.552C98.8157 132.363 98.4264 133.403 98.4264 134.672C98.4264 135.931 98.8157 136.971 99.5944 137.792C100.384 138.603 101.365 139.008 102.538 139.008C103.125 139.008 103.674 138.896 104.186 138.672C104.698 138.437 105.109 138.165 105.418 137.856V135.696H101.738V134.512H106.73V138.352C105.632 139.589 104.234 140.208 102.538 140.208ZM116.485 140.192C114.757 140.192 113.392 139.627 112.389 138.496L113.189 137.472C114.075 138.496 115.189 139.008 116.533 139.008C117.397 139.008 118.032 138.821 118.437 138.448C118.843 138.075 119.045 137.643 119.045 137.152C119.045 136.725 118.885 136.373 118.565 136.096C118.256 135.808 117.867 135.6 117.397 135.472C116.939 135.344 116.432 135.2 115.877 135.04C115.333 134.869 114.827 134.693 114.357 134.512C113.899 134.331 113.509 134.037 113.189 133.632C112.88 133.227 112.725 132.725 112.725 132.128C112.725 131.253 113.072 130.539 113.765 129.984C114.459 129.429 115.339 129.152 116.405 129.152C117.973 129.152 119.232 129.653 120.181 130.656L119.381 131.632C118.624 130.779 117.595 130.352 116.293 130.352C115.653 130.352 115.125 130.512 114.709 130.832C114.304 131.141 114.101 131.547 114.101 132.048C114.101 132.421 114.256 132.731 114.565 132.976C114.885 133.221 115.275 133.403 115.733 133.52C116.203 133.637 116.709 133.787 117.253 133.968C117.808 134.139 118.315 134.325 118.773 134.528C119.243 134.72 119.632 135.035 119.941 135.472C120.261 135.909 120.421 136.437 120.421 137.056C120.421 137.92 120.096 138.661 119.445 139.28C118.805 139.888 117.819 140.192 116.485 140.192ZM129.396 140H122.404V129.328H129.396V130.512H123.732V133.952H129.284V135.136H123.732V138.816H129.396V140ZM139.258 140H137.69L134.986 135.76H132.842V140H131.514V129.328H135.802C136.794 129.328 137.599 129.621 138.218 130.208C138.847 130.795 139.162 131.573 139.162 132.544C139.162 133.461 138.89 134.192 138.346 134.736C137.812 135.28 137.156 135.584 136.378 135.648L139.258 140ZM135.642 134.592C136.271 134.592 136.783 134.4 137.178 134.016C137.583 133.632 137.786 133.141 137.786 132.544C137.786 131.936 137.583 131.445 137.178 131.072C136.783 130.699 136.271 130.512 135.642 130.512H132.842V134.592H135.642ZM145.955 140H144.307L140.003 129.328H141.523L145.123 138.544L148.723 129.328H150.243L145.955 140ZM152.967 140H151.639V129.328H152.967V140ZM160.523 140.192C158.965 140.192 157.659 139.68 156.603 138.656C155.557 137.621 155.035 136.293 155.035 134.672C155.035 133.051 155.557 131.728 156.603 130.704C157.659 129.669 158.965 129.152 160.523 129.152C162.24 129.152 163.589 129.856 164.571 131.264L163.467 131.888C163.157 131.419 162.736 131.045 162.203 130.768C161.68 130.48 161.12 130.336 160.523 130.336C159.339 130.336 158.357 130.741 157.579 131.552C156.8 132.363 156.411 133.403 156.411 134.672C156.411 135.931 156.8 136.971 157.579 137.792C158.368 138.603 159.349 139.008 160.523 139.008C161.12 139.008 161.68 138.864 162.203 138.576C162.736 138.288 163.157 137.915 163.467 137.456L164.587 138.064C163.552 139.483 162.197 140.192 160.523 140.192ZM173.271 140H166.279V129.328H173.271V130.512H167.607V133.952H173.159V135.136H167.607V138.816H173.271V140ZM57.6478 155.192C56.0904 155.192 54.7838 154.68 53.7278 153.656C52.6824 152.621 52.1598 151.293 52.1598 149.672C52.1598 148.051 52.6824 146.728 53.7278 145.704C54.7838 144.669 56.0904 144.152 57.6478 144.152C59.3651 144.152 60.7144 144.856 61.6958 146.264L60.5918 146.888C60.2824 146.419 59.8611 146.045 59.3278 145.768C58.8051 145.48 58.2451 145.336 57.6478 145.336C56.4638 145.336 55.4824 145.741 54.7038 146.552C53.9251 147.363 53.5358 148.403 53.5358 149.672C53.5358 150.931 53.9251 151.971 54.7038 152.792C55.4931 153.603 56.4744 154.008 57.6478 154.008C58.2451 154.008 58.8051 153.864 59.3278 153.576C59.8611 153.288 60.2824 152.915 60.5918 152.456L61.7118 153.064C60.6771 154.483 59.3224 155.192 57.6478 155.192ZM72.0923 153.624C71.1003 154.669 69.8256 155.192 68.2683 155.192C66.7109 155.192 65.4363 154.669 64.4443 153.624C63.4629 152.579 62.9723 151.261 62.9723 149.672C62.9723 148.083 63.4629 146.765 64.4443 145.72C65.4363 144.675 66.7109 144.152 68.2683 144.152C69.8256 144.152 71.1003 144.675 72.0923 145.72C73.0843 146.765 73.5803 148.083 73.5803 149.672C73.5803 151.261 73.0843 152.579 72.0923 153.624ZM68.2683 154.008C69.4416 154.008 70.3909 153.603 71.1163 152.792C71.8416 151.971 72.2043 150.931 72.2043 149.672C72.2043 148.413 71.8416 147.379 71.1163 146.568C70.3909 145.747 69.4416 145.336 68.2683 145.336C67.0843 145.336 66.1349 145.741 65.4203 146.552C64.7056 147.363 64.3483 148.403 64.3483 149.672C64.3483 150.931 64.7056 151.971 65.4203 152.792C66.1349 153.603 67.0843 154.008 68.2683 154.008ZM86.0866 155H84.7586V146.024L81.1426 155H80.5986L76.9666 146.024V155H75.6386V144.328H77.5426L80.8706 152.552L84.1826 144.328H86.0866V155ZM89.9041 155H88.5761V144.328H92.8641C93.8988 144.328 94.7148 144.637 95.3121 145.256C95.9095 145.875 96.2081 146.637 96.2081 147.544C96.2081 148.451 95.9041 149.213 95.2961 149.832C94.6988 150.451 93.8881 150.76 92.8641 150.76H89.9041V155ZM92.7041 149.576C93.3335 149.576 93.8455 149.389 94.2401 149.016C94.6348 148.632 94.8321 148.141 94.8321 147.544C94.8321 146.947 94.6348 146.461 94.2401 146.088C93.8455 145.704 93.3335 145.512 92.7041 145.512H89.9041V149.576H92.7041ZM105.868 155H104.348L103.404 152.616H98.0924L97.1484 155H95.6284L99.9324 144.328H101.58L105.868 155ZM103.02 151.448L100.748 145.688L98.4924 151.448H103.02ZM116.096 155H114.816L108.592 146.488V155H107.264V144.328H108.624L114.768 152.664V144.328H116.096V155ZM119.92 155H118.592V144.328H119.92V155ZM129.412 155H122.42V144.328H129.412V145.512H123.748V148.952H129.3V150.136H123.748V153.816H129.412V155ZM134.985 155.192C133.257 155.192 131.892 154.627 130.889 153.496L131.689 152.472C132.575 153.496 133.689 154.008 135.033 154.008C135.897 154.008 136.532 153.821 136.937 153.448C137.343 153.075 137.545 152.643 137.545 152.152C137.545 151.725 137.385 151.373 137.065 151.096C136.756 150.808 136.367 150.6 135.897 150.472C135.439 150.344 134.932 150.2 134.377 150.04C133.833 149.869 133.327 149.693 132.857 149.512C132.399 149.331 132.009 149.037 131.689 148.632C131.38 148.227 131.225 147.725 131.225 147.128C131.225 146.253 131.572 145.539 132.265 144.984C132.959 144.429 133.839 144.152 134.905 144.152C136.473 144.152 137.732 144.653 138.681 145.656L137.881 146.632C137.124 145.779 136.095 145.352 134.793 145.352C134.153 145.352 133.625 145.512 133.209 145.832C132.804 146.141 132.601 146.547 132.601 147.048C132.601 147.421 132.756 147.731 133.065 147.976C133.385 148.221 133.775 148.403 134.233 148.52C134.703 148.637 135.209 148.787 135.753 148.968C136.308 149.139 136.815 149.325 137.273 149.528C137.743 149.72 138.132 150.035 138.441 150.472C138.761 150.909 138.921 151.437 138.921 152.056C138.921 152.92 138.596 153.661 137.945 154.28C137.305 154.888 136.319 155.192 134.985 155.192Z" fill="black"/>
<path d="M85.5598 125V125.25H85.8098V125H85.5598ZM84.2318 125H83.9818V125.25H84.2318V125ZM84.2318 115.512H84.4818V115.262H84.2318V115.512ZM80.8558 115.512H80.6058V115.762H80.8558V115.512ZM80.8558 114.328V114.078H80.6058V114.328H80.8558ZM88.9518 114.328H89.2018V114.078H88.9518V114.328ZM88.9518 115.512V115.762H89.2018V115.512H88.9518ZM85.5598 115.512V115.262H85.3098V115.512H85.5598ZM85.5598 124.75H84.2318V125.25H85.5598V124.75ZM84.4818 125V115.512H83.9818V125H84.4818ZM84.2318 115.262H80.8558V115.762H84.2318V115.262ZM81.1058 115.512V114.328H80.6058V115.512H81.1058ZM80.8558 114.578H88.9518V114.078H80.8558V114.578ZM88.7018 114.328V115.512H89.2018V114.328H88.7018ZM88.9518 115.262H85.5598V115.762H88.9518V115.262ZM85.3098 115.512V125H85.8098V115.512H85.3098ZM98.9673 123.624L99.1486 123.796L99.1486 123.796L98.9673 123.624ZM91.3193 123.624L91.137 123.795L91.1379 123.796L91.3193 123.624ZM91.3193 115.72L91.1379 115.548L91.137 115.549L91.3193 115.72ZM98.9673 115.72L99.1486 115.548L99.1486 115.548L98.9673 115.72ZM97.9913 122.792L98.1776 122.959L98.1786 122.957L97.9913 122.792ZM97.9913 116.568L97.8039 116.733L97.8049 116.735L97.9913 116.568ZM92.2953 116.552L92.4828 116.717L92.4828 116.717L92.2953 116.552ZM92.2953 122.792L92.1066 122.956L92.1077 122.957L92.2953 122.792ZM98.7859 123.452C97.8452 124.443 96.6382 124.942 95.1433 124.942V125.442C96.763 125.442 98.1053 124.895 99.1486 123.796L98.7859 123.452ZM95.1433 124.942C93.6483 124.942 92.4413 124.443 91.5006 123.452L91.1379 123.796C92.1812 124.895 93.5235 125.442 95.1433 125.442V124.942ZM91.5015 123.453C90.5686 122.459 90.0973 121.205 90.0973 119.672H89.5973C89.5973 121.317 90.1073 122.698 91.137 123.795L91.5015 123.453ZM90.0973 119.672C90.0973 118.139 90.5686 116.885 91.5015 115.891L91.137 115.549C90.1073 116.646 89.5973 118.027 89.5973 119.672H90.0973ZM91.5006 115.892C92.4413 114.901 93.6483 114.402 95.1433 114.402V113.902C93.5235 113.902 92.1812 114.449 91.1379 115.548L91.5006 115.892ZM95.1433 114.402C96.6382 114.402 97.8452 114.901 98.7859 115.892L99.1486 115.548C98.1053 114.449 96.763 113.902 95.1433 113.902V114.402ZM98.7859 115.892C99.7291 116.886 100.205 118.14 100.205 119.672H100.705C100.705 118.026 100.189 116.645 99.1486 115.548L98.7859 115.892ZM100.205 119.672C100.205 121.204 99.7291 122.458 98.7859 123.452L99.1486 123.796C100.189 122.699 100.705 121.318 100.705 119.672H100.205ZM95.1433 124.258C96.3814 124.258 97.4008 123.827 98.1776 122.959L97.8049 122.625C97.1311 123.378 96.2518 123.758 95.1433 123.758V124.258ZM98.1786 122.957C98.9503 122.084 99.3293 120.982 99.3293 119.672H98.8293C98.8293 120.879 98.4829 121.858 97.8039 122.627L98.1786 122.957ZM99.3293 119.672C99.3293 118.362 98.9503 117.265 98.1776 116.401L97.8049 116.735C98.4829 117.492 98.8293 118.465 98.8293 119.672H99.3293ZM98.1786 116.403C97.4022 115.523 96.3825 115.086 95.1433 115.086V115.586C96.2506 115.586 97.1297 115.97 97.8039 116.733L98.1786 116.403ZM95.1433 115.086C93.8952 115.086 92.8747 115.517 92.1077 116.387L92.4828 116.717C93.1451 115.966 94.0233 115.586 95.1433 115.586V115.086ZM92.1077 116.387C91.3459 117.251 90.9733 118.353 90.9733 119.672H91.4733C91.4733 118.452 91.8152 117.475 92.4828 116.717L92.1077 116.387ZM90.9733 119.672C90.9733 120.981 91.3463 122.082 92.1067 122.956L92.4838 122.628C91.8149 121.859 91.4733 120.88 91.4733 119.672H90.9733ZM92.1077 122.957C92.8747 123.827 93.8952 124.258 95.1433 124.258V123.758C94.0233 123.758 93.1451 123.378 92.4828 122.627L92.1077 122.957ZM103.842 125V125.25H104.092V125H103.842ZM102.514 125H102.264V125.25H102.514V125ZM102.514 114.328V114.078H102.264V114.328H102.514ZM109.25 115.256L109.07 115.43L109.25 115.256ZM109.234 119.832L109.055 119.657L109.054 119.658L109.234 119.832ZM103.842 120.76V120.51H103.592V120.76H103.842ZM108.178 119.016L108.349 119.198L108.352 119.195L108.178 119.016ZM108.178 116.088L108.003 116.267L108.006 116.27L108.178 116.088ZM103.842 115.512V115.262H103.592V115.512H103.842ZM103.842 119.576H103.592V119.826H103.842V119.576ZM103.842 124.75H102.514V125.25H103.842V124.75ZM102.764 125V114.328H102.264V125H102.764ZM102.514 114.578H106.802V114.078H102.514V114.578ZM106.802 114.578C107.783 114.578 108.529 114.869 109.07 115.43L109.429 115.082C108.776 114.405 107.889 114.078 106.802 114.078V114.578ZM109.07 115.43C109.619 115.999 109.896 116.698 109.896 117.544H110.396C110.396 116.576 110.074 115.75 109.429 115.082L109.07 115.43ZM109.896 117.544C109.896 118.388 109.615 119.087 109.055 119.657L109.412 120.007C110.068 119.34 110.396 118.513 110.396 117.544H109.896ZM109.054 119.658C108.512 120.219 107.772 120.51 106.802 120.51V121.01C107.879 121.01 108.76 120.682 109.413 120.006L109.054 119.658ZM106.802 120.51H103.842V121.01H106.802V120.51ZM103.592 120.76V125H104.092V120.76H103.592ZM106.642 119.826C107.324 119.826 107.901 119.622 108.349 119.198L108.006 118.834C107.665 119.157 107.218 119.326 106.642 119.326V119.826ZM108.352 119.195C108.799 118.76 109.02 118.202 109.02 117.544H108.52C108.52 118.08 108.345 118.504 108.003 118.837L108.352 119.195ZM109.02 117.544C109.02 116.886 108.799 116.332 108.349 115.906L108.006 116.27C108.345 116.591 108.52 117.008 108.52 117.544H109.02ZM108.352 115.909C107.904 115.473 107.326 115.262 106.642 115.262V115.762C107.216 115.762 107.662 115.935 108.003 116.267L108.352 115.909ZM106.642 115.262H103.842V115.762H106.642V115.262ZM103.592 115.512V119.576H104.092V115.512H103.592ZM103.842 119.826H106.642V119.326H103.842V119.826ZM27.2434 140V140.25H27.6133L27.4754 139.907L27.2434 140ZM25.7234 140L25.4909 140.092L25.5535 140.25H25.7234V140ZM24.7794 137.616L25.0118 137.524L24.9493 137.366H24.7794V137.616ZM19.4674 137.616V137.366H19.2975L19.2349 137.524L19.4674 137.616ZM18.5234 140V140.25H18.6933L18.7558 140.092L18.5234 140ZM17.0034 140L16.7715 139.906L16.633 140.25H17.0034V140ZM21.3074 129.328V129.078H21.1386L21.0755 129.234L21.3074 129.328ZM22.9554 129.328L23.1874 129.235L23.1244 129.078H22.9554V129.328ZM24.3954 136.448V136.698H24.7627L24.6279 136.356L24.3954 136.448ZM22.1234 130.688L22.3559 130.596L22.1226 130.005L21.8906 130.597L22.1234 130.688ZM19.8674 136.448L19.6346 136.357L19.501 136.698H19.8674V136.448ZM27.2434 139.75H25.7234V140.25H27.2434V139.75ZM25.9558 139.908L25.0118 137.524L24.5469 137.708L25.4909 140.092L25.9558 139.908ZM24.7794 137.366H19.4674V137.866H24.7794V137.366ZM19.2349 137.524L18.2909 139.908L18.7558 140.092L19.6998 137.708L19.2349 137.524ZM18.5234 139.75H17.0034V140.25H18.5234V139.75ZM17.2352 140.094L21.5392 129.422L21.0755 129.234L16.7715 139.906L17.2352 140.094ZM21.3074 129.578H22.9554V129.078H21.3074V129.578ZM22.7234 129.421L27.0114 140.093L27.4754 139.907L23.1874 129.235L22.7234 129.421ZM24.6279 136.356L22.3559 130.596L21.8908 130.78L24.1628 136.54L24.6279 136.356ZM21.8906 130.597L19.6346 136.357L20.1002 136.539L22.3562 130.779L21.8906 130.597ZM19.8674 136.698H24.3954V136.198H19.8674V136.698ZM37.4706 140V140.25H37.7206V140H37.4706ZM36.1906 140L35.9888 140.148L36.0637 140.25H36.1906V140ZM29.9666 131.488L30.1684 131.34L29.7166 130.723V131.488H29.9666ZM29.9666 140V140.25H30.2166V140H29.9666ZM28.6386 140H28.3886V140.25H28.6386V140ZM28.6386 129.328V129.078H28.3886V129.328H28.6386ZM29.9986 129.328L30.1999 129.18L30.1249 129.078H29.9986V129.328ZM36.1426 137.664L35.9414 137.812L36.3926 138.425V137.664H36.1426ZM36.1426 129.328V129.078H35.8926V129.328H36.1426ZM37.4706 129.328H37.7206V129.078H37.4706V129.328ZM37.4706 139.75H36.1906V140.25H37.4706V139.75ZM36.3924 139.852L30.1684 131.34L29.7648 131.636L35.9888 140.148L36.3924 139.852ZM29.7166 131.488V140H30.2166V131.488H29.7166ZM29.9666 139.75H28.6386V140.25H29.9666V139.75ZM28.8886 140V129.328H28.3886V140H28.8886ZM28.6386 129.578H29.9986V129.078H28.6386V129.578ZM29.7974 129.476L35.9414 137.812L36.3439 137.516L30.1999 129.18L29.7974 129.476ZM36.3926 137.664V129.328H35.8926V137.664H36.3926ZM36.1426 129.578H37.4706V129.078H36.1426V129.578ZM37.2206 129.328V140H37.7206V129.328H37.2206ZM39.3268 138.496L39.1297 138.342L39.0016 138.506L39.1397 138.662L39.3268 138.496ZM40.1268 137.472L40.3159 137.308L40.117 137.078L39.9297 137.318L40.1268 137.472ZM45.3748 138.448L45.2054 138.264L45.2054 138.264L45.3748 138.448ZM45.5028 136.096L45.3323 136.279L45.339 136.285L45.5028 136.096ZM44.3348 135.472L44.2675 135.713L44.269 135.713L44.3348 135.472ZM42.8148 135.04L42.7399 135.279L42.7455 135.28L42.8148 135.04ZM41.2948 134.512L41.2028 134.744L41.2047 134.745L41.2948 134.512ZM40.1268 133.632L39.928 133.784L39.9305 133.787L40.1268 133.632ZM40.7028 129.984L40.5466 129.789L40.5466 129.789L40.7028 129.984ZM47.1188 130.656L47.3121 130.814L47.4518 130.644L47.3003 130.484L47.1188 130.656ZM46.3188 131.632L46.1318 131.798L46.3263 132.017L46.5121 131.79L46.3188 131.632ZM41.6468 130.832L41.7984 131.031L41.7992 131.03L41.6468 130.832ZM41.5028 132.976L41.3474 133.172L41.3506 133.174L41.5028 132.976ZM42.6708 133.52L42.6088 133.762L42.6101 133.763L42.6708 133.52ZM44.1908 133.968L44.1117 134.205L44.1172 134.207L44.1908 133.968ZM45.7108 134.528L45.6097 134.757L45.6161 134.759L45.7108 134.528ZM46.8788 135.472L46.6746 135.616L46.677 135.62L46.8788 135.472ZM46.3828 139.28L46.5549 139.461L46.555 139.461L46.3828 139.28ZM43.4227 139.942C41.7549 139.942 40.462 139.399 39.5138 138.33L39.1397 138.662C40.1969 139.854 41.6346 140.442 43.4227 140.442V139.942ZM39.5238 138.65L40.3238 137.626L39.9297 137.318L39.1297 138.342L39.5238 138.65ZM39.9376 137.636C40.8701 138.714 42.0535 139.258 43.4708 139.258V138.758C42.2 138.758 41.1541 138.278 40.3159 137.308L39.9376 137.636ZM43.4708 139.258C44.3633 139.258 45.0725 139.066 45.5441 138.632L45.2054 138.264C44.8663 138.576 44.3062 138.758 43.4708 138.758V139.258ZM45.5441 138.632C45.9938 138.218 46.2328 137.722 46.2328 137.152H45.7328C45.7328 137.564 45.5663 137.932 45.2054 138.264L45.5441 138.632ZM46.2328 137.152C46.2328 136.653 46.0418 136.232 45.6665 135.907L45.339 136.285C45.6038 136.514 45.7328 136.797 45.7328 137.152H46.2328ZM45.6731 135.913C45.3299 135.594 44.903 135.368 44.4005 135.231L44.269 135.713C44.7052 135.832 45.0569 136.022 45.3324 136.279L45.6731 135.913ZM44.4019 135.231C43.9441 135.103 43.4382 134.96 42.884 134.8L42.7455 135.28C43.3007 135.44 43.8081 135.585 44.2676 135.713L44.4019 135.231ZM42.8896 134.801C42.3501 134.632 41.8485 134.458 41.3849 134.279L41.2047 134.745C41.6796 134.929 42.1914 135.106 42.7399 135.279L42.8896 134.801ZM41.3867 134.28C40.971 134.115 40.617 133.85 40.323 133.477L39.9305 133.787C40.2765 134.225 40.7012 134.546 41.2028 134.744L41.3867 134.28ZM40.3255 133.48C40.0549 133.126 39.9128 132.68 39.9128 132.128H39.4128C39.4128 132.77 39.58 133.328 39.928 133.784L40.3255 133.48ZM39.9128 132.128C39.9128 131.331 40.2238 130.687 40.8589 130.179L40.5466 129.789C39.795 130.39 39.4128 131.176 39.4128 132.128H39.9128ZM40.8589 130.179C41.4995 129.667 42.321 129.402 43.3428 129.402V128.902C42.2312 128.902 41.2927 129.192 40.5466 129.789L40.8589 130.179ZM43.3428 129.402C44.8523 129.402 46.0417 129.882 46.9372 130.828L47.3003 130.484C46.2971 129.425 44.9692 128.902 43.3428 128.902V129.402ZM46.9254 130.498L46.1254 131.474L46.5121 131.79L47.3121 130.814L46.9254 130.498ZM46.5057 131.466C45.694 130.551 44.5924 130.102 43.2308 130.102V130.602C44.4717 130.602 45.4288 131.006 46.1318 131.798L46.5057 131.466ZM43.2308 130.102C42.548 130.102 41.9629 130.273 41.4943 130.634L41.7992 131.03C42.1626 130.751 42.6335 130.602 43.2308 130.602V130.102ZM41.4951 130.633C41.029 130.989 40.7888 131.467 40.7888 132.048H41.2888C41.2888 131.626 41.4538 131.294 41.7984 131.031L41.4951 130.633ZM40.7888 132.048C40.7888 132.503 40.9822 132.882 41.3474 133.172L41.6581 132.78C41.4046 132.579 41.2888 132.34 41.2888 132.048H40.7888ZM41.3506 133.174C41.7017 133.444 42.123 133.638 42.6088 133.762L42.7327 133.278C42.3011 133.167 41.9438 132.999 41.6549 132.778L41.3506 133.174ZM42.6101 133.763C43.0722 133.878 43.5727 134.026 44.1117 134.205L44.2698 133.731C43.7208 133.548 43.2079 133.397 42.7314 133.277L42.6101 133.763ZM44.1172 134.207C44.6639 134.375 45.1613 134.559 45.6097 134.757L45.8118 134.299C45.3429 134.092 44.8269 133.902 44.2643 133.729L44.1172 134.207ZM45.6161 134.759C46.0389 134.932 46.3912 135.216 46.6746 135.616L47.0829 135.328C46.7477 134.854 46.3213 134.508 45.8054 134.297L45.6161 134.759ZM46.677 135.62C46.9613 136.008 47.1088 136.483 47.1088 137.056H47.6088C47.6088 136.392 47.4362 135.81 47.0805 135.324L46.677 135.62ZM47.1088 137.056C47.1088 137.849 46.8137 138.525 46.2105 139.099L46.555 139.461C47.2531 138.797 47.6088 137.991 47.6088 137.056H47.1088ZM46.2106 139.099C45.6359 139.645 44.724 139.942 43.4227 139.942V140.442C44.7882 140.442 45.8496 140.131 46.5549 139.461L46.2106 139.099ZM58.9418 140V140.25H59.1302L59.1821 140.069L58.9418 140ZM57.5017 140L57.2606 140.066L57.3109 140.25H57.5017V140ZM55.1498 131.392L55.3909 131.326L55.1498 130.443L54.9086 131.326L55.1498 131.392ZM52.7977 140V140.25H52.9886L53.0389 140.066L52.7977 140ZM51.3578 140L51.1173 140.068L51.169 140.25H51.3578V140ZM48.3178 129.328V129.078H47.9866L48.0773 129.396L48.3178 129.328ZM49.7898 129.328L50.0313 129.264L49.9819 129.078H49.7898V129.328ZM52.1578 138.224L51.9162 138.288L52.1537 139.181L52.3988 138.29L52.1578 138.224ZM54.6058 129.328V129.078H54.4153L54.3647 129.262L54.6058 129.328ZM55.7098 129.328L55.9508 129.262L55.9002 129.078H55.7098V129.328ZM58.1578 138.224L57.9167 138.29L58.1626 139.184L58.3994 138.288L58.1578 138.224ZM60.5098 129.328V129.078H60.3173L60.2681 129.264L60.5098 129.328ZM61.9978 129.328L62.2381 129.397L62.3294 129.078H61.9978V129.328ZM58.9418 139.75H57.5017V140.25H58.9418V139.75ZM57.7429 139.934L55.3909 131.326L54.9086 131.458L57.2606 140.066L57.7429 139.934ZM54.9086 131.326L52.5566 139.934L53.0389 140.066L55.3909 131.458L54.9086 131.326ZM52.7977 139.75H51.3578V140.25H52.7977V139.75ZM51.5982 139.932L48.5582 129.26L48.0773 129.396L51.1173 140.068L51.5982 139.932ZM48.3178 129.578H49.7898V129.078H48.3178V129.578ZM49.5482 129.392L51.9162 138.288L52.3993 138.16L50.0313 129.264L49.5482 129.392ZM52.3988 138.29L54.8468 129.394L54.3647 129.262L51.9167 138.158L52.3988 138.29ZM54.6058 129.578H55.7098V129.078H54.6058V129.578ZM55.4687 129.394L57.9167 138.29L58.3988 138.158L55.9508 129.262L55.4687 129.394ZM58.3994 138.288L60.7514 129.392L60.2681 129.264L57.9161 138.16L58.3994 138.288ZM60.5098 129.578H61.9978V129.078H60.5098V129.578ZM61.7574 129.259L58.7014 139.931L59.1821 140.069L62.2381 129.397L61.7574 129.259ZM70.4588 140V140.25H70.7088V140H70.4588ZM63.4668 140H63.2168V140.25H63.4668V140ZM63.4668 129.328V129.078H63.2168V129.328H63.4668ZM70.4588 129.328H70.7088V129.078H70.4588V129.328ZM70.4588 130.512V130.762H70.7088V130.512H70.4588ZM64.7948 130.512V130.262H64.5448V130.512H64.7948ZM64.7948 133.952H64.5448V134.202H64.7948V133.952ZM70.3468 133.952H70.5968V133.702H70.3468V133.952ZM70.3468 135.136V135.386H70.5968V135.136H70.3468ZM64.7948 135.136V134.886H64.5448V135.136H64.7948ZM64.7948 138.816H64.5448V139.066H64.7948V138.816ZM70.4588 138.816H70.7088V138.566H70.4588V138.816ZM70.4588 139.75H63.4668V140.25H70.4588V139.75ZM63.7168 140V129.328H63.2168V140H63.7168ZM63.4668 129.578H70.4588V129.078H63.4668V129.578ZM70.2088 129.328V130.512H70.7088V129.328H70.2088ZM70.4588 130.262H64.7948V130.762H70.4588V130.262ZM64.5448 130.512V133.952H65.0448V130.512H64.5448ZM64.7948 134.202H70.3468V133.702H64.7948V134.202ZM70.0968 133.952V135.136H70.5968V133.952H70.0968ZM70.3468 134.886H64.7948V135.386H70.3468V134.886ZM64.5448 135.136V138.816H65.0448V135.136H64.5448ZM64.7948 139.066H70.4588V138.566H64.7948V139.066ZM70.2088 138.816V140H70.7088V138.816H70.2088ZM80.3201 140V140.25H80.7854L80.5286 139.862L80.3201 140ZM78.7521 140L78.5413 140.134L78.615 140.25H78.7521V140ZM76.0481 135.76L76.2589 135.626L76.1852 135.51H76.0481V135.76ZM73.9041 135.76V135.51H73.6541V135.76H73.9041ZM73.9041 140V140.25H74.1541V140H73.9041ZM72.5761 140H72.3261V140.25H72.5761V140ZM72.5761 129.328V129.078H72.3261V129.328H72.5761ZM79.2801 130.208L79.1081 130.389L79.1097 130.391L79.2801 130.208ZM79.4081 134.736L79.2313 134.559L79.2296 134.561L79.4081 134.736ZM77.4401 135.648L77.4196 135.399L76.9984 135.433L77.2316 135.786L77.4401 135.648ZM78.2401 134.016L78.0682 133.834L78.0658 133.837L78.2401 134.016ZM78.2401 131.072L78.0683 131.254L78.0708 131.256L78.2401 131.072ZM73.9041 130.512V130.262H73.6541V130.512H73.9041ZM73.9041 134.592H73.6541V134.842H73.9041V134.592ZM80.3201 139.75H78.7521V140.25H80.3201V139.75ZM78.9629 139.866L76.2589 135.626L75.8373 135.894L78.5413 140.134L78.9629 139.866ZM76.0481 135.51H73.9041V136.01H76.0481V135.51ZM73.6541 135.76V140H74.1541V135.76H73.6541ZM73.9041 139.75H72.5761V140.25H73.9041V139.75ZM72.8261 140V129.328H72.3261V140H72.8261ZM72.5761 129.578H76.8641V129.078H72.5761V129.578ZM76.8641 129.578C77.8033 129.578 78.5434 129.854 79.1081 130.389L79.4521 130.027C78.7795 129.389 77.9089 129.078 76.8641 129.078V129.578ZM79.1097 130.391C79.6815 130.924 79.9741 131.633 79.9741 132.544H80.4741C80.4741 131.514 80.1374 130.665 79.4506 130.025L79.1097 130.391ZM79.9741 132.544C79.9741 133.409 79.7196 134.071 79.2313 134.559L79.5849 134.913C80.1846 134.313 80.4741 133.514 80.4741 132.544H79.9741ZM79.2296 134.561C78.7395 135.061 78.1401 135.34 77.4196 135.399L77.4606 135.897C78.2975 135.828 79.0101 135.499 79.5866 134.911L79.2296 134.561ZM77.2316 135.786L80.1116 140.138L80.5286 139.862L77.6486 135.51L77.2316 135.786ZM76.7041 134.842C77.3885 134.842 77.9664 134.631 78.4145 134.195L78.0658 133.837C77.7245 134.169 77.2784 134.342 76.7041 134.342V134.842ZM78.4121 134.197C78.871 133.763 79.0981 133.205 79.0981 132.544H78.5981C78.5981 133.078 78.4199 133.501 78.0682 133.835L78.4121 134.197ZM79.0981 132.544C79.0981 131.874 78.8718 131.314 78.4095 130.888L78.0708 131.256C78.4191 131.577 78.5981 131.998 78.5981 132.544H79.0981ZM78.4119 130.89C77.9635 130.466 77.3865 130.262 76.7041 130.262V130.762C77.2804 130.762 77.7274 130.931 78.0683 131.254L78.4119 130.89ZM76.7041 130.262H73.9041V130.762H76.7041V130.262ZM73.6541 130.512V134.592H74.1541V130.512H73.6541ZM73.9041 134.842H76.7041V134.342H73.9041V134.842ZM83.6541 140V140.25H83.9041V140H83.6541ZM82.3261 140H82.0761V140.25H82.3261V140ZM82.3261 129.328V129.078H82.0761V129.328H82.3261ZM83.6541 129.328H83.9041V129.078H83.6541V129.328ZM83.6541 139.75H82.3261V140.25H83.6541V139.75ZM82.5761 140V129.328H82.0761V140H82.5761ZM82.3261 129.578H83.6541V129.078H82.3261V129.578ZM83.4041 129.328V140H83.9041V129.328H83.4041ZM94.9863 140V140.25H95.2363V140H94.9863ZM93.7063 140L93.5044 140.148L93.5793 140.25H93.7063V140ZM87.4823 131.488L87.6841 131.34L87.2323 130.723V131.488H87.4823ZM87.4823 140V140.25H87.7323V140H87.4823ZM86.1543 140H85.9043V140.25H86.1543V140ZM86.1543 129.328V129.078H85.9043V129.328H86.1543ZM87.5143 129.328L87.7155 129.18L87.6406 129.078H87.5143V129.328ZM93.6583 137.664L93.457 137.812L93.9083 138.425V137.664H93.6583ZM93.6583 129.328V129.078H93.4083V129.328H93.6583ZM94.9863 129.328H95.2363V129.078H94.9863V129.328ZM94.9863 139.75H93.7063V140.25H94.9863V139.75ZM93.9081 139.852L87.6841 131.34L87.2804 131.636L93.5044 140.148L93.9081 139.852ZM87.2323 131.488V140H87.7323V131.488H87.2323ZM87.4823 139.75H86.1543V140.25H87.4823V139.75ZM86.4043 140V129.328H85.9043V140H86.4043ZM86.1543 129.578H87.5143V129.078H86.1543V129.578ZM87.313 129.476L93.457 137.812L93.8595 137.516L87.7155 129.18L87.313 129.476ZM93.9083 137.664V129.328H93.4083V137.664H93.9083ZM93.6583 129.578H94.9863V129.078H93.6583V129.578ZM94.7363 129.328V140H95.2363V129.328H94.7363ZM98.6344 138.672L98.4594 138.851L98.4603 138.851L98.6344 138.672ZM98.6184 130.688L98.4443 130.509L98.4434 130.509L98.6184 130.688ZM106.682 131.136L106.817 131.347L107.053 131.197L106.877 130.979L106.682 131.136ZM105.626 131.808L105.428 131.96L105.567 132.142L105.761 132.019L105.626 131.808ZM104.282 130.736L104.172 130.96L104.174 130.961L104.282 130.736ZM99.5944 131.552L99.7747 131.725L99.7747 131.725L99.5944 131.552ZM99.5944 137.792L99.4129 137.964L99.4153 137.966L99.5944 137.792ZM104.186 138.672L104.287 138.901L104.291 138.899L104.186 138.672ZM105.418 137.856L105.595 138.033L105.668 137.96V137.856H105.418ZM105.418 135.696H105.668V135.446H105.418V135.696ZM101.738 135.696H101.488V135.946H101.738V135.696ZM101.738 134.512V134.262H101.488V134.512H101.738ZM106.73 134.512H106.98V134.262H106.73V134.512ZM106.73 138.352L106.917 138.518L106.98 138.447V138.352H106.73ZM102.538 139.958C101.053 139.958 99.8152 139.469 98.8084 138.493L98.4603 138.851C99.5656 139.923 100.93 140.458 102.538 140.458V139.958ZM98.8093 138.493C97.8066 137.511 97.3004 136.244 97.3004 134.672H96.8004C96.8004 136.364 97.3502 137.764 98.4594 138.851L98.8093 138.493ZM97.3004 134.672C97.3004 133.099 97.8017 131.838 98.7933 130.867L98.4434 130.509C97.3443 131.586 96.8004 132.981 96.8004 134.672H97.3004ZM98.7924 130.867C99.7988 129.892 101.042 129.402 102.538 129.402V128.902C100.92 128.902 99.5499 129.436 98.4443 130.509L98.7924 130.867ZM102.538 129.402C104.159 129.402 105.468 130.029 106.488 131.293L106.877 130.979C105.763 129.598 104.31 128.902 102.538 128.902V129.402ZM106.548 130.925L105.492 131.597L105.761 132.019L106.817 131.347L106.548 130.925ZM105.825 131.656C105.458 131.174 104.978 130.793 104.391 130.511L104.174 130.961C104.696 131.212 105.112 131.546 105.428 131.96L105.825 131.656ZM104.392 130.512C103.813 130.228 103.194 130.086 102.538 130.086V130.586C103.12 130.586 103.663 130.711 104.172 130.96L104.392 130.512ZM102.538 130.086C101.29 130.086 100.243 130.516 99.4141 131.379L99.7747 131.725C100.503 130.966 101.418 130.586 102.538 130.586V130.086ZM99.4141 131.379C98.5848 132.242 98.1764 133.347 98.1764 134.672H98.6764C98.6764 133.458 99.0466 132.483 99.7747 131.725L99.4141 131.379ZM98.1764 134.672C98.1764 135.987 98.5852 137.091 99.4129 137.964L99.7758 137.62C99.0463 136.85 98.6764 135.874 98.6764 134.672H98.1764ZM99.4153 137.966C100.254 138.827 101.3 139.258 102.538 139.258V138.758C101.43 138.758 100.514 138.378 99.7735 137.618L99.4153 137.966ZM102.538 139.258C103.158 139.258 103.741 139.14 104.287 138.901L104.086 138.443C103.607 138.652 103.092 138.758 102.538 138.758V139.258ZM104.291 138.899C104.822 138.656 105.26 138.368 105.595 138.033L105.242 137.679C104.958 137.962 104.575 138.219 104.082 138.445L104.291 138.899ZM105.668 137.856V135.696H105.168V137.856H105.668ZM105.418 135.446H101.738V135.946H105.418V135.446ZM101.988 135.696V134.512H101.488V135.696H101.988ZM101.738 134.762H106.73V134.262H101.738V134.762ZM106.48 134.512V138.352H106.98V134.512H106.48ZM106.543 138.186C105.494 139.368 104.165 139.958 102.538 139.958V140.458C104.304 140.458 105.77 139.81 106.917 138.518L106.543 138.186ZM112.389 138.496L112.192 138.342L112.064 138.506L112.202 138.662L112.389 138.496ZM113.189 137.472L113.378 137.308L113.179 137.078L112.992 137.318L113.189 137.472ZM118.437 138.448L118.268 138.264L118.268 138.264L118.437 138.448ZM118.565 136.096L118.395 136.279L118.402 136.285L118.565 136.096ZM117.397 135.472L117.33 135.713L117.331 135.713L117.397 135.472ZM115.877 135.04L115.802 135.279L115.808 135.28L115.877 135.04ZM114.357 134.512L114.265 134.744L114.267 134.745L114.357 134.512ZM113.189 133.632L112.99 133.784L112.993 133.787L113.189 133.632ZM113.765 129.984L113.609 129.789L113.609 129.789L113.765 129.984ZM120.181 130.656L120.375 130.814L120.514 130.644L120.363 130.484L120.181 130.656ZM119.381 131.632L119.194 131.798L119.389 132.017L119.575 131.79L119.381 131.632ZM114.709 130.832L114.861 131.031L114.862 131.03L114.709 130.832ZM114.565 132.976L114.41 133.172L114.413 133.174L114.565 132.976ZM115.733 133.52L115.671 133.762L115.673 133.763L115.733 133.52ZM117.253 133.968L117.174 134.205L117.18 134.207L117.253 133.968ZM118.773 134.528L118.672 134.757L118.679 134.759L118.773 134.528ZM119.941 135.472L119.737 135.616L119.739 135.62L119.941 135.472ZM119.445 139.28L119.617 139.461L119.618 139.461L119.445 139.28ZM116.485 139.942C114.817 139.942 113.524 139.399 112.576 138.33L112.202 138.662C113.259 139.854 114.697 140.442 116.485 140.442V139.942ZM112.586 138.65L113.386 137.626L112.992 137.318L112.192 138.342L112.586 138.65ZM113 137.636C113.933 138.714 115.116 139.258 116.533 139.258V138.758C115.262 138.758 114.217 138.278 113.378 137.308L113 137.636ZM116.533 139.258C117.426 139.258 118.135 139.066 118.607 138.632L118.268 138.264C117.929 138.576 117.369 138.758 116.533 138.758V139.258ZM118.607 138.632C119.056 138.218 119.295 137.722 119.295 137.152H118.795C118.795 137.564 118.629 137.932 118.268 138.264L118.607 138.632ZM119.295 137.152C119.295 136.653 119.104 136.232 118.729 135.907L118.402 136.285C118.666 136.514 118.795 136.797 118.795 137.152H119.295ZM118.736 135.913C118.392 135.594 117.965 135.368 117.463 135.231L117.331 135.713C117.768 135.832 118.119 136.022 118.395 136.279L118.736 135.913ZM117.464 135.231C117.007 135.103 116.501 134.96 115.947 134.8L115.808 135.28C116.363 135.44 116.871 135.585 117.33 135.713L117.464 135.231ZM115.952 134.801C115.413 134.632 114.911 134.458 114.447 134.279L114.267 134.745C114.742 134.929 115.254 135.106 115.802 135.279L115.952 134.801ZM114.449 134.28C114.033 134.115 113.679 133.85 113.385 133.477L112.993 133.787C113.339 134.225 113.764 134.546 114.265 134.744L114.449 134.28ZM113.388 133.48C113.117 133.126 112.975 132.68 112.975 132.128H112.475C112.475 132.77 112.642 133.328 112.991 133.784L113.388 133.48ZM112.975 132.128C112.975 131.331 113.286 130.687 113.921 130.179L113.609 129.789C112.857 130.39 112.475 131.176 112.475 132.128H112.975ZM113.921 130.179C114.562 129.667 115.384 129.402 116.405 129.402V128.902C115.294 128.902 114.355 129.192 113.609 129.789L113.921 130.179ZM116.405 129.402C117.915 129.402 119.104 129.882 120 130.828L120.363 130.484C119.36 129.425 118.032 128.902 116.405 128.902V129.402ZM119.988 130.498L119.188 131.474L119.575 131.79L120.375 130.814L119.988 130.498ZM119.568 131.466C118.757 130.551 117.655 130.102 116.293 130.102V130.602C117.534 130.602 118.491 131.006 119.194 131.798L119.568 131.466ZM116.293 130.102C115.611 130.102 115.025 130.273 114.557 130.634L114.862 131.03C115.225 130.751 115.696 130.602 116.293 130.602V130.102ZM114.558 130.633C114.092 130.989 113.851 131.467 113.851 132.048H114.351C114.351 131.626 114.516 131.294 114.861 131.031L114.558 130.633ZM113.851 132.048C113.851 132.503 114.045 132.882 114.41 133.172L114.721 132.78C114.467 132.579 114.351 132.34 114.351 132.048H113.851ZM114.413 133.174C114.764 133.444 115.186 133.638 115.671 133.762L115.795 133.278C115.364 133.167 115.006 132.999 114.717 132.778L114.413 133.174ZM115.673 133.763C116.135 133.878 116.635 134.026 117.174 134.205L117.332 133.731C116.783 133.548 116.27 133.397 115.794 133.277L115.673 133.763ZM117.18 134.207C117.726 134.375 118.224 134.559 118.672 134.757L118.874 134.299C118.405 134.092 117.889 133.902 117.327 133.729L117.18 134.207ZM118.679 134.759C119.101 134.932 119.454 135.216 119.737 135.616L120.145 135.328C119.81 134.854 119.384 134.508 118.868 134.297L118.679 134.759ZM119.739 135.62C120.024 136.008 120.171 136.483 120.171 137.056H120.671C120.671 136.392 120.499 135.81 120.143 135.324L119.739 135.62ZM120.171 137.056C120.171 137.849 119.876 138.525 119.273 139.099L119.618 139.461C120.316 138.797 120.671 137.991 120.671 137.056H120.171ZM119.273 139.099C118.698 139.645 117.786 139.942 116.485 139.942V140.442C117.851 140.442 118.912 140.131 119.617 139.461L119.273 139.099ZM129.396 140V140.25H129.646V140H129.396ZM122.404 140H122.154V140.25H122.404V140ZM122.404 129.328V129.078H122.154V129.328H122.404ZM129.396 129.328H129.646V129.078H129.396V129.328ZM129.396 130.512V130.762H129.646V130.512H129.396ZM123.732 130.512V130.262H123.482V130.512H123.732ZM123.732 133.952H123.482V134.202H123.732V133.952ZM129.284 133.952H129.534V133.702H129.284V133.952ZM129.284 135.136V135.386H129.534V135.136H129.284ZM123.732 135.136V134.886H123.482V135.136H123.732ZM123.732 138.816H123.482V139.066H123.732V138.816ZM129.396 138.816H129.646V138.566H129.396V138.816ZM129.396 139.75H122.404V140.25H129.396V139.75ZM122.654 140V129.328H122.154V140H122.654ZM122.404 129.578H129.396V129.078H122.404V129.578ZM129.146 129.328V130.512H129.646V129.328H129.146ZM129.396 130.262H123.732V130.762H129.396V130.262ZM123.482 130.512V133.952H123.982V130.512H123.482ZM123.732 134.202H129.284V133.702H123.732V134.202ZM129.034 133.952V135.136H129.534V133.952H129.034ZM129.284 134.886H123.732V135.386H129.284V134.886ZM123.482 135.136V138.816H123.982V135.136H123.482ZM123.732 139.066H129.396V138.566H123.732V139.066ZM129.146 138.816V140H129.646V138.816H129.146ZM139.258 140V140.25H139.723L139.466 139.862L139.258 140ZM137.69 140L137.479 140.134L137.553 140.25H137.69V140ZM134.986 135.76L135.196 135.626L135.123 135.51H134.986V135.76ZM132.842 135.76V135.51H132.592V135.76H132.842ZM132.842 140V140.25H133.092V140H132.842ZM131.514 140H131.264V140.25H131.514V140ZM131.514 129.328V129.078H131.264V129.328H131.514ZM138.218 130.208L138.046 130.389L138.047 130.391L138.218 130.208ZM138.346 134.736L138.169 134.559L138.167 134.561L138.346 134.736ZM136.378 135.648L136.357 135.399L135.936 135.433L136.169 135.786L136.378 135.648ZM137.178 134.016L137.006 133.834L137.003 133.837L137.178 134.016ZM137.178 131.072L137.006 131.254L137.008 131.256L137.178 131.072ZM132.842 130.512V130.262H132.592V130.512H132.842ZM132.842 134.592H132.592V134.842H132.842V134.592ZM139.258 139.75H137.69V140.25H139.258V139.75ZM137.9 139.866L135.196 135.626L134.775 135.894L137.479 140.134L137.9 139.866ZM134.986 135.51H132.842V136.01H134.986V135.51ZM132.592 135.76V140H133.092V135.76H132.592ZM132.842 139.75H131.514V140.25H132.842V139.75ZM131.764 140V129.328H131.264V140H131.764ZM131.514 129.578H135.802V129.078H131.514V129.578ZM135.802 129.578C136.741 129.578 137.481 129.854 138.046 130.389L138.39 130.027C137.717 129.389 136.846 129.078 135.802 129.078V129.578ZM138.047 130.391C138.619 130.924 138.912 131.633 138.912 132.544H139.412C139.412 131.514 139.075 130.665 138.388 130.025L138.047 130.391ZM138.912 132.544C138.912 133.409 138.657 134.071 138.169 134.559L138.522 134.913C139.122 134.313 139.412 133.514 139.412 132.544H138.912ZM138.167 134.561C137.677 135.061 137.078 135.34 136.357 135.399L136.398 135.897C137.235 135.828 137.948 135.499 138.524 134.911L138.167 134.561ZM136.169 135.786L139.049 140.138L139.466 139.862L136.586 135.51L136.169 135.786ZM135.642 134.842C136.326 134.842 136.904 134.631 137.352 134.195L137.003 133.837C136.662 134.169 136.216 134.342 135.642 134.342V134.842ZM137.35 134.197C137.808 133.763 138.036 133.205 138.036 132.544H137.536C137.536 133.078 137.357 133.501 137.006 133.835L137.35 134.197ZM138.036 132.544C138.036 131.874 137.809 131.314 137.347 130.888L137.008 131.256C137.357 131.577 137.536 131.998 137.536 132.544H138.036ZM137.349 130.89C136.901 130.466 136.324 130.262 135.642 130.262V130.762C136.218 130.762 136.665 130.931 137.006 131.254L137.349 130.89ZM135.642 130.262H132.842V130.762H135.642V130.262ZM132.592 130.512V134.592H133.092V130.512H132.592ZM132.842 134.842H135.642V134.342H132.842V134.842ZM145.955 140V140.25H146.124L146.187 140.093L145.955 140ZM144.307 140L144.076 140.094L144.139 140.25H144.307V140ZM140.003 129.328V129.078H139.633L139.772 129.422L140.003 129.328ZM141.523 129.328L141.756 129.237L141.694 129.078H141.523V129.328ZM145.123 138.544L144.891 138.635L145.123 139.231L145.356 138.635L145.123 138.544ZM148.723 129.328V129.078H148.553L148.491 129.237L148.723 129.328ZM150.243 129.328L150.475 129.421L150.613 129.078H150.243V129.328ZM145.955 139.75H144.307V140.25H145.955V139.75ZM144.539 139.906L140.235 129.234L139.772 129.422L144.076 140.094L144.539 139.906ZM140.003 129.578H141.523V129.078H140.003V129.578ZM141.291 129.419L144.891 138.635L145.356 138.453L141.756 129.237L141.291 129.419ZM145.356 138.635L148.956 129.419L148.491 129.237L144.891 138.453L145.356 138.635ZM148.723 129.578H150.243V129.078H148.723V129.578ZM150.011 129.235L145.723 139.907L146.187 140.093L150.475 129.421L150.011 129.235ZM152.967 140V140.25H153.217V140H152.967ZM151.639 140H151.389V140.25H151.639V140ZM151.639 129.328V129.078H151.389V129.328H151.639ZM152.967 129.328H153.217V129.078H152.967V129.328ZM152.967 139.75H151.639V140.25H152.967V139.75ZM151.889 140V129.328H151.389V140H151.889ZM151.639 129.578H152.967V129.078H151.639V129.578ZM152.717 129.328V140H153.217V129.328H152.717ZM156.603 138.656L156.427 138.834L156.429 138.835L156.603 138.656ZM156.603 130.704L156.778 130.883L156.778 130.883L156.603 130.704ZM164.571 131.264L164.694 131.482L164.933 131.346L164.776 131.121L164.571 131.264ZM163.467 131.888L163.258 132.026L163.387 132.221L163.59 132.106L163.467 131.888ZM162.203 130.768L162.082 130.987L162.087 130.99L162.203 130.768ZM157.579 131.552L157.759 131.725L157.759 131.725L157.579 131.552ZM157.579 137.792L157.397 137.964L157.4 137.966L157.579 137.792ZM162.203 138.576L162.084 138.356L162.082 138.357L162.203 138.576ZM163.467 137.456L163.586 137.236L163.386 137.128L163.259 137.316L163.467 137.456ZM164.587 138.064L164.789 138.211L164.957 137.981L164.706 137.844L164.587 138.064ZM160.523 139.942C159.026 139.942 157.783 139.452 156.777 138.477L156.429 138.835C157.534 139.908 158.905 140.442 160.523 140.442V139.942ZM156.779 138.478C155.786 137.496 155.285 136.234 155.285 134.672H154.785C154.785 136.353 155.329 137.747 156.427 138.834L156.779 138.478ZM155.285 134.672C155.285 133.11 155.786 131.854 156.778 130.883L156.428 130.525C155.329 131.602 154.785 132.991 154.785 134.672H155.285ZM156.778 130.883C157.784 129.896 159.027 129.402 160.523 129.402V128.902C158.904 128.902 157.533 129.442 156.428 130.525L156.778 130.883ZM160.523 129.402C162.158 129.402 163.431 130.066 164.366 131.407L164.776 131.121C163.748 129.646 162.322 128.902 160.523 128.902V129.402ZM164.448 131.046L163.344 131.67L163.59 132.106L164.694 131.482L164.448 131.046ZM163.675 131.75C163.341 131.243 162.887 130.842 162.318 130.546L162.087 130.99C162.586 131.249 162.974 131.594 163.258 132.026L163.675 131.75ZM162.323 130.549C161.764 130.241 161.162 130.086 160.523 130.086V130.586C161.078 130.586 161.596 130.719 162.082 130.987L162.323 130.549ZM160.523 130.086C159.275 130.086 158.227 130.516 157.398 131.379L157.759 131.725C158.488 130.966 159.403 130.586 160.523 130.586V130.086ZM157.398 131.379C156.569 132.242 156.161 133.347 156.161 134.672H156.661C156.661 133.458 157.031 132.483 157.759 131.725L157.398 131.379ZM156.161 134.672C156.161 135.987 156.57 137.091 157.397 137.964L157.76 137.62C157.031 136.85 156.661 135.874 156.661 134.672H156.161ZM157.4 137.966C158.238 138.827 159.285 139.258 160.523 139.258V138.758C159.414 138.758 158.498 138.378 157.758 137.618L157.4 137.966ZM160.523 139.258C161.162 139.258 161.764 139.103 162.323 138.795L162.082 138.357C161.596 138.625 161.078 138.758 160.523 138.758V139.258ZM162.322 138.796C162.887 138.491 163.34 138.091 163.674 137.596L163.259 137.316C162.975 137.738 162.585 138.085 162.084 138.356L162.322 138.796ZM163.347 137.676L164.467 138.284L164.706 137.844L163.586 137.236L163.347 137.676ZM164.385 137.917C163.394 139.275 162.113 139.942 160.523 139.942V140.442C162.282 140.442 163.71 139.691 164.789 138.211L164.385 137.917ZM173.271 140V140.25H173.521V140H173.271ZM166.279 140H166.029V140.25H166.279V140ZM166.279 129.328V129.078H166.029V129.328H166.279ZM173.271 129.328H173.521V129.078H173.271V129.328ZM173.271 130.512V130.762H173.521V130.512H173.271ZM167.607 130.512V130.262H167.357V130.512H167.607ZM167.607 133.952H167.357V134.202H167.607V133.952ZM173.159 133.952H173.409V133.702H173.159V133.952ZM173.159 135.136V135.386H173.409V135.136H173.159ZM167.607 135.136V134.886H167.357V135.136H167.607ZM167.607 138.816H167.357V139.066H167.607V138.816ZM173.271 138.816H173.521V138.566H173.271V138.816ZM173.271 139.75H166.279V140.25H173.271V139.75ZM166.529 140V129.328H166.029V140H166.529ZM166.279 129.578H173.271V129.078H166.279V129.578ZM173.021 129.328V130.512H173.521V129.328H173.021ZM173.271 130.262H167.607V130.762H173.271V130.262ZM167.357 130.512V133.952H167.857V130.512H167.357ZM167.607 134.202H173.159V133.702H167.607V134.202ZM172.909 133.952V135.136H173.409V133.952H172.909ZM173.159 134.886H167.607V135.386H173.159V134.886ZM167.357 135.136V138.816H167.857V135.136H167.357ZM167.607 139.066H173.271V138.566H167.607V139.066ZM173.021 138.816V140H173.521V138.816H173.021ZM53.7278 153.656L53.5519 153.834L53.5537 153.835L53.7278 153.656ZM53.7278 145.704L53.9027 145.883L53.9027 145.883L53.7278 145.704ZM61.6958 146.264L61.8188 146.482L62.0579 146.346L61.9008 146.121L61.6958 146.264ZM60.5918 146.888L60.383 147.026L60.5115 147.221L60.7148 147.106L60.5918 146.888ZM59.3278 145.768L59.2071 145.987L59.2124 145.99L59.3278 145.768ZM54.7038 146.552L54.884 146.725L54.884 146.725L54.7038 146.552ZM54.7038 152.792L54.5223 152.964L54.5246 152.966L54.7038 152.792ZM59.3278 153.576L59.209 153.356L59.2071 153.357L59.3278 153.576ZM60.5918 152.456L60.711 152.236L60.5115 152.128L60.3845 152.316L60.5918 152.456ZM61.7118 153.064L61.9137 153.211L62.082 152.981L61.831 152.844L61.7118 153.064ZM57.6478 154.942C56.1512 154.942 54.9082 154.452 53.9018 153.477L53.5537 153.835C54.6593 154.908 56.0297 155.442 57.6478 155.442V154.942ZM53.9036 153.478C52.9108 152.496 52.4098 151.234 52.4098 149.672H51.9098C51.9098 151.353 52.454 152.747 53.5519 153.834L53.9036 153.478ZM52.4098 149.672C52.4098 148.11 52.9108 146.854 53.9027 145.883L53.5528 145.525C52.4541 146.602 51.9098 147.991 51.9098 149.672H52.4098ZM53.9027 145.883C54.9093 144.896 56.152 144.402 57.6478 144.402V143.902C56.0289 143.902 54.6582 144.442 53.5528 145.525L53.9027 145.883ZM57.6478 144.402C59.2834 144.402 60.5561 145.066 61.4907 146.407L61.9008 146.121C60.8727 144.646 59.4468 143.902 57.6478 143.902V144.402ZM61.5727 146.046L60.4687 146.67L60.7148 147.106L61.8188 146.482L61.5727 146.046ZM60.8005 146.75C60.4661 146.243 60.0115 145.842 59.4431 145.546L59.2124 145.99C59.7107 146.249 60.0988 146.594 60.383 147.026L60.8005 146.75ZM59.4484 145.549C58.8887 145.241 58.2872 145.086 57.6478 145.086V145.586C58.2029 145.586 58.7214 145.719 59.2071 145.987L59.4484 145.549ZM57.6478 145.086C56.3998 145.086 55.352 145.516 54.5235 146.379L54.884 146.725C55.6128 145.966 56.5277 145.586 57.6478 145.586V145.086ZM54.5235 146.379C53.6942 147.242 53.2858 148.347 53.2858 149.672H53.7858C53.7858 148.458 54.156 147.483 54.884 146.725L54.5235 146.379ZM53.2858 149.672C53.2858 150.987 53.6945 152.091 54.5223 152.964L54.8852 152.62C54.1556 151.85 53.7858 150.874 53.7858 149.672H53.2858ZM54.5246 152.966C55.3629 153.827 56.4098 154.258 57.6478 154.258V153.758C56.5391 153.758 55.6232 153.378 54.8829 152.618L54.5246 152.966ZM57.6478 154.258C58.2872 154.258 58.8887 154.103 59.4484 153.795L59.2071 153.357C58.7214 153.625 58.2029 153.758 57.6478 153.758V154.258ZM59.4465 153.796C60.0119 153.491 60.465 153.091 60.799 152.596L60.3845 152.316C60.0998 152.738 59.7102 153.085 59.209 153.356L59.4465 153.796ZM60.4725 152.676L61.5925 153.284L61.831 152.844L60.711 152.236L60.4725 152.676ZM61.5098 152.917C60.5195 154.275 59.2381 154.942 57.6478 154.942V155.442C59.4067 155.442 60.8347 154.691 61.9137 153.211L61.5098 152.917ZM72.0923 153.624L72.2736 153.796L72.2736 153.796L72.0923 153.624ZM64.4443 153.624L64.262 153.795L64.2629 153.796L64.4443 153.624ZM64.4443 145.72L64.2629 145.548L64.262 145.549L64.4443 145.72ZM72.0923 145.72L72.2736 145.548L72.2736 145.548L72.0923 145.72ZM71.1163 152.792L71.3026 152.959L71.3036 152.957L71.1163 152.792ZM71.1163 146.568L70.9289 146.733L70.9299 146.735L71.1163 146.568ZM65.4203 146.552L65.6078 146.717L65.6078 146.717L65.4203 146.552ZM65.4203 152.792L65.2316 152.956L65.2327 152.957L65.4203 152.792ZM71.9109 153.452C70.9702 154.443 69.7632 154.942 68.2683 154.942V155.442C69.888 155.442 71.2303 154.895 72.2736 153.796L71.9109 153.452ZM68.2683 154.942C66.7733 154.942 65.5663 154.443 64.6256 153.452L64.2629 153.796C65.3062 154.895 66.6485 155.442 68.2683 155.442V154.942ZM64.6265 153.453C63.6936 152.459 63.2223 151.205 63.2223 149.672H62.7223C62.7223 151.317 63.2323 152.698 64.262 153.795L64.6265 153.453ZM63.2223 149.672C63.2223 148.139 63.6936 146.885 64.6265 145.891L64.262 145.549C63.2323 146.646 62.7223 148.027 62.7223 149.672H63.2223ZM64.6256 145.892C65.5663 144.901 66.7733 144.402 68.2683 144.402V143.902C66.6485 143.902 65.3062 144.449 64.2629 145.548L64.6256 145.892ZM68.2683 144.402C69.7632 144.402 70.9702 144.901 71.9109 145.892L72.2736 145.548C71.2303 144.449 69.888 143.902 68.2683 143.902V144.402ZM71.9109 145.892C72.8541 146.886 73.3303 148.14 73.3303 149.672H73.8303C73.8303 148.026 73.3144 146.645 72.2736 145.548L71.9109 145.892ZM73.3303 149.672C73.3303 151.204 72.8541 152.458 71.9109 153.452L72.2736 153.796C73.3144 152.699 73.8303 151.318 73.8303 149.672H73.3303ZM68.2683 154.258C69.5064 154.258 70.5258 153.827 71.3026 152.959L70.9299 152.625C70.2561 153.378 69.3768 153.758 68.2683 153.758V154.258ZM71.3036 152.957C72.0753 152.084 72.4543 150.982 72.4543 149.672H71.9543C71.9543 150.879 71.6079 151.858 70.9289 152.627L71.3036 152.957ZM72.4543 149.672C72.4543 148.362 72.0753 147.265 71.3026 146.401L70.9299 146.735C71.6079 147.492 71.9543 148.465 71.9543 149.672H72.4543ZM71.3036 146.403C70.5272 145.523 69.5075 145.086 68.2683 145.086V145.586C69.3756 145.586 70.2547 145.97 70.9289 146.733L71.3036 146.403ZM68.2683 145.086C67.0202 145.086 65.9997 145.517 65.2327 146.387L65.6078 146.717C66.2701 145.966 67.1483 145.586 68.2683 145.586V145.086ZM65.2327 146.387C64.4709 147.251 64.0983 148.353 64.0983 149.672H64.5983C64.5983 148.452 64.9402 147.475 65.6078 146.717L65.2327 146.387ZM64.0983 149.672C64.0983 150.981 64.4713 152.082 65.2317 152.956L65.6088 152.628C64.9399 151.859 64.5983 150.88 64.5983 149.672H64.0983ZM65.2327 152.957C65.9997 153.827 67.0202 154.258 68.2683 154.258V153.758C67.1483 153.758 66.2701 153.378 65.6078 152.627L65.2327 152.957ZM86.0866 155V155.25H86.3366V155H86.0866ZM84.7586 155H84.5086V155.25H84.7586V155ZM84.7586 146.024H85.0086L84.5267 145.931L84.7586 146.024ZM81.1426 155V155.25H81.3114L81.3745 155.093L81.1426 155ZM80.5986 155L80.3669 155.094L80.4301 155.25H80.5986V155ZM76.9666 146.024L77.1984 145.93L76.7166 146.024H76.9666ZM76.9666 155V155.25H77.2166V155H76.9666ZM75.6386 155H75.3886V155.25H75.6386V155ZM75.6386 144.328V144.078H75.3886V144.328H75.6386ZM77.5426 144.328L77.7744 144.234L77.7112 144.078H77.5426V144.328ZM80.8706 152.552L80.6389 152.646L80.8712 153.22L81.1025 152.645L80.8706 152.552ZM84.1826 144.328V144.078H84.0138L83.9507 144.235L84.1826 144.328ZM86.0866 144.328H86.3366V144.078H86.0866V144.328ZM86.0866 154.75H84.7586V155.25H86.0866V154.75ZM85.0086 155V146.024H84.5086V155H85.0086ZM84.5267 145.931L80.9107 154.907L81.3745 155.093L84.9905 146.117L84.5267 145.931ZM81.1426 154.75H80.5986V155.25H81.1426V154.75ZM80.8304 154.906L77.1984 145.93L76.7349 146.118L80.3669 155.094L80.8304 154.906ZM76.7166 146.024V155H77.2166V146.024H76.7166ZM76.9666 154.75H75.6386V155.25H76.9666V154.75ZM75.8886 155V144.328H75.3886V155H75.8886ZM75.6386 144.578H77.5426V144.078H75.6386V144.578ZM77.3109 144.422L80.6389 152.646L81.1024 152.458L77.7744 144.234L77.3109 144.422ZM81.1025 152.645L84.4145 144.421L83.9507 144.235L80.6387 152.459L81.1025 152.645ZM84.1826 144.578H86.0866V144.078H84.1826V144.578ZM85.8366 144.328V155H86.3366V144.328H85.8366ZM89.9041 155V155.25H90.1541V155H89.9041ZM88.5761 155H88.3261V155.25H88.5761V155ZM88.5761 144.328V144.078H88.3261V144.328H88.5761ZM95.3121 145.256L95.1323 145.43L95.3121 145.256ZM95.2961 149.832L95.1178 149.657L95.1163 149.658L95.2961 149.832ZM89.9041 150.76V150.51H89.6541V150.76H89.9041ZM94.2401 149.016L94.4119 149.198L94.4145 149.195L94.2401 149.016ZM94.2401 146.088L94.0658 146.267L94.0683 146.27L94.2401 146.088ZM89.9041 145.512V145.262H89.6541V145.512H89.9041ZM89.9041 149.576H89.6541V149.826H89.9041V149.576ZM89.9041 154.75H88.5761V155.25H89.9041V154.75ZM88.8261 155V144.328H88.3261V155H88.8261ZM88.5761 144.578H92.8641V144.078H88.5761V144.578ZM92.8641 144.578C93.8458 144.578 94.5914 144.869 95.1323 145.43L95.492 145.082C94.8381 144.405 93.9518 144.078 92.8641 144.078V144.578ZM95.1323 145.43C95.682 145.999 95.9581 146.698 95.9581 147.544H96.4581C96.4581 146.576 96.1369 145.75 95.492 145.082L95.1323 145.43ZM95.9581 147.544C95.9581 148.388 95.6776 149.087 95.1178 149.657L95.4744 150.007C96.1306 149.34 96.4581 148.513 96.4581 147.544H95.9581ZM95.1163 149.658C94.5749 150.219 93.8343 150.51 92.8641 150.51V151.01C93.942 151.01 94.8226 150.682 95.476 150.006L95.1163 149.658ZM92.8641 150.51H89.9041V151.01H92.8641V150.51ZM89.6541 150.76V155H90.1541V150.76H89.6541ZM92.7041 149.826C93.3865 149.826 93.9635 149.622 94.4119 149.198L94.0683 148.834C93.7274 149.157 93.2804 149.326 92.7041 149.326V149.826ZM94.4145 149.195C94.8619 148.76 95.0821 148.202 95.0821 147.544H94.5821C94.5821 148.08 94.4077 148.504 94.0658 148.837L94.4145 149.195ZM95.0821 147.544C95.0821 146.886 94.8618 146.332 94.4119 145.906L94.0683 146.27C94.4078 146.591 94.5821 147.008 94.5821 147.544H95.0821ZM94.4145 145.909C93.9664 145.473 93.3885 145.262 92.7041 145.262V145.762C93.2784 145.762 93.7245 145.935 94.0658 146.267L94.4145 145.909ZM92.7041 145.262H89.9041V145.762H92.7041V145.262ZM89.6541 145.512V149.576H90.1541V145.512H89.6541ZM89.9041 149.826H92.7041V149.326H89.9041V149.826ZM105.868 155V155.25H106.238L106.1 154.907L105.868 155ZM104.348 155L104.116 155.092L104.178 155.25H104.348V155ZM103.404 152.616L103.637 152.524L103.574 152.366H103.404V152.616ZM98.0924 152.616V152.366H97.9225L97.8599 152.524L98.0924 152.616ZM97.1484 155V155.25H97.3183L97.3808 155.092L97.1484 155ZM95.6284 155L95.3965 154.906L95.258 155.25H95.6284V155ZM99.9324 144.328V144.078H99.7636L99.7005 144.234L99.9324 144.328ZM101.58 144.328L101.812 144.235L101.749 144.078H101.58V144.328ZM103.02 151.448V151.698H103.388L103.253 151.356L103.02 151.448ZM100.748 145.688L100.981 145.596L100.748 145.005L100.516 145.597L100.748 145.688ZM98.4924 151.448L98.2596 151.357L98.126 151.698H98.4924V151.448ZM105.868 154.75H104.348V155.25H105.868V154.75ZM104.581 154.908L103.637 152.524L103.172 152.708L104.116 155.092L104.581 154.908ZM103.404 152.366H98.0924V152.866H103.404V152.366ZM97.8599 152.524L96.9159 154.908L97.3808 155.092L98.3248 152.708L97.8599 152.524ZM97.1484 154.75H95.6284V155.25H97.1484V154.75ZM95.8602 155.094L100.164 144.422L99.7005 144.234L95.3965 154.906L95.8602 155.094ZM99.9324 144.578H101.58V144.078H99.9324V144.578ZM101.348 144.421L105.636 155.093L106.1 154.907L101.812 144.235L101.348 144.421ZM103.253 151.356L100.981 145.596L100.516 145.78L102.788 151.54L103.253 151.356ZM100.516 145.597L98.2596 151.357L98.7252 151.539L100.981 145.779L100.516 145.597ZM98.4924 151.698H103.02V151.198H98.4924V151.698ZM116.096 155V155.25H116.346V155H116.096ZM114.816 155L114.614 155.148L114.689 155.25H114.816V155ZM108.592 146.488L108.793 146.34L108.342 145.723V146.488H108.592ZM108.592 155V155.25H108.842V155H108.592ZM107.264 155H107.014V155.25H107.264V155ZM107.264 144.328V144.078H107.014V144.328H107.264ZM108.624 144.328L108.825 144.18L108.75 144.078H108.624V144.328ZM114.768 152.664L114.566 152.812L115.018 153.425V152.664H114.768ZM114.768 144.328V144.078H114.518V144.328H114.768ZM116.096 144.328H116.346V144.078H116.096V144.328ZM116.096 154.75H114.816V155.25H116.096V154.75ZM115.017 154.852L108.793 146.34L108.39 146.636L114.614 155.148L115.017 154.852ZM108.342 146.488V155H108.842V146.488H108.342ZM108.592 154.75H107.264V155.25H108.592V154.75ZM107.514 155V144.328H107.014V155H107.514ZM107.264 144.578H108.624V144.078H107.264V144.578ZM108.422 144.476L114.566 152.812L114.969 152.516L108.825 144.18L108.422 144.476ZM115.018 152.664V144.328H114.518V152.664H115.018ZM114.768 144.578H116.096V144.078H114.768V144.578ZM115.846 144.328V155H116.346V144.328H115.846ZM119.92 155V155.25H120.17V155H119.92ZM118.592 155H118.342V155.25H118.592V155ZM118.592 144.328V144.078H118.342V144.328H118.592ZM119.92 144.328H120.17V144.078H119.92V144.328ZM119.92 154.75H118.592V155.25H119.92V154.75ZM118.842 155V144.328H118.342V155H118.842ZM118.592 144.578H119.92V144.078H118.592V144.578ZM119.67 144.328V155H120.17V144.328H119.67ZM129.412 155V155.25H129.662V155H129.412ZM122.42 155H122.17V155.25H122.42V155ZM122.42 144.328V144.078H122.17V144.328H122.42ZM129.412 144.328H129.662V144.078H129.412V144.328ZM129.412 145.512V145.762H129.662V145.512H129.412ZM123.748 145.512V145.262H123.498V145.512H123.748ZM123.748 148.952H123.498V149.202H123.748V148.952ZM129.3 148.952H129.55V148.702H129.3V148.952ZM129.3 150.136V150.386H129.55V150.136H129.3ZM123.748 150.136V149.886H123.498V150.136H123.748ZM123.748 153.816H123.498V154.066H123.748V153.816ZM129.412 153.816H129.662V153.566H129.412V153.816ZM129.412 154.75H122.42V155.25H129.412V154.75ZM122.67 155V144.328H122.17V155H122.67ZM122.42 144.578H129.412V144.078H122.42V144.578ZM129.162 144.328V145.512H129.662V144.328H129.162ZM129.412 145.262H123.748V145.762H129.412V145.262ZM123.498 145.512V148.952H123.998V145.512H123.498ZM123.748 149.202H129.3V148.702H123.748V149.202ZM129.05 148.952V150.136H129.55V148.952H129.05ZM129.3 149.886H123.748V150.386H129.3V149.886ZM123.498 150.136V153.816H123.998V150.136H123.498ZM123.748 154.066H129.412V153.566H123.748V154.066ZM129.162 153.816V155H129.662V153.816H129.162ZM130.889 153.496L130.692 153.342L130.564 153.506L130.702 153.662L130.889 153.496ZM131.689 152.472L131.878 152.308L131.679 152.078L131.492 152.318L131.689 152.472ZM136.937 153.448L136.768 153.264L136.768 153.264L136.937 153.448ZM137.065 151.096L136.895 151.279L136.902 151.285L137.065 151.096ZM135.897 150.472L135.83 150.713L135.831 150.713L135.897 150.472ZM134.377 150.04L134.302 150.279L134.308 150.28L134.377 150.04ZM132.857 149.512L132.765 149.744L132.767 149.745L132.857 149.512ZM131.689 148.632L131.49 148.784L131.493 148.787L131.689 148.632ZM132.265 144.984L132.109 144.789L132.109 144.789L132.265 144.984ZM138.681 145.656L138.875 145.814L139.014 145.644L138.863 145.484L138.681 145.656ZM137.881 146.632L137.694 146.798L137.889 147.017L138.075 146.79L137.881 146.632ZM133.209 145.832L133.361 146.031L133.362 146.03L133.209 145.832ZM133.065 147.976L132.91 148.172L132.913 148.174L133.065 147.976ZM134.233 148.52L134.171 148.762L134.173 148.763L134.233 148.52ZM135.753 148.968L135.674 149.205L135.68 149.207L135.753 148.968ZM137.273 149.528L137.172 149.757L137.179 149.759L137.273 149.528ZM138.441 150.472L138.237 150.616L138.239 150.62L138.441 150.472ZM137.945 154.28L138.117 154.461L138.118 154.461L137.945 154.28ZM134.985 154.942C133.317 154.942 132.024 154.399 131.076 153.33L130.702 153.662C131.759 154.854 133.197 155.442 134.985 155.442V154.942ZM131.086 153.65L131.886 152.626L131.492 152.318L130.692 153.342L131.086 153.65ZM131.5 152.636C132.433 153.714 133.616 154.258 135.033 154.258V153.758C133.762 153.758 132.717 153.278 131.878 152.308L131.5 152.636ZM135.033 154.258C135.926 154.258 136.635 154.066 137.107 153.632L136.768 153.264C136.429 153.576 135.869 153.758 135.033 153.758V154.258ZM137.107 153.632C137.556 153.218 137.795 152.722 137.795 152.152H137.295C137.295 152.564 137.129 152.932 136.768 153.264L137.107 153.632ZM137.795 152.152C137.795 151.653 137.604 151.232 137.229 150.907L136.902 151.285C137.166 151.514 137.295 151.797 137.295 152.152H137.795ZM137.236 150.913C136.892 150.594 136.465 150.368 135.963 150.231L135.831 150.713C136.268 150.832 136.619 151.022 136.895 151.279L137.236 150.913ZM135.964 150.231C135.507 150.103 135.001 149.96 134.447 149.8L134.308 150.28C134.863 150.44 135.371 150.585 135.83 150.713L135.964 150.231ZM134.452 149.801C133.913 149.632 133.411 149.458 132.947 149.279L132.767 149.745C133.242 149.929 133.754 150.106 134.302 150.279L134.452 149.801ZM132.949 149.28C132.533 149.115 132.179 148.85 131.885 148.477L131.493 148.787C131.839 149.225 132.264 149.546 132.765 149.744L132.949 149.28ZM131.888 148.48C131.617 148.126 131.475 147.68 131.475 147.128H130.975C130.975 147.77 131.142 148.328 131.491 148.784L131.888 148.48ZM131.475 147.128C131.475 146.331 131.786 145.687 132.421 145.179L132.109 144.789C131.357 145.39 130.975 146.176 130.975 147.128H131.475ZM132.421 145.179C133.062 144.667 133.884 144.402 134.905 144.402V143.902C133.794 143.902 132.855 144.192 132.109 144.789L132.421 145.179ZM134.905 144.402C136.415 144.402 137.604 144.882 138.5 145.828L138.863 145.484C137.86 144.425 136.532 143.902 134.905 143.902V144.402ZM138.488 145.498L137.688 146.474L138.075 146.79L138.875 145.814L138.488 145.498ZM138.068 146.466C137.257 145.551 136.155 145.102 134.793 145.102V145.602C136.034 145.602 136.991 146.006 137.694 146.798L138.068 146.466ZM134.793 145.102C134.111 145.102 133.525 145.273 133.057 145.634L133.362 146.03C133.725 145.751 134.196 145.602 134.793 145.602V145.102ZM133.058 145.633C132.592 145.989 132.351 146.467 132.351 147.048H132.851C132.851 146.626 133.016 146.294 133.361 146.031L133.058 145.633ZM132.351 147.048C132.351 147.503 132.545 147.882 132.91 148.172L133.221 147.78C132.967 147.579 132.851 147.34 132.851 147.048H132.351ZM132.913 148.174C133.264 148.444 133.686 148.638 134.171 148.762L134.295 148.278C133.864 148.167 133.506 147.999 133.217 147.778L132.913 148.174ZM134.173 148.763C134.635 148.878 135.135 149.026 135.674 149.205L135.832 148.731C135.283 148.548 134.77 148.397 134.294 148.277L134.173 148.763ZM135.68 149.207C136.226 149.375 136.724 149.559 137.172 149.757L137.374 149.299C136.905 149.092 136.389 148.902 135.827 148.729L135.68 149.207ZM137.179 149.759C137.601 149.932 137.954 150.216 138.237 150.616L138.645 150.328C138.31 149.854 137.884 149.508 137.368 149.297L137.179 149.759ZM138.239 150.62C138.524 151.008 138.671 151.483 138.671 152.056H139.171C139.171 151.392 138.999 150.81 138.643 150.324L138.239 150.62ZM138.671 152.056C138.671 152.849 138.376 153.525 137.773 154.099L138.118 154.461C138.816 153.797 139.171 152.991 139.171 152.056H138.671ZM137.773 154.099C137.198 154.645 136.286 154.942 134.985 154.942V155.442C136.351 155.442 137.412 155.131 138.117 154.461L137.773 154.099Z" fill="black"/>
<path d="M95.765 68.6661C95.5774 68.6661 95.5774 68.4654 95.765 68.6661L94.827 68.0638L94.6394 67.863L72.5036 50.9977C72.5036 50.9977 72.3161 50.9977 72.3161 50.797L71.9409 50.3954L71.7533 50.1946H71.3781L65 45.376L77.5686 47.3837C78.1314 47.3837 78.319 47.5845 78.8817 47.7853C79.0693 47.7853 79.4445 47.9861 79.4445 47.9861C80.0073 48.1869 80.1949 48.3876 80.5701 48.5884C80.9453 48.7892 81.1328 48.99 81.508 49.1907C81.6956 49.3915 82.0708 49.5923 82.0708 49.7931C82.2584 49.9939 82.446 49.9939 82.6336 50.1946C83.0088 50.3954 83.1963 50.5962 83.1963 50.797C83.7591 51.3993 84.1343 52.0016 84.6971 52.4032L94.6394 67.4615L94.827 67.6623L95.765 68.6661Z" fill="#18AAD1"/>
<path d="M95.7649 91.9564L94.8269 90.3502L94.6393 90.1494L65.1875 45.376L71.5656 50.1946L72.6912 50.9978L94.8269 67.8631H95.0145L95.7649 68.4654C95.7649 68.4654 95.9525 68.4654 95.9525 68.6662L96.8904 67.8631L126.717 45.376L96.7028 90.3502L96.5153 90.551L95.7649 91.9564Z" fill="#2AD2FF"/>
<path d="M95.7649 61.0363L94.8269 59.4301L94.6393 59.2293L87.3232 48.3873L94.6393 49.9935H94.8269L95.7649 50.1943L96.7028 49.9935L103.831 48.1865L96.7028 59.4301V59.6309L95.7649 61.0363Z" fill="#18AAD1"/>
<path d="M126.905 45.1748L117.525 46.5802L113.961 47.1826C111.147 47.5841 108.521 49.1904 106.833 51.8005L96.8902 67.0595L96.7026 67.2603L95.7646 68.6658L96.8902 67.4611L97.0778 67.2603L95.7646 68.6658L121.089 49.3911L126.905 45.1748Z" fill="#18AAD1"/>
<path d="M100.454 13.4521C100.454 22.2862 86.1973 26.9041 86.1973 36.3406C86.0097 38.5492 86.5725 40.7577 87.5104 42.7655C87.5104 42.7655 82.0703 37.1437 82.0703 31.1204C82.0703 25.0971 87.3229 16.0622 87.3229 16.0622C87.3229 20.0777 88.8236 21.2824 90.3243 21.4831H90.5119C92.2002 21.4831 93.1382 20.0777 93.1382 18.0699C93.1382 16.0622 91.0747 14.0544 91.0747 10.0389C91.0747 6.22409 95.5769 0 95.5769 0C98.7659 4.01554 100.454 8.63341 100.454 13.4521Z" fill="#2AD2FF"/>
<path d="M96.5155 45.5763C92.0134 45.5763 88.6367 41.7615 88.6367 37.1436V36.9429C88.6367 26.7032 101.956 25.6993 101.956 11.8457C102.331 12.448 105.895 17.6682 105.895 23.29C105.895 30.3172 99.7046 32.1242 99.7046 35.5374C99.7046 36.9429 100.267 37.9468 102.143 37.9468C102.331 37.9468 102.518 37.9468 102.706 37.746C106.27 36.1398 108.709 32.5258 108.897 28.3094C108.897 28.5102 110.772 45.5763 96.5155 45.5763Z" fill="#2AD2FF"/>
<path d="M102.33 37.9468C102.518 37.9468 102.705 37.9468 102.893 37.746C101.017 38.3483 94.0762 40.1553 94.0762 34.9351C94.0762 28.5102 104.394 27.1048 104.394 21.6838C104.394 18.2706 103.643 14.8574 101.955 11.8457C102.33 12.448 105.894 17.6682 105.894 23.29C105.894 30.3172 99.7039 32.1242 99.7039 35.5374C99.8915 36.9429 100.642 37.9468 102.33 37.9468Z" fill="#18AAD1"/>
<path d="M96.3781 17.0661C96.3781 22.0855 90.3752 21.684 90 21.4832H90.5628C92.2511 21.4832 93.189 20.0778 93.189 18.07C93.189 16.0622 91.1255 14.0544 91.1255 10.0389C91.1255 6.2241 95.6277 0 95.6277 0C94.127 2.61011 93.3766 5.42099 93.189 8.23188C93.189 12.8498 96.3781 13.2513 96.3781 17.0661Z" fill="#18AAD1"/>
<path d="M92.9512 104.806L88.8242 101.794H93.8892L95.5775 96.373L97.0782 101.794H102.143L98.0162 104.806L99.5169 110.026L95.3899 106.813L91.0753 110.026L92.9512 104.806Z" fill="#18AAD1"/>
<path d="M116.127 104.806L112 101.794H117.065L118.753 96.373L120.254 101.794H125.319L121.192 104.806L122.693 110.026L118.566 106.813L114.251 110.026L116.127 104.806Z" fill="#18AAD1"/>
<path d="M139.127 104.806L135 101.794H140.065L141.753 96.373L143.254 101.794H148.319L144.192 104.806L145.693 110.026L141.566 106.813L137.251 110.026L139.127 104.806Z" fill="#18AAD1"/>
<path d="M69.127 104.806L65 101.794H70.065L71.7533 96.373L73.254 101.794H78.319L74.192 104.806L75.6927 110.026L71.5657 106.813L67.4387 110.026L69.127 104.806Z" fill="#18AAD1"/>
<path d="M46.127 104.806L42 101.794H47.065L48.7533 96.373L50.254 101.794H55.319L51.192 104.806L52.6927 110.026L48.5657 106.813L44.4387 110.026L46.127 104.806Z" fill="#18AAD1"/>
<path d="M150.1 160.1H40.7998V178.3H150.1V160.1Z" fill="#0460B5"/>
<path d="M49.2 151H27L31.6 160.1L27 169.2H39.3L39.4 159.3L49.2 151Z" fill="#0460B5"/>
<path d="M141.8 151H163.9L159.3 160.1L163.9 169.2H151.6V159.3L141.8 151Z" fill="#0460B5"/>
<path d="M51.8998 166C52.4998 166.3 52.9998 166.8 53.2998 167.3C53.5998 167.9 53.7998 168.6 53.7998 169.2C53.7998 169.9 53.5998 170.5 53.2998 171.1C52.9998 171.7 52.4998 172.1 51.8998 172.4C51.2998 172.7 50.5998 172.9 49.8998 172.9H46.7998V165.4H49.8998C50.5998 165.5 51.2998 165.6 51.8998 166ZM51.1998 171.4C51.5998 171.2 51.8998 170.9 52.0998 170.5C52.4998 169.7 52.4998 168.7 52.0998 167.9C51.8998 167.5 51.5998 167.2 51.1998 167C50.7998 166.8 50.3998 166.7 49.8998 166.7H48.1998V171.7H49.8998C50.2998 171.7 50.7998 171.6 51.1998 171.4Z" fill="white"/>
<path d="M55 165.5H60.5V166.7H56.5V168.6H60.1V169.8H56.5V171.7H60.7V172.9H55V165.5Z" fill="white"/>
<path d="M65.6998 166.9C65.3998 166.8 64.9998 166.7 64.5998 166.7C64.2998 166.7 63.9998 166.8 63.7998 166.9C63.5998 167 63.4998 167.2 63.4998 167.4C63.4998 167.6 63.5998 167.8 63.6998 167.9C63.7998 168 63.9998 168.2 64.1998 168.2C64.4998 168.3 64.7998 168.4 65.0998 168.5C65.4998 168.6 65.8998 168.8 66.2998 168.9C66.5998 169.1 66.8998 169.3 67.0998 169.6C67.2998 169.9 67.4998 170.3 67.3998 170.8C67.3998 171.2 67.2998 171.7 66.9998 172C66.6998 172.3 66.3998 172.6 65.9998 172.8C65.4998 173 64.9998 173.1 64.4998 173.1C63.8998 173.1 63.2998 173 62.7998 172.8C62.2998 172.6 61.7998 172.3 61.2998 171.9L61.8998 170.7C62.2998 171 62.6998 171.3 63.1998 171.5C63.5998 171.7 64.0998 171.8 64.4998 171.8C64.7998 171.8 65.1998 171.7 65.3998 171.6C65.7998 171.4 65.7998 170.9 65.5998 170.5L65.4998 170.4C65.2998 170.3 65.1998 170.1 64.9998 170.1C64.7998 170 64.4998 169.9 64.0998 169.8C63.6998 169.7 63.2998 169.5 62.8998 169.4C62.5998 169.3 62.2998 169 62.0998 168.8C61.8998 168.5 61.6998 168.1 61.7998 167.7C61.7998 167.3 61.8998 166.9 62.0998 166.6C62.3998 166.3 62.6998 166 63.0998 165.8C63.5998 165.6 64.0998 165.5 64.5998 165.5C65.0998 165.5 65.5998 165.6 65.9998 165.7C66.3998 165.8 66.8998 166 67.2998 166.3L66.6998 167.5C66.4998 167.2 66.0998 167 65.6998 166.9Z" fill="white"/>
<path d="M68.9004 165.5H70.3004V173H68.9004V165.5Z" fill="white"/>
<path d="M77.2 169.2H78.4V172.1C78 172.4 77.5 172.6 77 172.8C76.5 173 76 173.1 75.4 173.1C74.7 173.1 74 172.9 73.4 172.6C72.8 172.3 72.3 171.8 72 171.2C71.6 170.6 71.5 169.9 71.5 169.2C71.5 168.5 71.7 167.8 72 167.3C72.4 166.7 72.9 166.2 73.5 165.9C74.1 165.6 74.8 165.4 75.5 165.4C76 165.4 76.6 165.5 77.1 165.7C77.6 165.9 78.1 166.1 78.4 166.5L77.6 167.6C77.3 167.3 77 167.1 76.6 167C76.2 166.9 75.9 166.8 75.5 166.8C75 166.8 74.6 166.9 74.2 167.1C73 167.8 72.6 169.4 73.3 170.6C73.8 171.4 74.6 171.9 75.5 171.9C75.8 171.9 76 171.9 76.3 171.8C76.6 171.7 76.9 171.6 77.1 171.4L77.2 169.2Z" fill="white"/>
<path d="M85.4002 165.5H86.8002V173H85.5002L81.6002 167.8V173H80.2002V165.5H81.6002L85.5002 170.7L85.4002 165.5Z" fill="white"/>
<path d="M93.2996 173L91.9996 170.8H89.9996V173H88.5996V165.5H91.6996C92.4996 165.4 93.2996 165.7 93.9996 166.1C94.4996 166.6 94.7996 167.3 94.7996 168C94.7996 168.5 94.6996 169 94.3996 169.5C94.0996 169.9 93.6996 170.2 93.2996 170.4L94.9996 172.9L93.2996 173ZM89.9996 169.5H91.6996C92.1996 169.5 92.5996 169.4 92.9996 169.1C93.2996 168.8 93.3996 168.5 93.3996 168.1C93.3996 167.7 93.2996 167.3 92.9996 167.1C92.5996 166.9 92.1996 166.7 91.7996 166.8H89.9996V169.5Z" fill="white"/>
<path d="M98.0996 171.3C98.4996 171.6 98.9996 171.8 99.3996 171.8C99.8996 171.8 100.4 171.6 100.7 171.3C101 170.9 101.2 170.4 101.2 169.9V165.5H102.6V169.9C102.6 170.5 102.5 171.1 102.2 171.6C101.9 172.1 101.5 172.5 101.1 172.7C100.6 173 99.9996 173.1 99.3996 173.1C98.7996 173.1 98.1996 173 97.5996 172.7C97.0996 172.5 96.6996 172.1 96.4996 171.6C96.1996 171.1 96.0996 170.5 96.0996 169.9V165.5H97.4996V169.9C97.5996 170.4 97.7996 170.9 98.0996 171.3Z" fill="white"/>
<path d="M108 166.9C107.7 166.8 107.3 166.7 106.9 166.7C106.6 166.7 106.3 166.8 106.1 166.9C105.9 167 105.8 167.2 105.8 167.4C105.8 167.6 105.9 167.8 106 167.9C106.1 168 106.3 168.2 106.5 168.2C106.8 168.3 107.1 168.4 107.4 168.5C107.8 168.6 108.2 168.8 108.6 168.9C108.9 169.1 109.2 169.3 109.4 169.6C109.6 169.9 109.8 170.3 109.7 170.8C109.7 171.2 109.6 171.7 109.3 172C109 172.3 108.7 172.6 108.3 172.8C107.8 173 107.3 173.1 106.8 173.1C106.2 173.1 105.6 173 105.1 172.8C104.6 172.6 104.1 172.3 103.6 171.9L104.2 170.7C104.6 171 105 171.3 105.5 171.5C105.9 171.7 106.4 171.8 106.8 171.8C107.1 171.8 107.5 171.7 107.7 171.6C108.1 171.4 108.1 170.9 107.9 170.5L107.8 170.4C107.6 170.3 107.5 170.1 107.3 170.1C107.1 170 106.8 169.9 106.4 169.8C106 169.7 105.6 169.5 105.2 169.4C104.9 169.3 104.6 169 104.4 168.8C104.2 168.5 104 168.1 104.1 167.7C104.1 167.3 104.2 166.9 104.4 166.6C104.7 166.3 105 166 105.4 165.8C105.9 165.6 106.4 165.5 106.9 165.5C107.4 165.5 107.9 165.6 108.3 165.7C108.7 165.8 109.2 166 109.6 166.3L109 167.5C108.8 167.2 108.4 167 108 166.9Z" fill="white"/>
<path d="M111.2 165.5H112.6V168.7H116.3V165.5H117.7V173H116.3V170H112.6V173H111.2V165.5Z" fill="white"/>
<path d="M120.4 171.7C120.5 171.8 120.6 172 120.6 172.3C120.6 172.5 120.5 172.7 120.4 172.9C120.3 173 120.1 173.1 119.9 173.1C119.7 173.1 119.5 173 119.4 172.9C119.3 172.7 119.2 172.5 119.2 172.3C119.2 172.1 119.3 171.9 119.4 171.7C119.5 171.6 119.7 171.5 119.9 171.5C120.1 171.5 120.3 171.6 120.4 171.7Z" fill="white"/>
<path d="M124.4 168.4C124 168.4 123.6 168.6 123.3 168.9C123 169.2 122.9 169.7 122.9 170.1C122.9 170.6 123 171 123.3 171.3C123.6 171.6 124 171.8 124.4 171.8C125 171.8 125.6 171.6 125.9 171.1L126.8 171.8C126.5 172.2 126.2 172.5 125.8 172.7C125.3 172.9 124.8 173 124.3 173C123.8 173 123.3 172.9 122.8 172.6C122.4 172.4 122 172 121.8 171.6C121.3 170.7 121.3 169.5 121.8 168.6C122 168.2 122.4 167.8 122.8 167.6C123.3 167.4 123.8 167.2 124.3 167.2C124.8 167.2 125.3 167.3 125.7 167.5C126.1 167.7 126.4 167.9 126.7 168.3L125.9 169.1C125.6 168.7 125 168.4 124.4 168.4Z" fill="white"/>
<path d="M131.9 167.6C132.3 167.8 132.7 168.2 133 168.6C133.3 169.1 133.4 169.6 133.4 170.1C133.4 170.6 133.3 171.2 133 171.6C132.7 172 132.4 172.4 131.9 172.6C131.4 172.8 130.9 173 130.3 173C129.7 173 129.2 172.9 128.7 172.6C128.3 172.4 127.9 172 127.6 171.6C127.3 171.1 127.2 170.6 127.2 170.1C127.2 169.6 127.3 169 127.6 168.6C127.9 168.2 128.2 167.8 128.7 167.6C129.2 167.3 129.7 167.2 130.3 167.2C130.9 167.2 131.4 167.3 131.9 167.6ZM129.2 168.9C128.6 169.6 128.6 170.7 129.2 171.4C129.5 171.7 129.9 171.9 130.4 171.9C130.8 171.9 131.3 171.7 131.6 171.4C132.2 170.7 132.2 169.6 131.6 168.9C131.3 168.6 130.9 168.4 130.4 168.4C129.9 168.4 129.5 168.5 129.2 168.9Z" fill="white"/>
<path d="M143.6 167.8C144 168.2 144.2 168.8 144.2 169.4V173H142.8V169.8C142.8 169.4 142.7 169.1 142.5 168.8C142.3 168.6 141.9 168.4 141.6 168.4C141.2 168.4 140.8 168.6 140.5 168.9C140.2 169.2 140.1 169.6 140.1 170.1V172.9H138.7V169.8C138.7 169.4 138.6 169.1 138.4 168.8C138.2 168.6 137.8 168.4 137.5 168.4C137.1 168.4 136.7 168.6 136.4 168.9C136.1 169.2 136 169.7 136.1 170.1V172.9H134.7V167.2H136.1V168.3C136.8 167.2 138.3 166.9 139.4 167.5C139.7 167.7 140 168.1 140.1 168.5C140.4 167.6 141.3 167.1 142.2 167.1C142.7 167.1 143.2 167.4 143.6 167.8Z" fill="white"/>
</svg>
