<svg xmlns="http://www.w3.org/2000/svg" xmlns:xlink="http://www.w3.org/1999/xlink" viewBox="0 0 600 450"><defs><style>.cls-1{fill:none;}.cls-2{isolation:isolate;}.cls-3{fill:url(#Áåçûìÿííûé_ãðàäèåíò_478);}.cls-4{opacity:0.3;}.cls-5{fill:#2c75e4;}.cls-59,.cls-6,.cls-66,.cls-7,.cls-8,.cls-9{opacity:0.4;}.cls-26,.cls-27,.cls-35,.cls-36,.cls-43,.cls-44,.cls-51,.cls-52,.cls-59,.cls-6,.cls-66,.cls-7,.cls-8,.cls-9{mix-blend-mode:lighten;}.cls-6{fill:url(#Áåçûìÿííûé_ãðàäèåíò_371);}.cls-7{fill:url(#Áåçûìÿííûé_ãðàäèåíò_371-2);}.cls-8{fill:url(#Áåçûìÿííûé_ãðàäèåíò_374);}.cls-9{fill:url(#Áåçûìÿííûé_ãðàäèåíò_374-2);}.cls-10{fill:#6ee8fc;}.cls-11{fill:url(#Áåçûìÿííûé_ãðàäèåíò_422);}.cls-12{fill:#70e8fc;}.cls-13,.cls-28{fill:#0c0f38;}.cls-13{opacity:0.8;}.cls-14{fill:url(#Áåçûìÿííûé_ãðàäèåíò_388);}.cls-15{fill:url(#Áåçûìÿííûé_ãðàäèåíò_377);}.cls-16{fill:url(#Áåçûìÿííûé_ãðàäèåíò_388-2);}.cls-17{fill:#d4088c;}.cls-18{fill:url(#Áåçûìÿííûé_ãðàäèåíò_300);}.cls-19{fill:url(#Áåçûìÿííûé_ãðàäèåíò_302);}.cls-20{fill:#6de0f6;}.cls-21{clip-path:url(#clip-path);}.cls-22{fill:#267fe5;}.cls-23{fill:#25bfec;}.cls-24{fill:#18d0f7;}.cls-25{fill:#480689;}.cls-26,.cls-35,.cls-43,.cls-51{opacity:0.2;}.cls-26{fill:url(#Áåçûìÿííûé_ãðàäèåíò_370);}.cls-27,.cls-36,.cls-44,.cls-52{opacity:0.25;}.cls-27{fill:url(#Áåçûìÿííûé_ãðàäèåíò_384);}.cls-28{opacity:0.6;}.cls-29{fill:url(#Áåçûìÿííûé_ãðàäèåíò_388-3);}.cls-30{fill:url(#Áåçûìÿííûé_ãðàäèåíò_377-2);}.cls-31{fill:url(#Áåçûìÿííûé_ãðàäèåíò_388-4);}.cls-32{fill:url(#Áåçûìÿííûé_ãðàäèåíò_300-2);}.cls-33{fill:url(#Áåçûìÿííûé_ãðàäèåíò_302-2);}.cls-34{clip-path:url(#clip-path-2);}.cls-35{fill:url(#Áåçûìÿííûé_ãðàäèåíò_370-2);}.cls-36{fill:url(#Áåçûìÿííûé_ãðàäèåíò_384-2);}.cls-37{fill:url(#Áåçûìÿííûé_ãðàäèåíò_388-5);}.cls-38{fill:url(#Áåçûìÿííûé_ãðàäèåíò_377-3);}.cls-39{fill:url(#Áåçûìÿííûé_ãðàäèåíò_388-6);}.cls-40{fill:url(#Áåçûìÿííûé_ãðàäèåíò_300-3);}.cls-41{fill:url(#Áåçûìÿííûé_ãðàäèåíò_302-3);}.cls-42{clip-path:url(#clip-path-3);}.cls-43{fill:url(#Áåçûìÿííûé_ãðàäèåíò_370-3);}.cls-44{fill:url(#Áåçûìÿííûé_ãðàäèåíò_384-3);}.cls-45{fill:url(#Áåçûìÿííûé_ãðàäèåíò_388-7);}.cls-46{fill:url(#Áåçûìÿííûé_ãðàäèåíò_377-4);}.cls-47{fill:url(#Áåçûìÿííûé_ãðàäèåíò_388-8);}.cls-48{fill:url(#Áåçûìÿííûé_ãðàäèåíò_300-4);}.cls-49{fill:url(#Áåçûìÿííûé_ãðàäèåíò_302-4);}.cls-50{clip-path:url(#clip-path-4);}.cls-51{fill:url(#Áåçûìÿííûé_ãðàäèåíò_370-4);}.cls-52{fill:url(#Áåçûìÿííûé_ãðàäèåíò_384-4);}.cls-53{fill:url(#Áåçûìÿííûé_ãðàäèåíò_422-2);}.cls-54{fill:url(#Áåçûìÿííûé_ãðàäèåíò_377-5);}.cls-55{fill:url(#Áåçûìÿííûé_ãðàäèåíò_388-9);}.cls-56{fill:url(#Áåçûìÿííûé_ãðàäèåíò_300-5);}.cls-57{fill:url(#Áåçûìÿííûé_ãðàäèåíò_302-5);}.cls-58{clip-path:url(#clip-path-5);}.cls-59{fill:url(#Áåçûìÿííûé_ãðàäèåíò_370-5);}.cls-60{fill:url(#Áåçûìÿííûé_ãðàäèåíò_422-3);}.cls-61{fill:url(#Áåçûìÿííûé_ãðàäèåíò_377-6);}.cls-62{fill:url(#Áåçûìÿííûé_ãðàäèåíò_388-10);}.cls-63{fill:url(#Áåçûìÿííûé_ãðàäèåíò_300-6);}.cls-64{fill:url(#Áåçûìÿííûé_ãðàäèåíò_302-6);}.cls-65{clip-path:url(#clip-path-6);}.cls-66{fill:url(#Áåçûìÿííûé_ãðàäèåíò_370-6);}.cls-67{fill:url(#Áåçûìÿííûé_ãðàäèåíò_422-4);}.cls-68{fill:#4a0e91;}.cls-69{fill:url(#Áåçûìÿííûé_ãðàäèåíò_377-7);}.cls-70{fill:#35047c;}.cls-71{fill:url(#Áåçûìÿííûé_ãðàäèåíò_377-8);}</style><radialGradient id="Áåçûìÿííûé_ãðàäèåíò_478" cx="120.57" cy="241.69" r="519.33" gradientUnits="userSpaceOnUse"><stop offset="0.01" stop-color="#2c35a2"/><stop offset="0.16" stop-color="#252c88"/><stop offset="0.4" stop-color="#1b2167"/><stop offset="0.62" stop-color="#15194f"/><stop offset="0.83" stop-color="#101540"/><stop offset="1" stop-color="#0f133b"/></radialGradient><radialGradient id="Áåçûìÿííûé_ãðàäèåíò_371" cx="-2596.74" cy="114.03" r="76.57" gradientTransform="matrix(0.87, 0.5, -0.87, 0.5, 2806.39, 1509.72)" gradientUnits="userSpaceOnUse"><stop offset="0.01" stop-color="#25bfec"/><stop offset="0.05" stop-color="#24b4e1"/><stop offset="0.22" stop-color="#1f83b0"/><stop offset="0.39" stop-color="#1b5a86"/><stop offset="0.56" stop-color="#173a66"/><stop offset="0.72" stop-color="#152350"/><stop offset="0.87" stop-color="#131642"/><stop offset="1" stop-color="#13113d"/></radialGradient><radialGradient id="Áåçûìÿííûé_ãðàäèåíò_371-2" cx="-2542.06" cy="213.29" r="35.91" xlink:href="#Áåçûìÿííûé_ãðàäèåíò_371"/><radialGradient id="Áåçûìÿííûé_ãðàäèåíò_374" cx="-2565.26" cy="234.45" r="35.91" gradientTransform="matrix(0.87, 0.5, -0.87, 0.5, 2806.39, 1509.72)" gradientUnits="userSpaceOnUse"><stop offset="0.01" stop-color="#d4088c"/><stop offset="0.1" stop-color="#b70980"/><stop offset="0.26" stop-color="#860c6c"/><stop offset="0.42" stop-color="#5c0e5b"/><stop offset="0.58" stop-color="#3c0f4e"/><stop offset="0.73" stop-color="#261045"/><stop offset="0.87" stop-color="#18113f"/><stop offset="1" stop-color="#13113d"/></radialGradient><radialGradient id="Áåçûìÿííûé_ãðàäèåíò_374-2" cx="-2715.67" cy="156.83" r="76.57" xlink:href="#Áåçûìÿííûé_ãðàäèåíò_374"/><linearGradient id="Áåçûìÿííûé_ãðàäèåíò_422" x1="187.27" y1="243" x2="273.26" y2="243" gradientUnits="userSpaceOnUse"><stop offset="0" stop-color="#6ee8fc"/><stop offset="0.22" stop-color="#6ee8fc"/><stop offset="0.49" stop-color="#6ee1f8"/><stop offset="0.77" stop-color="#d4088c"/><stop offset="1" stop-color="#d4088c"/></linearGradient><linearGradient id="Áåçûìÿííûé_ãðàäèåíò_388" x1="369.45" y1="218.12" x2="443.08" y2="218.12" gradientUnits="userSpaceOnUse"><stop offset="0" stop-color="#d4088c"/><stop offset="0.23" stop-color="#d4088c"/><stop offset="0.51" stop-color="#6ee1f8"/><stop offset="0.78" stop-color="#6ee8fc"/><stop offset="1" stop-color="#6ee8fc"/></linearGradient><linearGradient id="Áåçûìÿííûé_ãðàäèåíò_377" x1="369.42" y1="173.69" x2="444.92" y2="173.69" gradientUnits="userSpaceOnUse"><stop offset="0" stop-color="#a31fa9"/><stop offset="0.07" stop-color="#8b17a0"/><stop offset="0.15" stop-color="#740f98"/><stop offset="0.24" stop-color="#640a92"/><stop offset="0.34" stop-color="#5b078f"/><stop offset="0.48" stop-color="#58068e"/><stop offset="0.63" stop-color="#4d22a3"/><stop offset="0.94" stop-color="#3168da"/><stop offset="1" stop-color="#2c75e4"/></linearGradient><linearGradient id="Áåçûìÿííûé_ãðàäèåíò_388-2" x1="369.42" y1="196.84" x2="444.92" y2="196.84" xlink:href="#Áåçûìÿííûé_ãðàäèåíò_388"/><linearGradient id="Áåçûìÿííûé_ãðàäèåíò_300" x1="582.15" y1="654.37" x2="617.76" y2="623.53" gradientTransform="matrix(0.87, 0.5, -1, 0.58, 525, -518.49)" gradientUnits="userSpaceOnUse"><stop offset="0" stop-color="#8d139b"/><stop offset="0.17" stop-color="#851ba1"/><stop offset="0.43" stop-color="#6e33b2"/><stop offset="0.76" stop-color="#4958cd"/><stop offset="1" stop-color="#2979e4"/></linearGradient><linearGradient id="Áåçûìÿííûé_ãðàäèåíò_302" x1="586.79" y1="650.35" x2="613.31" y2="627.38" gradientTransform="matrix(0.87, 0.5, -1, 0.58, 525, -518.49)" gradientUnits="userSpaceOnUse"><stop offset="0" stop-color="#630692"/><stop offset="0.23" stop-color="#5b0e94"/><stop offset="0.59" stop-color="#432399"/><stop offset="1" stop-color="#2142a1"/></linearGradient><clipPath id="clip-path"><path class="cls-1" d="M404.44,159.67l-14.21-8.2c-1-.59-.88-1.6.28-2.28l13.64-7.87a4.37,4.37,0,0,1,3.94-.16l14.21,8.2c1,.58.88,1.6-.29,2.27l-13.63,7.87A4.37,4.37,0,0,1,404.44,159.67Z"/></clipPath><linearGradient id="Áåçûìÿííûé_ãðàäèåíò_370" x1="406.28" y1="160.06" x2="406.28" y2="79.28" gradientTransform="matrix(1, 0, 0, 1, 0, 0)" xlink:href="#Áåçûìÿííûé_ãðàäèåíò_371"/><linearGradient id="Áåçûìÿííûé_ãðàäèåíò_384" x1="406.28" y1="159.18" x2="406.28" y2="86.07" gradientUnits="userSpaceOnUse"><stop offset="0.01" stop-color="#70e8fc"/><stop offset="0.15" stop-color="#5ab5cf"/><stop offset="0.3" stop-color="#4584a3"/><stop offset="0.46" stop-color="#335a7e"/><stop offset="0.6" stop-color="#253a62"/><stop offset="0.75" stop-color="#1b244d"/><stop offset="0.88" stop-color="#151641"/><stop offset="1" stop-color="#13113d"/></linearGradient><linearGradient id="Áåçûìÿííûé_ãðàäèåíò_388-3" x1="323.79" y1="246.48" x2="397.42" y2="246.48" xlink:href="#Áåçûìÿííûé_ãðàäèåíò_388"/><linearGradient id="Áåçûìÿííûé_ãðàäèåíò_377-2" x1="323.76" y1="202.05" x2="399.26" y2="202.05" xlink:href="#Áåçûìÿííûé_ãðàäèåíò_377"/><linearGradient id="Áåçûìÿííûé_ãðàäèåíò_388-4" x1="323.76" y1="225.21" x2="399.26" y2="225.21" xlink:href="#Áåçûìÿííûé_ãðàäèåíò_388"/><linearGradient id="Áåçûìÿííûé_ãðàäèåíò_300-2" x1="584.15" y1="701.76" x2="619.76" y2="670.92" xlink:href="#Áåçûìÿííûé_ãðàäèåíò_300"/><linearGradient id="Áåçûìÿííûé_ãðàäèåíò_302-2" x1="588.79" y1="697.74" x2="615.31" y2="674.77" xlink:href="#Áåçûìÿííûé_ãðàäèåíò_302"/><clipPath id="clip-path-2"><path class="cls-1" d="M358.78,188l-14.21-8.2c-1-.58-.88-1.6.28-2.28l13.64-7.87a4.37,4.37,0,0,1,3.94-.16l14.21,8.2c1,.58.88,1.6-.29,2.27l-13.63,7.88A4.4,4.4,0,0,1,358.78,188Z"/></clipPath><linearGradient id="Áåçûìÿííûé_ãðàäèåíò_370-2" x1="360.62" y1="188.42" x2="360.62" y2="107.64" gradientTransform="matrix(1, 0, 0, 1, 0, 0)" xlink:href="#Áåçûìÿííûé_ãðàäèåíò_371"/><linearGradient id="Áåçûìÿííûé_ãðàäèåíò_384-2" x1="360.62" y1="187.54" x2="360.62" y2="114.43" xlink:href="#Áåçûìÿííûé_ãðàäèåíò_384"/><linearGradient id="Áåçûìÿííûé_ãðàäèåíò_388-5" x1="414.3" y1="246.19" x2="487.93" y2="246.19" xlink:href="#Áåçûìÿííûé_ãðàäèåíò_388"/><linearGradient id="Áåçûìÿííûé_ãðàäèåíò_377-3" x1="414.27" y1="201.76" x2="489.78" y2="201.76" xlink:href="#Áåçûìÿííûé_ãðàäèåíò_377"/><linearGradient id="Áåçûìÿííûé_ãðàäèåíò_388-6" x1="414.27" y1="224.91" x2="489.78" y2="224.91" xlink:href="#Áåçûìÿííûé_ãðàäèåíò_388"/><linearGradient id="Áåçûìÿííûé_ãðàäèåíò_300-3" x1="636.11" y1="656.25" x2="671.73" y2="625.41" xlink:href="#Áåçûìÿííûé_ãðàäèåíò_300"/><linearGradient id="Áåçûìÿííûé_ãðàäèåíò_302-3" x1="640.76" y1="652.23" x2="667.28" y2="629.26" xlink:href="#Áåçûìÿííûé_ãðàäèåíò_302"/><clipPath id="clip-path-3"><path class="cls-1" d="M449.29,187.74l-14.2-8.2c-1-.59-.89-1.6.28-2.28L449,169.39a4.37,4.37,0,0,1,3.94-.16l14.2,8.2c1,.58.88,1.6-.28,2.27l-13.64,7.88A4.4,4.4,0,0,1,449.29,187.74Z"/></clipPath><linearGradient id="Áåçûìÿííûé_ãðàäèåíò_370-3" x1="451.13" y1="188.13" x2="451.13" y2="107.35" gradientTransform="matrix(1, 0, 0, 1, 0, 0)" xlink:href="#Áåçûìÿííûé_ãðàäèåíò_371"/><linearGradient id="Áåçûìÿííûé_ãðàäèåíò_384-3" x1="451.13" y1="187.25" x2="451.13" y2="114.14" xlink:href="#Áåçûìÿííûé_ãðàäèåíò_384"/><linearGradient id="Áåçûìÿííûé_ãðàäèåíò_388-7" x1="368.64" y1="274.55" x2="442.27" y2="274.55" xlink:href="#Áåçûìÿííûé_ãðàäèåíò_388"/><linearGradient id="Áåçûìÿííûé_ãðàäèåíò_377-4" x1="368.61" y1="230.12" x2="444.12" y2="230.12" xlink:href="#Áåçûìÿííûé_ãðàäèåíò_377"/><linearGradient id="Áåçûìÿííûé_ãðàäèåíò_388-8" x1="368.61" y1="253.28" x2="444.12" y2="253.28" xlink:href="#Áåçûìÿííûé_ãðàäèåíò_388"/><linearGradient id="Áåçûìÿííûé_ãðàäèåíò_300-4" x1="638.11" y1="703.64" x2="673.73" y2="672.8" xlink:href="#Áåçûìÿííûé_ãðàäèåíò_300"/><linearGradient id="Áåçûìÿííûé_ãðàäèåíò_302-4" x1="642.76" y1="699.62" x2="669.27" y2="676.65" xlink:href="#Áåçûìÿííûé_ãðàäèåíò_302"/><clipPath id="clip-path-4"><path class="cls-1" d="M403.63,216.1l-14.2-8.2c-1-.58-.89-1.6.28-2.28l13.64-7.87a4.37,4.37,0,0,1,3.94-.16l14.2,8.2c1,.58.89,1.6-.28,2.27l-13.64,7.88A4.4,4.4,0,0,1,403.63,216.1Z"/></clipPath><linearGradient id="Áåçûìÿííûé_ãðàäèåíò_370-4" x1="405.47" y1="216.49" x2="405.47" y2="135.71" gradientTransform="matrix(1, 0, 0, 1, 0, 0)" xlink:href="#Áåçûìÿííûé_ãðàäèåíò_371"/><linearGradient id="Áåçûìÿííûé_ãðàäèåíò_384-4" x1="405.47" y1="215.61" x2="405.47" y2="142.5" xlink:href="#Áåçûìÿííûé_ãðàäèåíò_384"/><linearGradient id="Áåçûìÿííûé_ãðàäèåíò_422-2" x1="400.5" y1="323.51" x2="407.09" y2="365.12" xlink:href="#Áåçûìÿííûé_ãðàäèåíò_422"/><linearGradient id="Áåçûìÿííûé_ãðàäèåíò_377-5" x1="367.2" y1="337.7" x2="442.18" y2="337.7" xlink:href="#Áåçûìÿííûé_ãðàäèåíò_377"/><linearGradient id="Áåçûìÿííûé_ãðàäèåíò_388-9" x1="367.2" y1="346.29" x2="442.18" y2="346.29" xlink:href="#Áåçûìÿííûé_ãðàäèåíò_388"/><linearGradient id="Áåçûìÿííûé_ãðàäèåíò_300-5" x1="759.43" y1="810.15" x2="794.79" y2="779.52" xlink:href="#Áåçûìÿííûé_ãðàäèåíò_300"/><linearGradient id="Áåçûìÿííûé_ãðàäèåíò_302-5" x1="764.04" y1="806.15" x2="790.37" y2="783.35" xlink:href="#Áåçûìÿííûé_ãðàäèåíò_302"/><clipPath id="clip-path-5"><path class="cls-1" d="M402,338.19l-14.11-8.14c-1-.58-.88-1.59.28-2.26L401.69,320a4.36,4.36,0,0,1,3.92-.16l14.1,8.14c1,.58.88,1.59-.28,2.26L405.89,338A4.34,4.34,0,0,1,402,338.19Z"/></clipPath><linearGradient id="Áåçûìÿííûé_ãðàäèåíò_370-5" x1="403.79" y1="338.58" x2="403.79" y2="305.41" gradientTransform="matrix(1, 0, 0, 1, 0, 0)" xlink:href="#Áåçûìÿííûé_ãðàäèåíò_371"/><linearGradient id="Áåçûìÿííûé_ãðàäèåíò_422-3" x1="285.41" y1="143.43" x2="292" y2="185.04" xlink:href="#Áåçûìÿííûé_ãðàäèåíò_422"/><linearGradient id="Áåçûìÿííûé_ãðàäèåíò_377-6" x1="252.12" y1="157.63" x2="327.09" y2="157.63" xlink:href="#Áåçûìÿííûé_ãðàäèåíò_377"/><linearGradient id="Áåçûìÿííûé_ãðàäèåíò_388-10" x1="252.12" y1="166.21" x2="327.09" y2="166.21" xlink:href="#Áåçûìÿííûé_ãðàäèåíò_388"/><linearGradient id="Áåçûìÿííûé_ãðàäèåíò_300-6" x1="512.91" y1="711.75" x2="548.28" y2="681.12" xlink:href="#Áåçûìÿííûé_ãðàäèåíò_300"/><linearGradient id="Áåçûìÿííûé_ãðàäèåíò_302-6" x1="517.53" y1="707.75" x2="543.85" y2="684.95" xlink:href="#Áåçûìÿííûé_ãðàäèåíò_302"/><clipPath id="clip-path-6"><path class="cls-1" d="M286.89,158.12,272.79,150c-1-.58-.88-1.59.28-2.26l13.54-7.82a4.37,4.37,0,0,1,3.91-.16l14.11,8.15c1,.57.88,1.59-.28,2.25L290.8,158A4.37,4.37,0,0,1,286.89,158.12Z"/></clipPath><linearGradient id="Áåçûìÿííûé_ãðàäèåíò_370-6" x1="288.71" y1="158.51" x2="288.71" y2="125.33" gradientTransform="matrix(1, 0, 0, 1, 0, 0)" xlink:href="#Áåçûìÿííûé_ãðàäèåíò_371"/><linearGradient id="Áåçûìÿííûé_ãðàäèåíò_422-4" x1="189.05" y1="213.17" x2="247.69" y2="213.17" xlink:href="#Áåçûìÿííûé_ãðàäèåíò_422"/><linearGradient id="Áåçûìÿííûé_ãðàäèåíò_377-7" x1="215.53" y1="158.97" x2="244.68" y2="217.63" xlink:href="#Áåçûìÿííûé_ãðàäèåíò_377"/><linearGradient id="Áåçûìÿííûé_ãðàäèåíò_377-8" x1="159.64" y1="159.7" x2="262.98" y2="209.07" xlink:href="#Áåçûìÿííûé_ãðàäèåíò_377"/></defs><g class="cls-2"><g id="Ñëîé_1" data-name="Ñëîé 1"><rect class="cls-3" width="600" height="450"/><g class="cls-4"><path class="cls-5" d="M319,176.8a5.09,5.09,0,0,1-2.47-.62L311,173a2,2,0,0,1-1.17-1.64,1.55,1.55,0,0,1,.88-1.34l26.57-15.34a4.86,4.86,0,0,1,4.41.17l5.49,3.17a2,2,0,0,1,1.17,1.64,1.57,1.57,0,0,1-.88,1.34l-26.57,15.34A4,4,0,0,1,319,176.8Zm-7.58-4.44,5.49,3.17a4.14,4.14,0,0,0,3.65.16l26.57-15.33a.9.9,0,0,0,.51-.69c0-.33-.3-.7-.8-1l-5.49-3.17a4.14,4.14,0,0,0-3.65-.16l-26.57,15.33a.9.9,0,0,0-.51.69c0,.33.3.7.8,1Z"/><path class="cls-5" d="M326.75,215.07a4.92,4.92,0,0,1-2.46-.63l-3.41-2a2,2,0,0,1-1.17-1.64,1.55,1.55,0,0,1,.88-1.34l13.5-7.79a4.8,4.8,0,0,1,4.4.17l3.4,2a2,2,0,0,1,1.18,1.64,1.56,1.56,0,0,1-.89,1.34l-13.49,7.79A3.89,3.89,0,0,1,326.75,215.07ZM336,202a3.27,3.27,0,0,0-1.56.35L321,210.15a.88.88,0,0,0-.51.69c0,.33.3.7.8,1l3.4,2a4.14,4.14,0,0,0,3.65.17l13.5-7.79a.88.88,0,0,0,.51-.69c0-.33-.3-.7-.8-1l-3.41-2A4.32,4.32,0,0,0,336,202Z"/><path class="cls-5" d="M341.68,228.66a4.45,4.45,0,0,1-2.2-.53L266.58,186a1.59,1.59,0,0,1,0-3L336,143a4.81,4.81,0,0,1,4.4,0l43.18,24.93a1.6,1.6,0,0,1,0,3l-13.15,7.59a.86.86,0,0,0,0,1.67L396.17,195a4.09,4.09,0,0,0,3.64,0l28.83-16.64c.41-.24.65-.54.65-.83a1.09,1.09,0,0,0-.65-.84L301.26,103.11a4.09,4.09,0,0,0-3.64,0l-71.38,41.21a.86.86,0,0,0,0,1.66L244,156.26l-.37.66-17.81-10.28a1.6,1.6,0,0,1,0-3l71.38-41.21a4.81,4.81,0,0,1,4.4,0L429,176a1.59,1.59,0,0,1,0,3l-28.83,16.65a4.81,4.81,0,0,1-4.4,0l-25.7-14.84a1.59,1.59,0,0,1,0-3l13.15-7.6a.85.85,0,0,0,0-1.66l-43.18-24.93a4.09,4.09,0,0,0-3.64,0L267,183.72a1.09,1.09,0,0,0-.65.84c0,.29.24.59.65.83l72.9,42.09a4.09,4.09,0,0,0,3.64,0l36.25-20.93a.86.86,0,0,0,0-1.67l-42-24.26a4.09,4.09,0,0,0-3.64,0L315.7,191.24l-.37-.65L333.71,180a4.81,4.81,0,0,1,4.4,0l42,24.26a1.59,1.59,0,0,1,0,3l-36.25,20.93A4.38,4.38,0,0,1,341.68,228.66Z"/><path class="cls-5" d="M272,156.55a4.56,4.56,0,0,1-2.2-.53l-8.46-4.89,44.15-25.49a4.81,4.81,0,0,1,4.4,0l5.89,3.4a1.59,1.59,0,0,1,0,3h0l-41.58,24A4.56,4.56,0,0,1,272,156.55Zm-9.15-5.42,7.33,4.23a4.09,4.09,0,0,0,3.64,0l41.58-24a.86.86,0,0,0,0-1.67l-5.89-3.4a4.09,4.09,0,0,0-3.64,0Z"/><path class="cls-5" d="M297,254.48a4.49,4.49,0,0,1-2.19-.53l-98.25-56.73a1.59,1.59,0,0,1,0-3L253,161.65l.38.65L196.9,194.9a1.09,1.09,0,0,0-.65.84c0,.29.24.59.65.83l98.24,56.72a4.09,4.09,0,0,0,3.64,0l11.53-6.65a.86.86,0,0,0,0-1.67l-15.41-8.89a4.09,4.09,0,0,0-3.64,0l-5.5,3.17a4.75,4.75,0,0,1-4.4,0l-69.59-40.18a1.59,1.59,0,0,1,0-3l4.72-2.73a4.79,4.79,0,0,1,4.39,0l62,35.81a4.09,4.09,0,0,0,3.64,0l12.3-7.1a4.79,4.79,0,0,1,4.39,0l25,14.43-.38.65-25-14.43a4.09,4.09,0,0,0-3.64,0l-12.3,7.1a4.73,4.73,0,0,1-4.39,0l-62-35.8a4.09,4.09,0,0,0-3.64,0l-4.73,2.72a.86.86,0,0,0,0,1.67l69.6,40.18a4.09,4.09,0,0,0,3.64,0l5.5-3.17a4.81,4.81,0,0,1,4.4,0l15.4,8.89a1.59,1.59,0,0,1,0,3L299.16,254A4.53,4.53,0,0,1,297,254.48Z"/><path class="cls-5" d="M282.68,221.52a5,5,0,0,1-2.46-.62L231.9,193a2,2,0,0,1-1.18-1.64,1.56,1.56,0,0,1,.89-1.33l11.44-6.61a4.83,4.83,0,0,1,4.4.17l48.32,27.9a2,2,0,0,1,1.18,1.64,1.58,1.58,0,0,1-.89,1.34l-11.43,6.6A4,4,0,0,1,282.68,221.52Zm-50.4-29.17,48.32,27.9a4.14,4.14,0,0,0,3.65.17l11.43-6.61a.84.84,0,0,0,.51-.68c0-.33-.3-.7-.8-1l-48.32-27.9a4.14,4.14,0,0,0-3.65-.16L232,190.68a.86.86,0,0,0-.51.68c0,.33.3.7.8,1Z"/><path class="cls-5" d="M189.81,191.42a4.5,4.5,0,0,1-2.2-.53l-19.2-11.08a1.6,1.6,0,0,1,0-3l47.66-27.51.38.65-47.66,27.52a.86.86,0,0,0,0,1.66L188,190.23a4.11,4.11,0,0,0,3.65,0l44.28-25.57a.85.85,0,0,0,0-1.66l-7.58-4.38a4.11,4.11,0,0,0-3.65,0l-31,17.9-.37-.65,31-17.91a4.79,4.79,0,0,1,4.39,0l7.59,4.38a1.6,1.6,0,0,1,0,3L192,190.89A4.49,4.49,0,0,1,189.81,191.42Z"/><path class="cls-5" d="M361.23,209.54a5,5,0,0,1-2.46-.62l-3.41-2a2,2,0,0,1-1.17-1.64,1.57,1.57,0,0,1,.88-1.34l4-2.3a4.85,4.85,0,0,1,4.41.17l3.4,2a2,2,0,0,1,1.18,1.64,1.55,1.55,0,0,1-.89,1.33l-4,2.3A3.89,3.89,0,0,1,361.23,209.54ZM361,202a3.16,3.16,0,0,0-1.56.35l-4,2.3a.86.86,0,0,0-.51.68c0,.33.3.7.8,1l3.4,2a4.11,4.11,0,0,0,3.65.17l4-2.3a.85.85,0,0,0,.5-.68c0-.33-.29-.7-.79-1l-3.41-2A4.31,4.31,0,0,0,361,202Z"/><path class="cls-5" d="M348.77,202.35a5.08,5.08,0,0,1-2.46-.62l-3.4-2a2,2,0,0,1-1.18-1.64,1.58,1.58,0,0,1,.89-1.34l4-2.3a4.85,4.85,0,0,1,4.41.17l3.4,2a2,2,0,0,1,1.18,1.64,1.55,1.55,0,0,1-.89,1.33l-4,2.3A3.91,3.91,0,0,1,348.77,202.35Zm-.24-7.56a3.12,3.12,0,0,0-1.55.35l-4,2.3a.84.84,0,0,0-.51.68c0,.33.3.7.8,1l3.4,2a4.11,4.11,0,0,0,3.65.17l4-2.3a.86.86,0,0,0,.51-.68c0-.33-.3-.7-.8-1l-3.4-2A4.35,4.35,0,0,0,348.53,194.79Z"/><path class="cls-5" d="M336.32,195.16a5,5,0,0,1-2.46-.62l-3.4-2a2,2,0,0,1-1.18-1.64,1.58,1.58,0,0,1,.89-1.34l4-2.3a4.83,4.83,0,0,1,4.4.17l3.41,2a2,2,0,0,1,1.17,1.64,1.57,1.57,0,0,1-.88,1.34l-4,2.29A3.87,3.87,0,0,1,336.32,195.16Zm-.24-7.56a3.09,3.09,0,0,0-1.55.35l-4,2.3a.86.86,0,0,0-.51.68c0,.33.3.7.8,1l3.41,2a4.11,4.11,0,0,0,3.65.17l4-2.3a.86.86,0,0,0,.51-.68c0-.33-.3-.7-.8-1l-3.4-2A4.35,4.35,0,0,0,336.08,187.6Z"/><path class="cls-5" d="M348.71,216.76a4.94,4.94,0,0,1-2.46-.62l-3.4-2a2,2,0,0,1-1.18-1.64,1.56,1.56,0,0,1,.89-1.34l4-2.3a4.8,4.8,0,0,1,4.4.17l3.41,2a2,2,0,0,1,1.17,1.64,1.55,1.55,0,0,1-.88,1.34l-4,2.3A4,4,0,0,1,348.71,216.76Zm-.24-7.56a3.2,3.2,0,0,0-1.55.35l-4,2.3a.87.87,0,0,0-.5.69c0,.33.29.7.79,1l3.41,2a4.14,4.14,0,0,0,3.65.17l4-2.3a.88.88,0,0,0,.51-.69c0-.33-.3-.7-.8-1l-3.4-2A4.36,4.36,0,0,0,348.47,209.2Z"/><path class="cls-5" d="M323.81,202.38a4.88,4.88,0,0,1-2.47-.62l-3.4-2a2,2,0,0,1-1.17-1.64,1.55,1.55,0,0,1,.88-1.34l4-2.3a4.82,4.82,0,0,1,4.41.17l3.4,2a2,2,0,0,1,1.18,1.64,1.56,1.56,0,0,1-.89,1.34l-4,2.3A4,4,0,0,1,323.81,202.38Zm-.25-7.56a3.25,3.25,0,0,0-1.55.35l-4,2.3a.88.88,0,0,0-.51.69c0,.33.3.7.8,1l3.4,2a4.14,4.14,0,0,0,3.65.17l4-2.3a.86.86,0,0,0,.51-.69c0-.33-.3-.7-.8-1l-3.4-2A4.36,4.36,0,0,0,323.56,194.82Z"/><path class="cls-5" d="M428.69,252.26a5,5,0,0,1-2.46-.62l-26-15a2,2,0,0,1-1.18-1.64,1.58,1.58,0,0,1,.89-1.34l6.07-3.5a4.83,4.83,0,0,1,4.41.17l26,15a2,2,0,0,1,1.18,1.64,1.56,1.56,0,0,1-.89,1.34l-6.07,3.5A3.89,3.89,0,0,1,428.69,252.26ZM408,230.45a3.2,3.2,0,0,0-1.55.35l-6.07,3.51a.84.84,0,0,0-.51.68c0,.33.3.7.8,1l26,15a4.11,4.11,0,0,0,3.65.17l6.07-3.5a.86.86,0,0,0,.51-.69c0-.33-.3-.7-.8-1l-26-15A4.36,4.36,0,0,0,408,230.45Z"/><path class="cls-5" d="M497.05,246.55a5,5,0,0,1-2.46-.62l-12.91-7.46a2,2,0,0,1-1.18-1.64,1.56,1.56,0,0,1,.89-1.34l4-2.3a4.83,4.83,0,0,1,4.4.17l12.92,7.46a2,2,0,0,1,1.17,1.64,1.55,1.55,0,0,1-.88,1.33l-4,2.3A3.87,3.87,0,0,1,497.05,246.55ZM487.3,233.5a3.09,3.09,0,0,0-1.55.35l-4,2.29a.88.88,0,0,0-.5.69c0,.33.29.7.79,1L495,245.27a4.11,4.11,0,0,0,3.65.17l4-2.3a.86.86,0,0,0,.51-.68c0-.33-.3-.7-.8-1L489.4,234A4.35,4.35,0,0,0,487.3,233.5Z"/><path class="cls-5" d="M383,301.32a4.49,4.49,0,0,1-2.19-.53l-71.38-41.21a1.59,1.59,0,0,1,0-3l127.38-73.55a4.81,4.81,0,0,1,4.4,0l28.83,16.64a1.6,1.6,0,0,1,0,3l-25.7,14.83a4.75,4.75,0,0,1-4.4,0l-13.15-7.59a4.09,4.09,0,0,0-3.64,0L380,234.85a1.09,1.09,0,0,0-.64.84,1.06,1.06,0,0,0,.64.83l69.46,40.11a4.14,4.14,0,0,0,3.65,0L526,234.54a.86.86,0,0,0,0-1.67l-36.25-20.93a4.09,4.09,0,0,0-3.64,0l-42,24.26a.86.86,0,0,0,0,1.67l18.39,10.61-.38.66-18.39-10.62a1.59,1.59,0,0,1,0-3l42-24.26a4.81,4.81,0,0,1,4.4,0l36.24,20.93a1.59,1.59,0,0,1,0,3l-72.9,42.09a4.79,4.79,0,0,1-4.39,0l-69.47-40.11a1.59,1.59,0,0,1,0-3l43.19-24.93a4.79,4.79,0,0,1,4.39,0l13.15,7.59a4.09,4.09,0,0,0,3.64,0L469.7,202a.85.85,0,0,0,0-1.66l-28.83-16.65a4.09,4.09,0,0,0-3.64,0L309.84,257.26a.86.86,0,0,0,0,1.66l71.38,41.22a4.12,4.12,0,0,0,3.64,0l17.81-10.28.37.65-17.8,10.28A4.56,4.56,0,0,1,383,301.32Z"/><path class="cls-5" d="M393.4,280.11l-.57-.33-43.21-24.94a1.6,1.6,0,0,1,0-3l5.89-3.39a4.75,4.75,0,0,1,4.4,0l41.58,24a1.59,1.59,0,0,1,0,3Zm-35.69-31.42a3.68,3.68,0,0,0-1.82.43l-5.89,3.4a.86.86,0,0,0,0,1.66l43.4,25.06,7.71-4.45a.86.86,0,0,0,0-1.67l-41.58-24A3.68,3.68,0,0,0,357.71,248.69Z"/><path class="cls-5" d="M470.66,318.26a4.56,4.56,0,0,1-2.2-.53L412,285.13l.38-.66,56.47,32.61a4.09,4.09,0,0,0,3.64,0l98.25-56.73a.86.86,0,0,0,0-1.67L559.21,252a4.09,4.09,0,0,0-3.64,0l-15.41,8.9a.86.86,0,0,0,0,1.66l5.5,3.18a1.59,1.59,0,0,1,0,3l-69.6,40.19a4.79,4.79,0,0,1-4.39,0l-4.73-2.73a1.59,1.59,0,0,1,0-3l62-35.81a.86.86,0,0,0,0-1.67l-12.3-7.1a1.59,1.59,0,0,1,0-3l25-14.43.38.65-25,14.43c-.41.24-.65.54-.65.83a1.09,1.09,0,0,0,.65.84l12.29,7.1a1.59,1.59,0,0,1,0,3l-62,35.81a.86.86,0,0,0,0,1.67l4.72,2.72a4.09,4.09,0,0,0,3.64,0l69.6-40.18c.41-.24.65-.54.65-.83a1.09,1.09,0,0,0-.65-.84l-5.5-3.17a1.79,1.79,0,0,1-1-1.49,1.77,1.77,0,0,1,1-1.49l15.41-8.89a4.81,4.81,0,0,1,4.4,0L571.11,258a1.59,1.59,0,0,1,0,3l-98.26,56.73A4.49,4.49,0,0,1,470.66,318.26Z"/><path class="cls-5" d="M463.32,297.92a5,5,0,0,1-2.46-.62L450,291a2,2,0,0,1-1.18-1.64,1.58,1.58,0,0,1,.89-1.34l48.9-28.23A4.86,4.86,0,0,1,503,260l10.85,6.27a2,2,0,0,1,1.18,1.64,1.58,1.58,0,0,1-.89,1.34l-48.9,28.23A4,4,0,0,1,463.32,297.92Zm37.22-37.79a3.12,3.12,0,0,0-1.55.35l-48.9,28.23a.86.86,0,0,0-.51.68c0,.33.3.7.8,1l10.85,6.27a4.14,4.14,0,0,0,3.65.17l48.9-28.24a.84.84,0,0,0,.51-.68c0-.33-.3-.7-.79-1l-10.86-6.27A4.35,4.35,0,0,0,500.54,260.13Z"/><path class="cls-5" d="M440.49,334.49a4.45,4.45,0,0,1-2.2-.54l-47.65-27.51.37-.65,47.66,27.51a4.09,4.09,0,0,0,3.64,0l19.19-11.08c.41-.24.65-.54.65-.83a1.09,1.09,0,0,0-.65-.84L417.22,295a4.09,4.09,0,0,0-3.64,0L406,299.37a.86.86,0,0,0,0,1.66l31,17.91-.38.65-31-17.9a1.6,1.6,0,0,1,0-3l7.59-4.38a4.79,4.79,0,0,1,4.39,0l44.29,25.57a1.59,1.59,0,0,1,0,3L442.69,334A4.45,4.45,0,0,1,440.49,334.49Z"/><path class="cls-5" d="M487.48,226.64A5,5,0,0,1,485,226l-3.41-2a2,2,0,0,1-1.17-1.64,1.54,1.54,0,0,1,.89-1.33l4-2.3a4.8,4.8,0,0,1,4.4.16l3.41,2a2,2,0,0,1,1.17,1.64,1.56,1.56,0,0,1-.89,1.34l-4,2.3A4,4,0,0,1,487.48,226.64Zm-.24-7.56a3.27,3.27,0,0,0-1.56.35l-4,2.3a.86.86,0,0,0-.51.68c0,.33.3.7.8,1l3.4,2a4.16,4.16,0,0,0,3.66.16l4-2.29a.9.9,0,0,0,.51-.69c0-.33-.3-.7-.8-1l-3.4-2A4.39,4.39,0,0,0,487.24,219.08Z"/><path class="cls-5" d="M475,233.83a5.09,5.09,0,0,1-2.47-.62l-3.4-2A2,2,0,0,1,468,229.6a1.55,1.55,0,0,1,.88-1.33l4-2.3a4.82,4.82,0,0,1,4.41.16l3.4,2a2,2,0,0,1,1.18,1.64,1.58,1.58,0,0,1-.89,1.34l-4,2.3A4,4,0,0,1,475,233.83Zm-.24-7.56a3.27,3.27,0,0,0-1.56.35l-4,2.3a.86.86,0,0,0-.51.68c0,.33.3.7.8,1l3.4,2a4.14,4.14,0,0,0,3.65.16l4-2.29a.87.87,0,0,0,.51-.69c0-.33-.3-.7-.8-1l-3.4-2A4.32,4.32,0,0,0,474.79,226.27Z"/><path class="cls-5" d="M462.57,241a5,5,0,0,1-2.46-.62l-3.4-2a2,2,0,0,1-1.18-1.65,1.56,1.56,0,0,1,.89-1.33l4-2.3a4.82,4.82,0,0,1,4.41.16l3.4,2a2,2,0,0,1,1.17,1.64,1.57,1.57,0,0,1-.88,1.34l-4,2.3A4,4,0,0,1,462.57,241Zm-.24-7.56a3.2,3.2,0,0,0-1.55.35l-4,2.3a.85.85,0,0,0-.5.68c0,.33.29.7.79,1l3.41,2a4.14,4.14,0,0,0,3.65.16l4-2.29a.9.9,0,0,0,.51-.69c0-.33-.3-.7-.8-1l-3.4-2A4.36,4.36,0,0,0,462.33,233.46Z"/><path class="cls-5" d="M500,233.87a5.09,5.09,0,0,1-2.47-.62l-3.4-2a2,2,0,0,1-1.18-1.64,1.58,1.58,0,0,1,.89-1.34l4-2.3a4.86,4.86,0,0,1,4.41.17l3.4,2a2,2,0,0,1,1.18,1.65,1.56,1.56,0,0,1-.89,1.33l-4,2.3A3.89,3.89,0,0,1,500,233.87Zm-.24-7.56a3.16,3.16,0,0,0-1.56.35l-4,2.29a.87.87,0,0,0-.51.69c0,.33.3.7.8,1l3.4,2a4.14,4.14,0,0,0,3.65.17l4-2.3a.86.86,0,0,0,.51-.68c0-.33-.3-.7-.8-1l-3.4-2A4.34,4.34,0,0,0,499.76,226.31Z"/><path class="cls-5" d="M475.09,248.25a5,5,0,0,1-2.46-.62l-3.41-2a2,2,0,0,1-1.17-1.64,1.57,1.57,0,0,1,.88-1.34l4-2.3a4.83,4.83,0,0,1,4.4.17l3.4,2a2,2,0,0,1,1.18,1.64,1.56,1.56,0,0,1-.89,1.33l-4,2.3A3.89,3.89,0,0,1,475.09,248.25Zm-.24-7.56a3.16,3.16,0,0,0-1.56.35l-4,2.29a.9.9,0,0,0-.51.69c0,.33.3.7.8,1l3.4,2a4.14,4.14,0,0,0,3.65.17l4-2.3a.85.85,0,0,0,.5-.68c0-.33-.29-.7-.79-1l-3.41-2A4.31,4.31,0,0,0,474.85,240.69Z"/></g><ellipse class="cls-6" cx="458.86" cy="268.36" rx="93.78" ry="54.15"/><ellipse class="cls-7" cx="420.26" cy="345.33" rx="43.98" ry="25.39"/><ellipse class="cls-8" cx="381.83" cy="344.31" rx="43.98" ry="25.39"/><ellipse class="cls-9" cx="318.8" cy="230.3" rx="93.78" ry="54.15"/><path class="cls-10" d="M304.61,272a10,10,0,0,1-4.91-1.17l-49.15-28.38a3.27,3.27,0,0,1,0-6.14l75.35-43.5a2.48,2.48,0,0,0,0-4.74l-19.58-11.3.41-.7,19.57,11.3a3.27,3.27,0,0,1,0,6.14L251,237a2.48,2.48,0,0,0,0,4.74l49.15,28.38a10,10,0,0,0,9,0L328.42,259l.4.69-19.3,11.15A10,10,0,0,1,304.61,272Z"/><path class="cls-10" d="M414.45,336.86l-.4-.69,65.53-37.84a3,3,0,0,0,0-5.69l-27.36-15.8.4-.7L480,291.94a3.76,3.76,0,0,1,0,7.09Z"/><path class="cls-10" d="M518.17,275.15a11.11,11.11,0,0,1-5.42-1.3l-27.68-16,.4-.69,27.68,16a11.1,11.1,0,0,0,10,0l34.52-19.92a2.79,2.79,0,0,0,0-5.33L437,178.23a3.57,3.57,0,0,1,0-6.73l19.46-11.23.4.69L437.44,172.2a2.79,2.79,0,0,0,0,5.33L558.11,247.2a3.57,3.57,0,0,1,0,6.72l-34.52,19.93A11.09,11.09,0,0,1,518.17,275.15Z"/><path class="cls-10" d="M405,301.92a11.6,11.6,0,0,1-5.72-1.32l-86.41-49.89a4.17,4.17,0,0,1-2.4-3.53c0-1.65,1.2-3.29,3.31-4.5l84.58-48.84c3.87-2.23,9.75-2.47,13.12-.52l86.41,49.89a4.17,4.17,0,0,1,2.4,3.53c0,1.65-1.21,3.29-3.31,4.5l-84.59,48.84A15.17,15.17,0,0,1,405,301.92Zm-5.32-2c3.14,1.81,8.66,1.57,12.31-.53l84.58-48.83c1.85-1.07,2.92-2.46,2.92-3.81a3.44,3.44,0,0,0-2-2.84L411.05,194c-3.14-1.81-8.66-1.57-12.31.53l-84.58,48.83c-1.85,1.07-2.91,2.46-2.91,3.81a3.42,3.42,0,0,0,2,2.84Z"/><path class="cls-11" d="M249.58,268.05a6.24,6.24,0,0,1-3.11-.82L188,233.82a1.48,1.48,0,0,1,0-2.55l22.12-13.33.31.53L188.3,231.8a.88.88,0,0,0-.42.75.86.86,0,0,0,.44.73l58.46,33.42a5.68,5.68,0,0,0,5.63,0L273,254.76l.31.53-20.54,11.92A6.29,6.29,0,0,1,249.58,268.05Z"/><g class="cls-4"><path class="cls-10" d="M304.61,273.63a11.62,11.62,0,0,1-5.72-1.39l-49.15-28.38a4.84,4.84,0,0,1,0-8.92l75.35-43.51c.75-.43,1-.82,1-1s-.2-.54-1-1l-19.57-11.31a2,2,0,0,1,2-3.49L327.11,186a4.84,4.84,0,0,1,0,8.92l-75.35,43.51c-.75.43-.95.82-.95,1s.2.54.95,1l49.15,28.38a8.43,8.43,0,0,0,7.4,0l19.3-11.14a2,2,0,0,1,2,3.49l-19.3,11.14A11.62,11.62,0,0,1,304.61,273.63Z"/><path class="cls-10" d="M414.25,338.53a2,2,0,0,1-1-3.76l65.53-37.83c.8-.46,1.29-1,1.29-1.45s-.49-1-1.29-1.46l-27.36-15.79a2,2,0,1,1,2-3.49l27.36,15.79a5.36,5.36,0,0,1,0,9.89l-65.53,37.83A2.07,2.07,0,0,1,414.25,338.53Z"/><path class="cls-10" d="M518.17,276.76a12.68,12.68,0,0,1-6.23-1.51l-27.67-16a2,2,0,0,1,2-3.49l27.68,16a9.67,9.67,0,0,0,8.43,0l34.51-19.93c.85-.49,1.15-1,1.15-1.27s-.3-.77-1.15-1.27L436.23,179.63a5.16,5.16,0,0,1,0-9.52l19.46-11.24a2,2,0,1,1,2,3.49L438.24,173.6c-.85.49-1.15,1-1.15,1.27s.3.77,1.16,1.27L558.91,245.8a5.16,5.16,0,0,1,0,9.52L524.4,275.25A12.68,12.68,0,0,1,518.17,276.76Z"/><path class="cls-10" d="M405,303.54a13.31,13.31,0,0,1-6.54-1.54L312,252.11a5.72,5.72,0,0,1-3.21-4.93c0-2.24,1.5-4.39,4.12-5.9l84.59-48.83c4.38-2.53,10.85-2.77,14.72-.53l86.42,49.89a5.72,5.72,0,0,1,3.2,4.93c0,2.24-1.5,4.39-4.12,5.9l-84.58,48.83A16.72,16.72,0,0,1,405,303.54Zm-4.52-5c2.65,1.53,7.55,1.29,10.69-.53l84.59-48.83c1.55-.9,2.1-1.86,2.1-2.41s-.74-1.18-1.19-1.44l-86.41-49.89c-2.65-1.53-7.55-1.29-10.7.53L315,244.77c-1.56.9-2.11,1.86-2.11,2.41s.75,1.18,1.19,1.44Z"/></g><path class="cls-12" d="M319.26,264.76a1.8,1.8,0,1,1,2.47.67A1.82,1.82,0,0,1,319.26,264.76Z"/><path class="cls-12" d="M309.91,270.16a1.8,1.8,0,1,1,2.46.67A1.8,1.8,0,0,1,309.91,270.16Z"/><path class="cls-12" d="M299.61,270.33a2.14,2.14,0,0,1,1.07-.87,1.57,1.57,0,0,1,1.14-.09A2,2,0,0,1,303,271.5a1.71,1.71,0,0,1-2.34,1.31,1.92,1.92,0,0,1-1.19-1.1A1.61,1.61,0,0,1,299.61,270.33Z"/><path class="cls-12" d="M290.26,264.93a1.8,1.8,0,1,1,.65,2.47A1.8,1.8,0,0,1,290.26,264.93Z"/><path class="cls-12" d="M280.9,259.53a1.8,1.8,0,1,1,3.12,1.8,1.8,1.8,0,1,1-3.12-1.8Z"/><path class="cls-12" d="M271.54,254.13a1.8,1.8,0,1,1,.66,2.47A1.81,1.81,0,0,1,271.54,254.13Z"/><path class="cls-12" d="M262.19,248.72a1.8,1.8,0,1,1,.65,2.47A1.81,1.81,0,0,1,262.19,248.72Z"/><path class="cls-12" d="M252.83,243.32a1.8,1.8,0,1,1,3.12,1.8,1.8,1.8,0,1,1-3.12-1.8Z"/><path class="cls-12" d="M252,236a1.8,1.8,0,0,1-.11,2,3.23,3.23,0,0,1-.23.26,1.54,1.54,0,0,1-.19.17,1.39,1.39,0,0,1-1,.15,3.7,3.7,0,0,1-1.29-.39,1.28,1.28,0,0,1-.68-1.24,2,2,0,0,1,.92-1.53,2.82,2.82,0,0,1,.42-.22,1.19,1.19,0,0,1,.36-.09,1.79,1.79,0,0,1,1.78.9Z"/><path class="cls-12" d="M261.31,230.59a1.8,1.8,0,1,1-2.47-.67A1.81,1.81,0,0,1,261.31,230.59Z"/><path class="cls-12" d="M270.66,225.18a1.8,1.8,0,1,1-2.46-.67A1.8,1.8,0,0,1,270.66,225.18Z"/><path class="cls-12" d="M280,219.78a1.8,1.8,0,1,1-2.47-.67A1.82,1.82,0,0,1,280,219.78Z"/><path class="cls-12" d="M289.37,214.38a1.8,1.8,0,1,1-2.46-.67A1.8,1.8,0,0,1,289.37,214.38Z"/><path class="cls-12" d="M298.73,209a1.8,1.8,0,1,1-2.47-.67A1.81,1.81,0,0,1,298.73,209Z"/><path class="cls-12" d="M308.09,203.58a1.8,1.8,0,1,1-2.47-.67A1.81,1.81,0,0,1,308.09,203.58Z"/><path class="cls-12" d="M317.44,198.18a1.8,1.8,0,1,1-2.47-.67A1.81,1.81,0,0,1,317.44,198.18Z"/><path class="cls-12" d="M326.76,192.73a1.44,1.44,0,0,1,.27,1.38,2,2,0,0,1-.17.36,1.49,1.49,0,0,1-.18.3,1.79,1.79,0,0,1-.54.48,1.81,1.81,0,0,1-1.81-3.14A1.88,1.88,0,0,1,326.76,192.73Z"/><path class="cls-12" d="M322.12,185.44a1.8,1.8,0,1,1,.65,2.47A1.8,1.8,0,0,1,322.12,185.44Z"/><path class="cls-12" d="M312.76,180a1.8,1.8,0,1,1,.65,2.47A1.81,1.81,0,0,1,312.76,180Z"/><path class="cls-12" d="M494.79,263a1.83,1.83,0,1,1-.68-2.49A1.82,1.82,0,0,1,494.79,263Z"/><path class="cls-12" d="M504.3,268.51a1.83,1.83,0,1,1-.68-2.49A1.81,1.81,0,0,1,504.3,268.51Z"/><path class="cls-12" d="M513.85,273.94a1.53,1.53,0,0,1-1.06.92,2,2,0,0,1-.78,0,2,2,0,0,1-.69-.23,1.81,1.81,0,1,1,1.82-3.14,1.67,1.67,0,0,1,.54.48,1.27,1.27,0,0,1,.25.57A2.17,2.17,0,0,1,513.85,273.94Z"/><path class="cls-12" d="M524.37,272.94a1.75,1.75,0,0,1,.18,1.37,1.69,1.69,0,0,1-.31.63,2.28,2.28,0,0,1-.71.53,1.72,1.72,0,0,1-2.49-1.06,2,2,0,0,1,1-2.24,1.34,1.34,0,0,1,.56-.12,1.83,1.83,0,0,1,.7,0A1.79,1.79,0,0,1,524.37,272.94Z"/><path class="cls-12" d="M533.89,267.44a1.83,1.83,0,1,1-2.49-.65A1.82,1.82,0,0,1,533.89,267.44Z"/><path class="cls-12" d="M543.4,262a1.83,1.83,0,1,1-2.49-.65A1.82,1.82,0,0,1,543.4,262Z"/><path class="cls-12" d="M552.92,256.46a1.83,1.83,0,1,1-2.49-.66A1.82,1.82,0,0,1,552.92,256.46Z"/><path class="cls-12" d="M559.72,249.28a1.27,1.27,0,0,1,1.44.09,2.12,2.12,0,0,1,.64,2,2,2,0,0,1-1.28,1.57,1.35,1.35,0,0,1-1.38-.34,3.19,3.19,0,0,1-.69-1.17,2.16,2.16,0,0,1-.21-.76c0-.14.21-.25.48-.53A4.21,4.21,0,0,1,559.72,249.28Z"/><path class="cls-12" d="M550.59,243.33a1.83,1.83,0,1,1,.68,2.48A1.82,1.82,0,0,1,550.59,243.33Z"/><path class="cls-12" d="M541.08,237.83a1.83,1.83,0,1,1,.68,2.49A1.81,1.81,0,0,1,541.08,237.83Z"/><path class="cls-12" d="M531.56,232.34a1.83,1.83,0,1,1,.68,2.49A1.83,1.83,0,0,1,531.56,232.34Z"/><path class="cls-12" d="M522.05,226.85a1.83,1.83,0,1,1,.68,2.48A1.82,1.82,0,0,1,522.05,226.85Z"/><path class="cls-12" d="M512.53,221.35a1.83,1.83,0,1,1,.68,2.49A1.83,1.83,0,0,1,512.53,221.35Z"/><path class="cls-12" d="M503,215.86a1.83,1.83,0,1,1,.68,2.49A1.82,1.82,0,0,1,503,215.86Z"/><path class="cls-12" d="M493.51,210.37a1.83,1.83,0,1,1,.68,2.48A1.82,1.82,0,0,1,493.51,210.37Z"/><path class="cls-12" d="M484,204.87a1.83,1.83,0,1,1,.68,2.49A1.82,1.82,0,0,1,484,204.87Z"/><path class="cls-12" d="M474.48,199.38a1.83,1.83,0,1,1,.68,2.49A1.81,1.81,0,0,1,474.48,199.38Z"/><path class="cls-12" d="M465,193.89a1.83,1.83,0,0,1,3.17,1.83,1.83,1.83,0,0,1-3.17-1.83Z"/><path class="cls-12" d="M455.45,188.39a1.83,1.83,0,1,1,.68,2.49A1.82,1.82,0,0,1,455.45,188.39Z"/><path class="cls-12" d="M445.93,182.9a1.83,1.83,0,1,1,.68,2.49A1.82,1.82,0,0,1,445.93,182.9Z"/><path class="cls-12" d="M436.46,177.34a2.55,2.55,0,0,1,1.14-.75,1.56,1.56,0,0,1,1.31.16,1.81,1.81,0,1,1-1.81,3.14,2.12,2.12,0,0,1-.92-1.16A1.51,1.51,0,0,1,436.46,177.34Z"/><path class="cls-12" d="M440.84,169.77a1.83,1.83,0,1,1-2.49-.66A1.82,1.82,0,0,1,440.84,169.77Z"/><path class="cls-12" d="M450.36,164.28a1.83,1.83,0,1,1-2.49-.66A1.81,1.81,0,0,1,450.36,164.28Z"/><path class="cls-12" d="M461.8,281.91a1.81,1.81,0,1,1-.66-2.48A1.81,1.81,0,0,1,461.8,281.91Z"/><path class="cls-12" d="M471.17,287.32a1.8,1.8,0,1,1-.65-2.47A1.8,1.8,0,0,1,471.17,287.32Z"/><path class="cls-12" d="M480.52,292.79a2.52,2.52,0,0,1-1.13.77,1.56,1.56,0,0,1-1.31-.16,1.81,1.81,0,0,1,1.81-3.14,2,2,0,0,1,.89,1.15A1.49,1.49,0,0,1,480.52,292.79Z"/><path class="cls-12" d="M476.77,300.42a1.8,1.8,0,1,1,2.47.67A1.81,1.81,0,0,1,476.77,300.42Z"/><path class="cls-12" d="M467.39,305.84a1.8,1.8,0,1,1,2.47.66A1.81,1.81,0,0,1,467.39,305.84Z"/><path class="cls-12" d="M458,311.25a1.81,1.81,0,1,1,2.47.67A1.8,1.8,0,0,1,458,311.25Z"/><path class="cls-12" d="M448.63,316.67a1.81,1.81,0,1,1,3.13-1.81,1.81,1.81,0,0,1-3.13,1.81Z"/><path class="cls-12" d="M439.26,322.08a1.8,1.8,0,1,1,2.47.67A1.8,1.8,0,0,1,439.26,322.08Z"/><path class="cls-12" d="M429.88,327.49a1.8,1.8,0,1,1,2.47.67A1.8,1.8,0,0,1,429.88,327.49Z"/><path class="cls-12" d="M420.5,332.91a1.81,1.81,0,1,1,2.47.67A1.81,1.81,0,0,1,420.5,332.91Z"/><path class="cls-13" d="M402.87,235.28l-26.33-15.21c-1.87-1.08-1.64-3,.52-4.21l25.29-14.6a8.11,8.11,0,0,1,7.3-.31L436,216.16c1.87,1.08,1.64,3-.53,4.22L410.18,235A8.13,8.13,0,0,1,402.87,235.28Z"/><path class="cls-14" d="M406,239.5a7.93,7.93,0,0,1-3.89-.9l-31-17.91a2.85,2.85,0,0,1-1.64-2.43,3.85,3.85,0,0,1,2.26-3.08L401.5,198c2.62-1.52,6.63-1.68,8.91-.36l31,17.91a2.88,2.88,0,0,1,1.65,2.43,3.86,3.86,0,0,1-2.26,3.08L411,238.24A10.28,10.28,0,0,1,406,239.5Zm-3.58-1.44c2.11,1.22,5.83,1.06,8.29-.35l29.79-17.2a3.28,3.28,0,0,0,1.95-2.54,2.29,2.29,0,0,0-1.34-1.89l-31-17.91c-2.11-1.22-5.84-1.06-8.29.36L372,215.72a3.29,3.29,0,0,0-1.95,2.54,2.28,2.28,0,0,0,1.33,1.89Z"/><path class="cls-15" d="M437.25,150.41H424.19L409.65,142a8.11,8.11,0,0,0-7.3.3l-14,8.09H375.28V188.2h0a2.11,2.11,0,0,0,1.25,2l26.33,15.2a8.13,8.13,0,0,0,7.31-.3l25.28-14.6a3.07,3.07,0,0,0,1.78-2.26h0Z"/><path class="cls-16" d="M435.46,189.86l-25.28,14.59a8.13,8.13,0,0,1-7.31.31l-26.33-15.21a2.09,2.09,0,0,1-1.25-2h0v.6h0a2.11,2.11,0,0,0,1.25,2l26.33,15.2a8.13,8.13,0,0,0,7.31-.3l25.28-14.6a3.07,3.07,0,0,0,1.78-2.26h0v-.6h0A3.07,3.07,0,0,1,435.46,189.86Z"/><path class="cls-17" d="M376.11,188.81h0V151h13.05l14-8.09a8.13,8.13,0,0,1,7.31-.31L425,151h12.23v-.61H424.19L409.65,142a8.11,8.11,0,0,0-7.3.3l-14,8.09H375.28V188.2h0a2.11,2.11,0,0,0,1.25,2l.15.08A1.82,1.82,0,0,1,376.11,188.81Z"/><path class="cls-10" d="M436.51,151.11v37.75h0a2.28,2.28,0,0,1-.62,1.34,2.84,2.84,0,0,0,1.36-2h0V150.5A4.37,4.37,0,0,0,436.51,151.11Z"/><path class="cls-18" d="M402.87,167.57l-26.33-15.2c-1.87-1.08-1.64-3,.52-4.22l25.29-14.6a8.11,8.11,0,0,1,7.3-.3L436,148.45c1.87,1.09,1.64,3-.53,4.22l-25.28,14.6A8.13,8.13,0,0,1,402.87,167.57Z"/><path class="cls-10" d="M436,148.45l-26.34-15.2a6.76,6.76,0,0,0-3.68-.71,6,6,0,0,1,2.65.71L435,148.45c1.87,1.09,1.64,3-.53,4.22l-25.28,14.6a8.44,8.44,0,0,1-3.62,1,8.62,8.62,0,0,0,4.65-1l25.28-14.6C437.63,151.42,437.86,149.54,436,148.45Z"/><path class="cls-19" d="M403.74,163.19l-19.61-11.32c-1.39-.81-1.21-2.21.39-3.14l18.83-10.87a6,6,0,0,1,5.44-.22L428.39,149c1.4.81,1.22,2.22-.39,3.14L409.18,163A6.06,6.06,0,0,1,403.74,163.19Z"/><path class="cls-20" d="M404.44,159.67l-14.21-8.2c-1-.59-.88-1.6.28-2.28l13.64-7.87a4.37,4.37,0,0,1,3.94-.16l14.21,8.2c1,.58.88,1.6-.29,2.27l-13.63,7.87A4.37,4.37,0,0,1,404.44,159.67Z"/><path class="cls-17" d="M404.06,167.57l-26.34-15.2c-1.87-1.08-1.64-3,.53-4.22l25.28-14.6a8.35,8.35,0,0,1,3.56-1,8.66,8.66,0,0,0-4.74,1l-25.29,14.6c-2.16,1.25-2.39,3.14-.52,4.22l26.33,15.2a6.83,6.83,0,0,0,3.75.71A6,6,0,0,1,404.06,167.57Z"/><g class="cls-21"><path class="cls-22" d="M390.51,150.3l13.64-7.88a4.4,4.4,0,0,1,3.94-.16l14.21,8.21a1.37,1.37,0,0,1,.5.44,1,1,0,0,0-.5-1.55l-14.21-8.21a4.4,4.4,0,0,0-3.94.16l-13.64,7.88c-.91.53-1.18,1.26-.78,1.83A2.12,2.12,0,0,1,390.51,150.3Z"/><path class="cls-23" d="M390.51,151.64l13.64-7.88a4.4,4.4,0,0,1,3.94-.16l14.21,8.2a1.9,1.9,0,0,1,.42.35,1.05,1.05,0,0,0-.42-1.68l-14.21-8.21a4.4,4.4,0,0,0-3.94.16l-13.64,7.88c-1,.56-1.21,1.34-.7,1.93A2.34,2.34,0,0,1,390.51,151.64Z"/><path class="cls-24" d="M390,153.71a3,3,0,0,1,.56-.44l13.64-7.87a4.37,4.37,0,0,1,3.94-.17l14.21,8.21a1.55,1.55,0,0,1,.28.2,1.08,1.08,0,0,0-.28-1.84l-14.21-8.2a4.4,4.4,0,0,0-3.94.16l-13.64,7.88C389.47,152.24,389.26,153.12,390,153.71Z"/></g><path class="cls-20" d="M415.34,195.41l-1.46.85c-.37.21-.68,0-.68-.52V175.35a1.64,1.64,0,0,1,.68-1.3l1.46-.84c.38-.22.68,0,.68.51v20.39A1.61,1.61,0,0,1,415.34,195.41Z"/><path class="cls-22" d="M415.34,173.21l-.35.2v20a1.61,1.61,0,0,1-.68,1.3l-1.11.64v.37c0,.5.31.73.68.52l1.46-.85a1.61,1.61,0,0,0,.68-1.3V173.72C416,173.22,415.72,173,415.34,173.21Z"/><path class="cls-20" d="M420.73,192.31l-1.46.84c-.38.22-.69,0-.69-.51v-20.4a1.63,1.63,0,0,1,.69-1.3l1.46-.84c.37-.22.68,0,.68.51V191A1.65,1.65,0,0,1,420.73,192.31Z"/><path class="cls-20" d="M426.11,189.2l-1.46.84c-.38.22-.68,0-.68-.51v-20.4a1.62,1.62,0,0,1,.68-1.3l1.46-.84c.37-.22.68,0,.68.52V187.9A1.65,1.65,0,0,1,426.11,189.2Z"/><path class="cls-20" d="M431.49,186.09l-1.46.85c-.38.21-.68,0-.68-.52V166a1.61,1.61,0,0,1,.68-1.3l1.46-.84c.37-.22.68,0,.68.51v20.39A1.64,1.64,0,0,1,431.49,186.09Z"/><path class="cls-22" d="M420.73,170.1l-.35.2v20a1.63,1.63,0,0,1-.69,1.3l-1.11.64v.37c0,.5.31.73.69.51l1.46-.84a1.65,1.65,0,0,0,.68-1.3v-20.4C421.41,170.11,421.1,169.88,420.73,170.1Z"/><path class="cls-22" d="M426.11,167l-.35.2v20a1.65,1.65,0,0,1-.68,1.3l-1.11.64v.37c0,.5.3.73.68.51l1.46-.84a1.65,1.65,0,0,0,.68-1.3V167.51C426.79,167,426.48,166.77,426.11,167Z"/><path class="cls-22" d="M431.49,163.89l-.35.2v20a1.64,1.64,0,0,1-.68,1.3l-1.11.64v.37c0,.5.3.73.68.52l1.46-.85a1.64,1.64,0,0,0,.68-1.3V164.4C432.17,163.9,431.86,163.67,431.49,163.89Z"/><path class="cls-25" d="M400.7,197.92a1.11,1.11,0,0,1-.53-.16l-19-11a2.76,2.76,0,0,1-1.18-2.23V163a1.16,1.16,0,0,1,.48-1.05.88.88,0,0,1,.92.05l19,11a2.76,2.76,0,0,1,1.18,2.23v21.58a1.19,1.19,0,0,1-.48,1.06A.87.87,0,0,1,400.7,197.92Zm-19.86-35.66a.35.35,0,0,0-.17,0,.76.76,0,0,0-.25.67v21.58a2.33,2.33,0,0,0,.95,1.84l19,11a.47.47,0,0,0,.47.06.75.75,0,0,0,.26-.67V175.18a2.36,2.36,0,0,0-.95-1.84l-19-11A.67.67,0,0,0,380.84,162.26Z"/><path class="cls-20" d="M383.69,167.2c0,.59-.41.83-.92.53a2,2,0,0,1-.93-1.6c0-.59.41-.83.93-.53A2,2,0,0,1,383.69,167.2Z"/><path class="cls-20" d="M383.69,170.2c0,.59-.41.83-.92.54a2,2,0,0,1-.93-1.61c0-.59.41-.83.93-.53A2,2,0,0,1,383.69,170.2Z"/><path class="cls-20" d="M383.69,173.2c0,.6-.41.83-.92.54a2,2,0,0,1-.93-1.6c0-.59.41-.83.93-.54A2,2,0,0,1,383.69,173.2Z"/><path class="cls-22" d="M383.23,173.37a2,2,0,0,1-.93-1.6.88.88,0,0,1,.05-.29c-.3,0-.51.24-.51.66a2,2,0,0,0,.93,1.6c.41.24.76.12.88-.25A.71.71,0,0,1,383.23,173.37Z"/><path class="cls-22" d="M383.23,170.37a2.06,2.06,0,0,1-.93-1.6.79.79,0,0,1,.05-.29c-.3,0-.51.23-.51.65a2,2,0,0,0,.93,1.6c.41.24.76.13.88-.24A.8.8,0,0,1,383.23,170.37Z"/><path class="cls-22" d="M383.23,167.36a2,2,0,0,1-.93-1.6.88.88,0,0,1,.05-.29c-.3,0-.51.24-.51.66a2,2,0,0,0,.93,1.6c.41.24.76.12.88-.25A.71.71,0,0,1,383.23,167.36Z"/><path class="cls-25" d="M399,187.14l-.61-.35a.82.82,0,0,1-.35-.66v-2.94c0-.26.16-.37.35-.26l.61.35a.83.83,0,0,1,.34.66v2.94C399.33,187.14,399.18,187.25,399,187.14Z"/><path class="cls-26" d="M423,79.28H389.57v71.21h0a1.15,1.15,0,0,0,.68,1l14.19,8.2a4.4,4.4,0,0,0,3.94-.16L422,151.64a1.66,1.66,0,0,0,1-1.22h0Z"/><path class="cls-27" d="M421.39,86.07H391.16v64.45h0a1.07,1.07,0,0,0,.62.89l12.84,7.41a4,4,0,0,0,3.57-.14l12.33-7.12a1.52,1.52,0,0,0,.87-1.11h0Z"/><path class="cls-20" d="M399.6,144.52a1.25,1.25,0,1,1-1.25-1.24A1.25,1.25,0,0,1,399.6,144.52Z"/><circle class="cls-20" cx="407.73" cy="136.18" r="2.12"/><path class="cls-20" d="M405.66,134.83a.55.55,0,0,1-.55.54.54.54,0,0,1-.54-.54.55.55,0,0,1,.54-.55A.55.55,0,0,1,405.66,134.83Z"/><circle class="cls-20" cx="414.39" cy="124.16" r="1.06"/><circle class="cls-20" cx="408.79" cy="115.15" r="0.75"/><path class="cls-20" d="M401,109.39A1.37,1.37,0,1,1,399.6,108,1.36,1.36,0,0,1,401,109.39Z"/><circle class="cls-20" cx="403.59" cy="98.01" r="0.76"/><circle class="cls-20" cx="409.32" cy="103.06" r="0.89"/><path class="cls-20" d="M410.88,101.2a.44.44,0,1,1-.43-.44A.44.44,0,0,1,410.88,101.2Z"/><path class="cls-20" d="M416.49,91.91a1.25,1.25,0,1,1-1.25-1.25A1.25,1.25,0,0,1,416.49,91.91Z"/><path class="cls-28" d="M357.21,263.64l-26.33-15.2c-1.87-1.09-1.64-3,.52-4.22l25.29-14.6a8.11,8.11,0,0,1,7.3-.3l26.34,15.2c1.87,1.08,1.64,3-.53,4.22l-25.28,14.6A8.16,8.16,0,0,1,357.21,263.64Z"/><path class="cls-29" d="M360.35,267.86a7.93,7.93,0,0,1-3.89-.9l-31-17.91a2.85,2.85,0,0,1-1.64-2.42,3.84,3.84,0,0,1,2.26-3.08l29.79-17.2c2.62-1.52,6.62-1.68,8.91-.36l31,17.91a2.88,2.88,0,0,1,1.64,2.43,3.84,3.84,0,0,1-2.26,3.08l-29.79,17.2A10.38,10.38,0,0,1,360.35,267.86Zm-3.58-1.44c2.11,1.23,5.83,1.07,8.29-.35l29.79-17.2a3.26,3.26,0,0,0,1.95-2.54,2.29,2.29,0,0,0-1.34-1.89l-31-17.91c-2.11-1.22-5.83-1.06-8.29.36l-29.79,17.19a3.29,3.29,0,0,0-1.95,2.55,2.27,2.27,0,0,0,1.34,1.88Z"/><path class="cls-30" d="M391.59,178.77H378.53L364,170.38a8.11,8.11,0,0,0-7.3.3l-14,8.09H329.62v37.79h0a2.11,2.11,0,0,0,1.25,2l26.33,15.2a8.09,8.09,0,0,0,7.31-.3l25.28-14.6a3.07,3.07,0,0,0,1.78-2.26h0Z"/><path class="cls-31" d="M389.8,218.22l-25.28,14.6a8.13,8.13,0,0,1-7.31.3l-26.33-15.2a2.11,2.11,0,0,1-1.25-2h0v.6h0a2.11,2.11,0,0,0,1.25,2l26.33,15.2a8.09,8.09,0,0,0,7.31-.3l25.28-14.6a3.07,3.07,0,0,0,1.78-2.26h0V216h0A3.07,3.07,0,0,1,389.8,218.22Z"/><path class="cls-17" d="M330.45,217.17h0V179.38H343.5l14-8.09a8.13,8.13,0,0,1,7.31-.31l14.54,8.4h12.23v-.61H378.53L364,170.38a8.11,8.11,0,0,0-7.3.3l-14,8.09H329.62v37.79h0a2.11,2.11,0,0,0,1.25,2l.15.09A1.85,1.85,0,0,1,330.45,217.17Z"/><path class="cls-10" d="M390.85,179.48v37.74h0a2.28,2.28,0,0,1-.62,1.34,2.84,2.84,0,0,0,1.36-2h0v-37.7A4,4,0,0,0,390.85,179.48Z"/><path class="cls-32" d="M357.21,195.94l-26.33-15.21c-1.87-1.08-1.64-3,.52-4.22l25.29-14.59a8.11,8.11,0,0,1,7.3-.31l26.34,15.21c1.87,1.08,1.64,3-.53,4.21l-25.28,14.6A8.13,8.13,0,0,1,357.21,195.94Z"/><path class="cls-10" d="M390.33,176.82,364,161.61a6.76,6.76,0,0,0-3.68-.71,6,6,0,0,1,2.65.71l26.34,15.21c1.87,1.08,1.64,3-.53,4.21l-25.28,14.6a8.44,8.44,0,0,1-3.62,1,8.62,8.62,0,0,0,4.65-1L389.8,181C392,179.79,392.2,177.9,390.33,176.82Z"/><path class="cls-33" d="M358.08,191.55l-19.61-11.32c-1.39-.8-1.21-2.21.4-3.14l18.82-10.87a6,6,0,0,1,5.44-.22l19.6,11.32c1.4.8,1.22,2.21-.39,3.14l-18.82,10.86A6,6,0,0,1,358.08,191.55Z"/><path class="cls-20" d="M358.78,188l-14.21-8.2c-1-.58-.88-1.6.28-2.28l13.64-7.87a4.37,4.37,0,0,1,3.94-.16l14.21,8.2c1,.58.88,1.6-.29,2.27l-13.63,7.88A4.4,4.4,0,0,1,358.78,188Z"/><path class="cls-17" d="M358.4,195.94l-26.34-15.21c-1.87-1.08-1.64-3,.53-4.22l25.28-14.59a8.22,8.22,0,0,1,3.56-1,8.58,8.58,0,0,0-4.74,1L331.4,176.51c-2.16,1.25-2.39,3.14-.52,4.22l26.33,15.21a6.92,6.92,0,0,0,3.75.7A6.13,6.13,0,0,1,358.4,195.94Z"/><g class="cls-34"><path class="cls-22" d="M344.85,178.66l13.64-7.87a4.37,4.37,0,0,1,3.94-.17l14.21,8.21a1.46,1.46,0,0,1,.5.44,1.05,1.05,0,0,0-.5-1.55l-14.21-8.21a4.37,4.37,0,0,0-3.94.17l-13.64,7.87c-.91.53-1.18,1.26-.78,1.83A2.29,2.29,0,0,1,344.85,178.66Z"/><path class="cls-23" d="M344.85,180l13.64-7.87a4.37,4.37,0,0,1,3.94-.17l14.21,8.21a1.64,1.64,0,0,1,.42.34,1.05,1.05,0,0,0-.42-1.68l-14.21-8.21a4.37,4.37,0,0,0-3.94.17l-13.64,7.87c-1,.56-1.21,1.35-.7,1.93A2.34,2.34,0,0,1,344.85,180Z"/><path class="cls-24" d="M344.29,182.08a2.32,2.32,0,0,1,.56-.44l13.64-7.88a4.37,4.37,0,0,1,3.94-.17l14.21,8.21a1.55,1.55,0,0,1,.28.2,1.07,1.07,0,0,0-.28-1.83L362.43,172a4.37,4.37,0,0,0-3.94.17L344.85,180C343.81,180.6,343.6,181.48,344.29,182.08Z"/></g><path class="cls-20" d="M369.68,223.78l-1.46.84c-.37.22-.68,0-.68-.52V203.71a1.65,1.65,0,0,1,.68-1.3l1.46-.84c.38-.22.69,0,.69.51v20.4A1.63,1.63,0,0,1,369.68,223.78Z"/><path class="cls-22" d="M369.68,201.57l-.35.2v20a1.63,1.63,0,0,1-.68,1.31l-1.11.64v.36c0,.51.31.74.68.52l1.46-.84a1.63,1.63,0,0,0,.69-1.3v-20.4C370.37,201.58,370.06,201.35,369.68,201.57Z"/><path class="cls-20" d="M375.07,220.67l-1.46.84c-.38.22-.68,0-.68-.51V200.6a1.62,1.62,0,0,1,.68-1.3l1.46-.84c.37-.22.68,0,.68.52v20.39A1.65,1.65,0,0,1,375.07,220.67Z"/><path class="cls-20" d="M380.45,217.56l-1.46.85c-.38.21-.68,0-.68-.52V197.5a1.61,1.61,0,0,1,.68-1.3l1.46-.85c.37-.21.68,0,.68.52v20.39A1.64,1.64,0,0,1,380.45,217.56Z"/><path class="cls-20" d="M385.83,214.46l-1.46.84c-.38.22-.68,0-.68-.52V194.39a1.62,1.62,0,0,1,.68-1.3l1.46-.84c.37-.22.68,0,.68.51v20.4A1.65,1.65,0,0,1,385.83,214.46Z"/><path class="cls-22" d="M375.07,198.46l-.35.2v20A1.65,1.65,0,0,1,374,220l-1.11.64V221c0,.5.3.73.68.51l1.46-.84a1.65,1.65,0,0,0,.68-1.3V199C375.75,198.47,375.44,198.24,375.07,198.46Z"/><path class="cls-22" d="M380.45,195.35l-.35.21v20a1.64,1.64,0,0,1-.68,1.3l-1.11.64v.37c0,.5.3.73.68.52l1.46-.85a1.64,1.64,0,0,0,.68-1.3V195.87C381.13,195.37,380.82,195.14,380.45,195.35Z"/><path class="cls-22" d="M385.83,192.25l-.35.2v20a1.66,1.66,0,0,1-.68,1.31l-1.11.64v.36c0,.51.3.74.68.52l1.46-.84a1.65,1.65,0,0,0,.68-1.3v-20.4C386.51,192.26,386.2,192,385.83,192.25Z"/><path class="cls-25" d="M355,226.28a1,1,0,0,1-.53-.16l-19-11a2.76,2.76,0,0,1-1.18-2.23V191.33a1.16,1.16,0,0,1,.48-1.05.93.93,0,0,1,.92.05l19,11a2.78,2.78,0,0,1,1.18,2.23v21.58a1.18,1.18,0,0,1-.48,1.06A.76.76,0,0,1,355,226.28Zm-.31-.55a.47.47,0,0,0,.47.06.75.75,0,0,0,.26-.67V203.54a2.36,2.36,0,0,0-.95-1.84l-19-11a.49.49,0,0,0-.47-.05.72.72,0,0,0-.26.66v21.58a2.34,2.34,0,0,0,.95,1.84Z"/><path class="cls-20" d="M338,195.56c0,.59-.41.83-.92.54a2,2,0,0,1-.93-1.61c0-.59.41-.83.93-.53A2,2,0,0,1,338,195.56Z"/><path class="cls-20" d="M338,198.56c0,.59-.41.83-.92.54a2,2,0,0,1-.93-1.6c0-.6.41-.83.93-.54A2,2,0,0,1,338,198.56Z"/><path class="cls-20" d="M338,201.57c0,.59-.41.83-.92.53a2,2,0,0,1-.93-1.6c0-.59.41-.83.93-.54A2.06,2.06,0,0,1,338,201.57Z"/><path class="cls-22" d="M337.57,201.74a2.07,2.07,0,0,1-.93-1.61.88.88,0,0,1,.05-.29c-.3,0-.51.24-.51.66a2,2,0,0,0,.93,1.6c.41.24.76.12.88-.24A.9.9,0,0,1,337.57,201.74Z"/><path class="cls-22" d="M337.57,198.73a2,2,0,0,1-.93-1.6.84.84,0,0,1,.05-.29c-.3,0-.51.24-.51.65a2,2,0,0,0,.93,1.61c.41.24.76.12.88-.25A.8.8,0,0,1,337.57,198.73Z"/><path class="cls-22" d="M337.57,195.73a2.07,2.07,0,0,1-.93-1.61.88.88,0,0,1,.05-.29c-.3,0-.51.24-.51.66a2,2,0,0,0,.93,1.6c.41.24.76.12.88-.24A.9.9,0,0,1,337.57,195.73Z"/><path class="cls-25" d="M353.33,215.51l-.61-.36a.82.82,0,0,1-.35-.66v-2.94c0-.25.16-.37.35-.26l.61.35a.83.83,0,0,1,.34.66v2.95C353.67,215.5,353.52,215.62,353.33,215.51Z"/><path class="cls-35" d="M377.32,107.64H343.91v71.21h0a1.17,1.17,0,0,0,.68,1L358.79,188a4.4,4.4,0,0,0,3.94-.16L376.36,180a1.66,1.66,0,0,0,.95-1.22h0Z"/><path class="cls-36" d="M375.73,114.43H345.5v64.45h0a1.09,1.09,0,0,0,.62.89L359,187.19a4,4,0,0,0,3.57-.15l12.33-7.12a1.53,1.53,0,0,0,.87-1.1h0Z"/><circle class="cls-20" cx="352.69" cy="172.88" r="1.24"/><circle class="cls-20" cx="362.07" cy="164.54" r="2.12"/><circle class="cls-20" cx="359.45" cy="163.19" r="0.55"/><circle class="cls-20" cx="368.73" cy="152.52" r="1.06"/><circle class="cls-20" cx="363.13" cy="143.51" r="0.75"/><circle class="cls-20" cx="353.94" cy="137.76" r="1.36"/><path class="cls-20" d="M358.69,126.37a.76.76,0,1,1-.76-.76A.76.76,0,0,1,358.69,126.37Z"/><path class="cls-20" d="M364.55,131.42a.89.89,0,1,1-.89-.89A.89.89,0,0,1,364.55,131.42Z"/><path class="cls-20" d="M365.22,129.56a.44.44,0,1,1-.43-.43A.43.43,0,0,1,365.22,129.56Z"/><path class="cls-20" d="M370.83,120.27a1.25,1.25,0,1,1-1.25-1.25A1.25,1.25,0,0,1,370.83,120.27Z"/><path class="cls-28" d="M447.73,263.35l-26.34-15.21c-1.87-1.08-1.63-3,.53-4.21l25.28-14.6a8.13,8.13,0,0,1,7.31-.31l26.33,15.21c1.88,1.08,1.64,3-.52,4.22L455,263A8.11,8.11,0,0,1,447.73,263.35Z"/><path class="cls-37" d="M450.86,267.57a7.93,7.93,0,0,1-3.89-.9l-31-17.91a2.87,2.87,0,0,1-1.65-2.43,3.87,3.87,0,0,1,2.27-3.08l29.78-17.19c2.63-1.52,6.63-1.68,8.92-.36l31,17.91a2.87,2.87,0,0,1,1.64,2.43,3.84,3.84,0,0,1-2.26,3.08l-29.78,17.19A10.34,10.34,0,0,1,450.86,267.57Zm-3.58-1.44c2.12,1.23,5.84,1.06,8.3-.35l29.78-17.2a3.28,3.28,0,0,0,1.95-2.54,2.28,2.28,0,0,0-1.33-1.89l-31-17.91c-2.12-1.22-5.84-1.06-8.3.36l-29.78,17.19a3.29,3.29,0,0,0-1.95,2.54,2.27,2.27,0,0,0,1.33,1.89Z"/><path class="cls-38" d="M482.11,178.48H469.05l-14.54-8.39a8.13,8.13,0,0,0-7.31.3l-14,8.09H420.14v37.79h0a2.12,2.12,0,0,0,1.25,2l26.34,15.2a8.11,8.11,0,0,0,7.3-.3l25.29-14.6a3.12,3.12,0,0,0,1.78-2.26h0Z"/><path class="cls-39" d="M480.32,217.93,455,232.53a8.14,8.14,0,0,1-7.3.3l-26.34-15.21a2.11,2.11,0,0,1-1.25-2h0v.6h0a2.12,2.12,0,0,0,1.25,2l26.34,15.2a8.11,8.11,0,0,0,7.3-.3l25.29-14.6a3.12,3.12,0,0,0,1.78-2.26h0v-.6h0A3.12,3.12,0,0,1,480.32,217.93Z"/><path class="cls-17" d="M421,216.88h0V179.09H434L448,171a8.11,8.11,0,0,1,7.3-.31l14.54,8.4h12.24v-.61H469.05l-14.54-8.39a8.13,8.13,0,0,0-7.31.3l-14,8.09H420.14v37.79h0a2.12,2.12,0,0,0,1.25,2l.15.08A1.86,1.86,0,0,1,421,216.88Z"/><path class="cls-10" d="M481.37,179.18v37.75h0a2.36,2.36,0,0,1-.63,1.34,2.82,2.82,0,0,0,1.37-2h0v-37.7A4.37,4.37,0,0,0,481.37,179.18Z"/><path class="cls-40" d="M447.73,195.64l-26.34-15.2c-1.87-1.08-1.63-3,.53-4.22l25.28-14.6a8.16,8.16,0,0,1,7.31-.3l26.33,15.2c1.88,1.09,1.64,3-.52,4.22L455,195.34A8.11,8.11,0,0,1,447.73,195.64Z"/><path class="cls-10" d="M480.84,176.52l-26.33-15.2a6.8,6.8,0,0,0-3.69-.71,6.12,6.12,0,0,1,2.66.71l26.33,15.2c1.87,1.09,1.64,3-.52,4.22L454,195.34a8.44,8.44,0,0,1-3.62,1,8.58,8.58,0,0,0,4.65-1l25.29-14.6C482.48,179.49,482.72,177.61,480.84,176.52Z"/><path class="cls-41" d="M448.59,191.26,429,179.94c-1.4-.81-1.22-2.21.39-3.14l18.82-10.87a6,6,0,0,1,5.44-.22L473.25,177c1.39.81,1.22,2.22-.39,3.14L454,191A6.06,6.06,0,0,1,448.59,191.26Z"/><path class="cls-20" d="M449.29,187.74l-14.2-8.2c-1-.59-.89-1.6.28-2.28L449,169.39a4.37,4.37,0,0,1,3.94-.16l14.2,8.2c1,.58.88,1.6-.28,2.27l-13.64,7.88A4.4,4.4,0,0,1,449.29,187.74Z"/><path class="cls-17" d="M448.91,195.64l-26.33-15.2c-1.88-1.08-1.64-3,.52-4.22l25.28-14.6a8.39,8.39,0,0,1,3.57-1,8.67,8.67,0,0,0-4.75,1l-25.28,14.6c-2.16,1.25-2.4,3.14-.53,4.22l26.34,15.2a6.78,6.78,0,0,0,3.74.71A6,6,0,0,1,448.91,195.64Z"/><g class="cls-42"><path class="cls-22" d="M435.36,178.37,449,170.5a4.37,4.37,0,0,1,3.94-.17l14.21,8.21a1.52,1.52,0,0,1,.49.44,1,1,0,0,0-.49-1.55L453,169.22a4.37,4.37,0,0,0-3.94.17l-13.65,7.87c-.91.53-1.17,1.26-.78,1.83A2.2,2.2,0,0,1,435.36,178.37Z"/><path class="cls-23" d="M435.36,179.71,449,171.83a4.4,4.4,0,0,1,3.94-.16l14.21,8.2a1.63,1.63,0,0,1,.41.35,1.06,1.06,0,0,0-.41-1.68L453,170.33a4.37,4.37,0,0,0-3.94.17l-13.65,7.87c-1,.56-1.2,1.34-.7,1.93A2.63,2.63,0,0,1,435.36,179.71Z"/><path class="cls-24" d="M434.8,181.78a3,3,0,0,1,.56-.44L449,173.47a4.37,4.37,0,0,1,3.94-.17l14.21,8.21a2,2,0,0,1,.28.2,1.08,1.08,0,0,0-.28-1.84L453,171.67a4.4,4.4,0,0,0-3.94.16l-13.65,7.88C434.32,180.31,434.11,181.19,434.8,181.78Z"/></g><path class="cls-20" d="M460.2,223.48l-1.46.85c-.38.21-.68,0-.68-.52V203.42a1.62,1.62,0,0,1,.68-1.3l1.46-.84c.37-.22.68,0,.68.51v20.39A1.64,1.64,0,0,1,460.2,223.48Z"/><path class="cls-22" d="M460.2,201.28l-.35.2v20a1.64,1.64,0,0,1-.68,1.3l-1.11.64v.37c0,.5.3.73.68.52l1.46-.85a1.64,1.64,0,0,0,.68-1.3V201.79C460.88,201.29,460.57,201.06,460.2,201.28Z"/><path class="cls-20" d="M465.58,220.38l-1.46.84c-.38.22-.68,0-.68-.51v-20.4a1.62,1.62,0,0,1,.68-1.3l1.46-.84c.38-.22.68,0,.68.51v20.4A1.62,1.62,0,0,1,465.58,220.38Z"/><path class="cls-20" d="M471,217.27l-1.46.84c-.38.22-.68,0-.68-.51V197.21a1.63,1.63,0,0,1,.68-1.31l1.46-.84c.38-.22.68,0,.68.52V216A1.62,1.62,0,0,1,471,217.27Z"/><path class="cls-20" d="M476.34,214.16l-1.46.85c-.37.21-.68,0-.68-.52V194.1a1.65,1.65,0,0,1,.68-1.3l1.46-.84c.38-.22.68,0,.68.51v20.39A1.61,1.61,0,0,1,476.34,214.16Z"/><path class="cls-22" d="M465.58,198.17l-.35.2v20a1.65,1.65,0,0,1-.68,1.3l-1.11.64v.37c0,.5.3.73.68.51l1.46-.84a1.62,1.62,0,0,0,.68-1.3v-20.4C466.26,198.18,466,198,465.58,198.17Z"/><path class="cls-22" d="M471,195.06l-.35.2v20a1.62,1.62,0,0,1-.68,1.3l-1.11.64v.37c0,.5.3.73.68.51l1.46-.84a1.62,1.62,0,0,0,.68-1.3V195.58C471.64,195.08,471.34,194.84,471,195.06Z"/><path class="cls-22" d="M476.34,192l-.35.2v20a1.61,1.61,0,0,1-.68,1.3l-1.11.64v.37c0,.5.31.73.68.52l1.46-.85a1.61,1.61,0,0,0,.68-1.3V192.47C477,192,476.72,191.74,476.34,192Z"/><path class="cls-25" d="M445.56,226a1.15,1.15,0,0,1-.54-.16l-19-11a2.75,2.75,0,0,1-1.17-2.23V191a1.14,1.14,0,0,1,.48-1,.88.88,0,0,1,.92,0l19,11a2.76,2.76,0,0,1,1.18,2.23v21.58a1.16,1.16,0,0,1-.48,1.06A.86.86,0,0,1,445.56,226Zm-19.87-35.66a.32.32,0,0,0-.16,0,.77.77,0,0,0-.26.67v21.58a2.34,2.34,0,0,0,1,1.84l19,11a.48.48,0,0,0,.48.06.75.75,0,0,0,.25-.67V203.25a2.33,2.33,0,0,0-1-1.84l-19-11A.63.63,0,0,0,425.69,190.33Z"/><path class="cls-20" d="M428.55,195.27c0,.59-.42.83-.93.53a2,2,0,0,1-.93-1.6c0-.59.42-.83.93-.53A2,2,0,0,1,428.55,195.27Z"/><path class="cls-20" d="M428.55,198.27c0,.59-.42.83-.93.54a2.07,2.07,0,0,1-.93-1.61c0-.59.42-.83.93-.53A2,2,0,0,1,428.55,198.27Z"/><path class="cls-20" d="M428.55,201.28c0,.59-.42.82-.93.53a2.06,2.06,0,0,1-.93-1.6c0-.59.42-.83.93-.54A2.06,2.06,0,0,1,428.55,201.28Z"/><path class="cls-22" d="M428.08,201.44a2,2,0,0,1-.92-1.6,1.27,1.27,0,0,1,0-.29c-.3,0-.51.24-.51.66a2.06,2.06,0,0,0,.93,1.6c.42.24.76.12.88-.25A.71.71,0,0,1,428.08,201.44Z"/><path class="cls-22" d="M428.08,198.44a2,2,0,0,1-.92-1.6,1.12,1.12,0,0,1,0-.29c-.3,0-.51.23-.51.65a2,2,0,0,0,.93,1.6c.42.24.76.13.88-.24A.8.8,0,0,1,428.08,198.44Z"/><path class="cls-22" d="M428.08,195.43a2,2,0,0,1-.92-1.6,1.27,1.27,0,0,1,0-.29c-.3,0-.51.24-.51.66a2.06,2.06,0,0,0,.93,1.6c.42.24.76.12.88-.24A.82.82,0,0,1,428.08,195.43Z"/><path class="cls-25" d="M443.84,215.21l-.61-.35a.82.82,0,0,1-.34-.66v-2.94c0-.26.15-.37.34-.26l.61.35a.84.84,0,0,1,.35.66V215C444.19,215.21,444,215.32,443.84,215.21Z"/><path class="cls-43" d="M467.83,107.35h-33.4v71.21h0a1.17,1.17,0,0,0,.68,1l14.19,8.2a4.4,4.4,0,0,0,3.94-.16l13.63-7.87a1.68,1.68,0,0,0,1-1.22h0Z"/><path class="cls-44" d="M466.25,114.14H436v64.45h0a1.06,1.06,0,0,0,.61.89l12.85,7.41a3.94,3.94,0,0,0,3.56-.14l12.33-7.12a1.52,1.52,0,0,0,.87-1.11h0Z"/><path class="cls-20" d="M444.45,172.59a1.25,1.25,0,1,1-1.24-1.24A1.25,1.25,0,0,1,444.45,172.59Z"/><circle class="cls-20" cx="452.58" cy="164.25" r="2.12"/><path class="cls-20" d="M450.51,162.9a.54.54,0,0,1-.54.54.55.55,0,0,1-.55-.54.55.55,0,0,1,.55-.55A.55.55,0,0,1,450.51,162.9Z"/><circle class="cls-20" cx="459.24" cy="152.23" r="1.06"/><circle class="cls-20" cx="453.65" cy="143.22" r="0.75"/><path class="cls-20" d="M445.81,137.47a1.36,1.36,0,1,1-1.36-1.37A1.36,1.36,0,0,1,445.81,137.47Z"/><path class="cls-20" d="M449.2,126.08a.76.76,0,1,1-.76-.76A.76.76,0,0,1,449.2,126.08Z"/><circle class="cls-20" cx="454.17" cy="131.13" r="0.89"/><path class="cls-20" d="M455.73,129.27a.43.43,0,1,1-.43-.44A.43.43,0,0,1,455.73,129.27Z"/><path class="cls-20" d="M461.34,120a1.25,1.25,0,1,1-1.25-1.25A1.25,1.25,0,0,1,461.34,120Z"/><path class="cls-28" d="M402.07,291.71l-26.34-15.2c-1.87-1.09-1.63-3,.53-4.22l25.28-14.6a8.13,8.13,0,0,1,7.31-.3l26.33,15.2c1.88,1.08,1.64,3-.52,4.22l-25.29,14.6A8.11,8.11,0,0,1,402.07,291.71Z"/><path class="cls-45" d="M405.2,295.93a7.93,7.93,0,0,1-3.89-.9l-31-17.91a2.86,2.86,0,0,1-1.65-2.42,3.85,3.85,0,0,1,2.27-3.08l29.78-17.2c2.63-1.52,6.63-1.68,8.92-.36l31,17.91a2.88,2.88,0,0,1,1.64,2.43,3.84,3.84,0,0,1-2.26,3.08l-29.78,17.2A10.45,10.45,0,0,1,405.2,295.93Zm-3.58-1.43c2.12,1.22,5.84,1.06,8.3-.36l29.78-17.2a3.26,3.26,0,0,0,1.95-2.54,2.28,2.28,0,0,0-1.33-1.89l-31-17.91c-2.12-1.22-5.84-1.06-8.3.36l-29.78,17.19a3.29,3.29,0,0,0-2,2.55,2.26,2.26,0,0,0,1.33,1.88Z"/><path class="cls-46" d="M436.45,206.84H423.39l-14.54-8.39a8.13,8.13,0,0,0-7.31.3l-14,8.09h-13v37.79h0a2.12,2.12,0,0,0,1.25,2l26.34,15.2a8.07,8.07,0,0,0,7.3-.3l25.29-14.6a3.1,3.1,0,0,0,1.78-2.26h0Z"/><path class="cls-47" d="M434.66,246.29l-25.29,14.6a8.11,8.11,0,0,1-7.3.3L375.73,246a2.12,2.12,0,0,1-1.25-2h0v.6h0a2.12,2.12,0,0,0,1.25,2l26.34,15.2a8.07,8.07,0,0,0,7.3-.3l25.29-14.6a3.1,3.1,0,0,0,1.78-2.26h0V244h0A3.12,3.12,0,0,1,434.66,246.29Z"/><path class="cls-17" d="M375.3,245.24h0V207.45h13.05l14-8.09a8.11,8.11,0,0,1,7.3-.31l14.54,8.4h12.24v-.61H423.39l-14.54-8.39a8.13,8.13,0,0,0-7.31.3l-14,8.09h-13v37.79h0a2.12,2.12,0,0,0,1.25,2l.15.09A1.89,1.89,0,0,1,375.3,245.24Z"/><path class="cls-10" d="M435.71,207.55v37.74h0a2.36,2.36,0,0,1-.63,1.34,2.82,2.82,0,0,0,1.37-2h0v-37.7A4,4,0,0,0,435.71,207.55Z"/><path class="cls-48" d="M402.07,224,375.73,208.8c-1.87-1.08-1.63-3,.53-4.22L401.54,190a8.13,8.13,0,0,1,7.31-.31l26.33,15.21c1.88,1.08,1.64,3-.52,4.21l-25.29,14.6A8.11,8.11,0,0,1,402.07,224Z"/><path class="cls-10" d="M435.18,204.89l-26.33-15.21a6.8,6.8,0,0,0-3.69-.71,6.12,6.12,0,0,1,2.66.71l26.33,15.21c1.88,1.08,1.64,3-.52,4.21l-25.29,14.6a8.44,8.44,0,0,1-3.61,1,8.57,8.57,0,0,0,4.64-1l25.29-14.6C436.82,207.86,437.06,206,435.18,204.89Z"/><path class="cls-49" d="M402.94,219.62,383.33,208.3c-1.39-.8-1.22-2.21.39-3.14l18.82-10.87a6,6,0,0,1,5.44-.22l19.61,11.32c1.39.8,1.22,2.21-.39,3.14L408.37,219.4A6,6,0,0,1,402.94,219.62Z"/><path class="cls-20" d="M403.63,216.1l-14.2-8.2c-1-.58-.89-1.6.28-2.28l13.64-7.87a4.37,4.37,0,0,1,3.94-.16l14.2,8.2c1,.58.89,1.6-.28,2.27l-13.64,7.88A4.4,4.4,0,0,1,403.63,216.1Z"/><path class="cls-17" d="M403.25,224,376.92,208.8c-1.88-1.08-1.64-3,.52-4.22L402.72,190a8.26,8.26,0,0,1,3.57-1,8.7,8.7,0,0,0-4.75,1l-25.28,14.59c-2.16,1.25-2.4,3.14-.53,4.22L402.07,224a6.87,6.87,0,0,0,3.74.7A6.13,6.13,0,0,1,403.25,224Z"/><g class="cls-50"><path class="cls-22" d="M389.7,206.73l13.65-7.87a4.37,4.37,0,0,1,3.94-.17l14.21,8.21a1.52,1.52,0,0,1,.49.44,1,1,0,0,0-.49-1.55l-14.21-8.21a4.37,4.37,0,0,0-3.94.17l-13.65,7.87c-.9.53-1.17,1.26-.78,1.83A2.29,2.29,0,0,1,389.7,206.73Z"/><path class="cls-23" d="M389.7,208.07l13.65-7.87a4.37,4.37,0,0,1,3.94-.17l14.21,8.21a1.43,1.43,0,0,1,.41.34,1.06,1.06,0,0,0-.41-1.68l-14.21-8.21a4.37,4.37,0,0,0-3.94.17l-13.65,7.87c-1,.56-1.2,1.35-.7,1.93A2.63,2.63,0,0,1,389.7,208.07Z"/><path class="cls-24" d="M389.14,210.15a2.32,2.32,0,0,1,.56-.44l13.65-7.88a4.37,4.37,0,0,1,3.94-.16l14.21,8.2a2,2,0,0,1,.28.2,1.08,1.08,0,0,0-.28-1.83L407.29,200a4.37,4.37,0,0,0-3.94.17l-13.65,7.87C388.66,208.67,388.46,209.55,389.14,210.15Z"/></g><path class="cls-20" d="M414.54,251.85l-1.46.84c-.38.22-.68,0-.68-.52V231.78a1.62,1.62,0,0,1,.68-1.3l1.46-.84c.37-.22.68,0,.68.51v20.4A1.65,1.65,0,0,1,414.54,251.85Z"/><path class="cls-22" d="M414.54,229.64l-.35.2v20a1.65,1.65,0,0,1-.68,1.3l-1.11.64v.36c0,.51.3.74.68.52l1.46-.84a1.65,1.65,0,0,0,.68-1.3v-20.4C415.22,229.65,414.91,229.42,414.54,229.64Z"/><path class="cls-20" d="M419.92,248.74l-1.46.84c-.38.22-.68,0-.68-.51v-20.4a1.62,1.62,0,0,1,.68-1.3l1.46-.84c.38-.22.68,0,.68.52v20.39A1.62,1.62,0,0,1,419.92,248.74Z"/><path class="cls-20" d="M425.3,245.63l-1.46.85c-.37.21-.68,0-.68-.52V225.57a1.64,1.64,0,0,1,.68-1.3l1.46-.85c.38-.21.68,0,.68.52v20.39A1.61,1.61,0,0,1,425.3,245.63Z"/><path class="cls-20" d="M430.68,242.53l-1.46.84c-.37.22-.68,0-.68-.52V222.46a1.65,1.65,0,0,1,.68-1.3l1.46-.84c.38-.22.68,0,.68.51v20.4A1.62,1.62,0,0,1,430.68,242.53Z"/><path class="cls-22" d="M419.92,226.53l-.35.2v20a1.62,1.62,0,0,1-.68,1.3l-1.11.64v.37c0,.5.3.73.68.51l1.46-.84a1.62,1.62,0,0,0,.68-1.3V227.05C420.6,226.54,420.3,226.31,419.92,226.53Z"/><path class="cls-22" d="M425.3,223.42l-.35.21v20a1.61,1.61,0,0,1-.68,1.3l-1.11.64V246c0,.5.31.73.68.52l1.46-.85a1.61,1.61,0,0,0,.68-1.3V223.94C426,223.44,425.68,223.21,425.3,223.42Z"/><path class="cls-22" d="M430.68,220.32l-.35.2v20a1.62,1.62,0,0,1-.68,1.3l-1.11.64v.36c0,.51.31.74.68.52l1.46-.84a1.62,1.62,0,0,0,.68-1.3v-20.4C431.36,220.33,431.06,220.1,430.68,220.32Z"/><path class="cls-25" d="M399.9,254.35a1,1,0,0,1-.54-.16l-19-11a2.75,2.75,0,0,1-1.17-2.23V219.4a1.14,1.14,0,0,1,.48-1.05.93.93,0,0,1,.92.05l19,11a2.78,2.78,0,0,1,1.18,2.23v21.58a1.16,1.16,0,0,1-.48,1.06A.75.75,0,0,1,399.9,254.35ZM380,218.69a.33.33,0,0,0-.16.05.75.75,0,0,0-.26.66V241a2.32,2.32,0,0,0,1,1.84l19,11a.47.47,0,0,0,.47.06.75.75,0,0,0,.25-.67V231.61a2.33,2.33,0,0,0-.95-1.84l-19-11A.63.63,0,0,0,380,218.69Z"/><path class="cls-20" d="M382.89,223.63c0,.59-.42.83-.93.54a2.07,2.07,0,0,1-.93-1.61c0-.59.42-.83.93-.53A2,2,0,0,1,382.89,223.63Z"/><path class="cls-20" d="M382.89,226.63c0,.59-.42.83-.93.54a2.06,2.06,0,0,1-.93-1.6c0-.59.42-.83.93-.54A2.06,2.06,0,0,1,382.89,226.63Z"/><path class="cls-20" d="M382.89,229.64c0,.59-.42.83-.93.53a2,2,0,0,1-.93-1.6c0-.59.42-.83.93-.54A2.07,2.07,0,0,1,382.89,229.64Z"/><path class="cls-22" d="M382.42,229.81a2.06,2.06,0,0,1-.92-1.61,1.27,1.27,0,0,1,0-.29c-.3,0-.51.24-.51.66a2,2,0,0,0,.93,1.6c.42.24.76.12.88-.24A.9.9,0,0,1,382.42,229.81Z"/><path class="cls-22" d="M382.42,226.8a2,2,0,0,1-.92-1.6,1.19,1.19,0,0,1,0-.29c-.3,0-.51.24-.51.65a2.07,2.07,0,0,0,.93,1.61c.42.24.76.12.88-.25A.8.8,0,0,1,382.42,226.8Z"/><path class="cls-22" d="M382.42,223.8a2.06,2.06,0,0,1-.92-1.61,1.27,1.27,0,0,1,0-.29c-.3,0-.51.24-.51.66a2,2,0,0,0,.93,1.6c.42.24.76.12.88-.24A.9.9,0,0,1,382.42,223.8Z"/><path class="cls-25" d="M398.18,243.58l-.61-.36a.82.82,0,0,1-.34-.66v-2.94c0-.25.15-.37.34-.26l.61.35a.84.84,0,0,1,.35.66v2.95C398.53,243.57,398.37,243.69,398.18,243.58Z"/><path class="cls-51" d="M422.17,135.71h-33.4v71.21h0a1.19,1.19,0,0,0,.68,1l14.19,8.19a4.4,4.4,0,0,0,3.94-.16l13.63-7.87a1.68,1.68,0,0,0,1-1.22h0Z"/><path class="cls-52" d="M420.59,142.5H390.36V207h0a1.06,1.06,0,0,0,.61.89l12.85,7.42a4,4,0,0,0,3.56-.15L419.71,208a1.53,1.53,0,0,0,.87-1.1h0Z"/><circle class="cls-20" cx="397.55" cy="200.95" r="1.24"/><circle class="cls-20" cx="406.92" cy="192.61" r="2.12"/><circle class="cls-20" cx="404.31" cy="191.26" r="0.55"/><circle class="cls-20" cx="413.58" cy="180.59" r="1.06"/><circle class="cls-20" cx="407.99" cy="171.58" r="0.75"/><circle class="cls-20" cx="398.79" cy="165.83" r="1.36"/><circle class="cls-20" cx="406.3" cy="156.19" r="2.75"/><path class="cls-20" d="M403.54,154.44a.76.76,0,1,1-.76-.76A.76.76,0,0,1,403.54,154.44Z"/><path class="cls-20" d="M409.41,159.49a.9.9,0,1,1-.9-.89A.9.9,0,0,1,409.41,159.49Z"/><circle class="cls-20" cx="409.64" cy="157.63" r="0.43"/><path class="cls-20" d="M415.68,148.34a1.25,1.25,0,1,1-1.25-1.25A1.25,1.25,0,0,1,415.68,148.34Z"/><path class="cls-28" d="M400.43,361.35l-26.15-15.09c-1.86-1.08-1.63-2.95.52-4.19l25.1-14.5a8.08,8.08,0,0,1,7.26-.3l26.15,15.1c1.86,1.07,1.62,2.95-.52,4.19l-25.11,14.49C405.53,362.29,402.28,362.43,400.43,361.35Z"/><path class="cls-53" d="M403.54,365.54a7.85,7.85,0,0,1-3.87-.89l-30.8-17.78a2.86,2.86,0,0,1-1.63-2.41,3.81,3.81,0,0,1,2.24-3.06l29.58-17.07c2.61-1.51,6.58-1.67,8.85-.36l30.8,17.79a2.83,2.83,0,0,1,1.64,2.41,3.82,3.82,0,0,1-2.25,3.05L408.53,364.3A10.31,10.31,0,0,1,403.54,365.54Zm.51-41.85a9.61,9.61,0,0,0-4.68,1.17l-29.58,17.08a3.26,3.26,0,0,0-1.94,2.52,2.25,2.25,0,0,0,1.33,1.87L400,364.12c2.1,1.21,5.8,1.05,8.24-.36l29.57-17.07a3.26,3.26,0,0,0,1.94-2.52,2.26,2.26,0,0,0-1.33-1.88l-30.8-17.78A7.22,7.22,0,0,0,404.05,323.69Z"/><path class="cls-54" d="M434.56,329h-13l-14.43-8.34a8.08,8.08,0,0,0-7.26.3L386,329H373v8.7h0a2.11,2.11,0,0,0,1.25,1.95l26.15,15.09c1.85,1.08,5.1.94,7.25-.3L432.79,340a3.1,3.1,0,0,0,1.76-2.25h0Z"/><path class="cls-55" d="M432.79,339.35l-25.11,14.49c-2.15,1.24-5.4,1.38-7.25.3l-26.15-15.09A2.11,2.11,0,0,1,373,337.1h0v.6h0a2.11,2.11,0,0,0,1.25,1.95l26.15,15.09c1.85,1.08,5.1.94,7.25-.3L432.79,340a3.1,3.1,0,0,0,1.76-2.25h0v-.6h0A3.1,3.1,0,0,1,432.79,339.35Z"/><path class="cls-17" d="M373.85,338.3h0v-8.7h13l13.91-8a8.08,8.08,0,0,1,7.26-.3l14.43,8.34h12.15V329h-13l-14.43-8.34a8.08,8.08,0,0,0-7.26.3L386,329H373v8.7h0a2.11,2.11,0,0,0,1.25,1.95l.14.08A1.81,1.81,0,0,1,373.85,338.3Z"/><path class="cls-10" d="M433.83,329.7v8.66h0a2.41,2.41,0,0,1-.62,1.33,2.81,2.81,0,0,0,1.35-2h0v-8.61A3.53,3.53,0,0,0,433.83,329.7Z"/><path class="cls-56" d="M400.43,346l-26.15-15.1c-1.86-1.07-1.63-2.95.52-4.19l25.1-14.49a8.05,8.05,0,0,1,7.26-.3l26.15,15.09c1.86,1.08,1.62,2.95-.52,4.19l-25.11,14.5A8.06,8.06,0,0,1,400.43,346Z"/><path class="cls-10" d="M433.31,327.05,407.16,312a6.71,6.71,0,0,0-3.66-.71,6,6,0,0,1,2.63.71l26.15,15.09c1.86,1.08,1.63,2.95-.52,4.19l-25.1,14.5a8.53,8.53,0,0,1-3.6,1,8.6,8.6,0,0,0,4.62-1l25.11-14.5C434.93,330,435.17,328.13,433.31,327.05Z"/><path class="cls-57" d="M401.29,341.68l-19.47-11.24c-1.39-.79-1.21-2.19.39-3.11l18.69-10.8a6,6,0,0,1,5.4-.22l19.47,11.24c1.38.8,1.21,2.2-.39,3.12l-18.69,10.79A6,6,0,0,1,401.29,341.68Z"/><path class="cls-20" d="M402,338.19l-14.11-8.14c-1-.58-.88-1.59.28-2.26L401.69,320a4.36,4.36,0,0,1,3.92-.16l14.1,8.14c1,.58.88,1.59-.28,2.26L405.89,338A4.34,4.34,0,0,1,402,338.19Z"/><path class="cls-17" d="M401.6,346l-26.15-15.1c-1.86-1.07-1.63-2.95.52-4.19l25.11-14.49a8.22,8.22,0,0,1,3.53-1,8.57,8.57,0,0,0-4.71,1l-25.1,14.49c-2.15,1.24-2.38,3.12-.52,4.19L400.43,346a6.76,6.76,0,0,0,3.71.7A6.08,6.08,0,0,1,401.6,346Z"/><g class="cls-58"><path class="cls-22" d="M388.15,328.89l13.54-7.82a4.39,4.39,0,0,1,3.92-.17l14.11,8.15a1.52,1.52,0,0,1,.49.44,1,1,0,0,0-.49-1.54l-14.11-8.15a4.39,4.39,0,0,0-3.92.16l-13.54,7.83c-.91.52-1.17,1.24-.78,1.81A2.18,2.18,0,0,1,388.15,328.89Z"/><path class="cls-23" d="M388.15,330.22l13.54-7.82a4.36,4.36,0,0,1,3.92-.17l14.11,8.15a1.77,1.77,0,0,1,.41.34,1,1,0,0,0-.41-1.67l-14.11-8.15a4.39,4.39,0,0,0-3.92.17l-13.54,7.82c-1,.55-1.2,1.33-.7,1.91A2.19,2.19,0,0,1,388.15,330.22Z"/><path class="cls-24" d="M387.59,332.28a2.32,2.32,0,0,1,.56-.44L401.69,324a4.36,4.36,0,0,1,3.92-.16L419.72,332a1.89,1.89,0,0,1,.27.2,1.07,1.07,0,0,0-.27-1.82l-14.11-8.15a4.36,4.36,0,0,0-3.92.17l-13.54,7.82C387.11,330.81,386.91,331.68,387.59,332.28Z"/></g><path class="cls-59" d="M420.39,305.41h-33.2v23.66h0a1.17,1.17,0,0,0,.67,1L402,338.19a4.34,4.34,0,0,0,3.91-.16l13.54-7.82a1.67,1.67,0,0,0,.95-1.21h0Z"/><path class="cls-28" d="M285.34,181.28l-26.15-15.1c-1.86-1.07-1.62-3,.52-4.19l25.11-14.49a8,8,0,0,1,7.25-.3l26.15,15.1c1.86,1.07,1.63,2.94-.52,4.18L292.6,181A8.08,8.08,0,0,1,285.34,181.28Z"/><path class="cls-60" d="M288.45,185.47a7.81,7.81,0,0,1-3.86-.89h0L253.78,166.8a2.86,2.86,0,0,1-1.63-2.41,3.82,3.82,0,0,1,2.25-3.06L284,144.25c2.61-1.51,6.58-1.66,8.86-.35l30.8,17.78a2.86,2.86,0,0,1,1.63,2.41,3.81,3.81,0,0,1-2.24,3.06l-29.58,17.08A10.26,10.26,0,0,1,288.45,185.47ZM284.9,184c2.1,1.22,5.8,1.06,8.23-.35l29.58-17.07a3.28,3.28,0,0,0,1.94-2.53,2.25,2.25,0,0,0-1.33-1.87l-30.8-17.79c-2.1-1.21-5.8-1.05-8.24.36l-29.57,17.07a3.25,3.25,0,0,0-1.94,2.53,2.26,2.26,0,0,0,1.32,1.87L284.9,184Z"/><path class="cls-61" d="M319.48,148.92h-13l-14.44-8.33a8.06,8.06,0,0,0-7.25.3l-13.92,8h-13v8.71h0a2.08,2.08,0,0,0,1.24,1.94l26.15,15.1a8.08,8.08,0,0,0,7.26-.3l25.1-14.5a3.06,3.06,0,0,0,1.77-2.24h0Z"/><path class="cls-62" d="M317.7,159.27l-25.1,14.5a8.08,8.08,0,0,1-7.26.3L259.19,159A2.08,2.08,0,0,1,258,157h0v.6h0a2.08,2.08,0,0,0,1.24,1.94l26.15,15.1a8.08,8.08,0,0,0,7.26-.3l25.1-14.5a3.06,3.06,0,0,0,1.77-2.24h0V157h0A3.06,3.06,0,0,1,317.7,159.27Z"/><path class="cls-17" d="M258.77,158.23h0v-8.71h13l13.92-8a8.06,8.06,0,0,1,7.25-.3l14.44,8.33h12.15v-.6h-13l-14.44-8.33a8.06,8.06,0,0,0-7.25.3l-13.92,8h-13v8.71h0a2.08,2.08,0,0,0,1.24,1.94l.15.09A1.81,1.81,0,0,1,258.77,158.23Z"/><path class="cls-10" d="M318.74,149.62v8.66h0a2.26,2.26,0,0,1-.62,1.33,2.81,2.81,0,0,0,1.36-2h0V149A3.94,3.94,0,0,0,318.74,149.62Z"/><path class="cls-63" d="M285.34,166l-26.15-15.09c-1.86-1.08-1.62-3,.52-4.19l25.11-14.5a8.06,8.06,0,0,1,7.25-.3L318.22,147c1.86,1.07,1.63,3-.52,4.19l-25.1,14.49A8.05,8.05,0,0,1,285.34,166Z"/><path class="cls-10" d="M318.22,147l-26.15-15.1a6.76,6.76,0,0,0-3.66-.7,6.17,6.17,0,0,1,2.64.7L317.2,147c1.86,1.07,1.63,3-.52,4.19l-25.11,14.49a8.17,8.17,0,0,1-3.59,1,8.51,8.51,0,0,0,4.62-1l25.1-14.49C319.85,149.93,320.08,148.05,318.22,147Z"/><path class="cls-64" d="M286.2,161.61l-19.47-11.24c-1.38-.8-1.21-2.19.39-3.12l18.69-10.79a6,6,0,0,1,5.4-.22l19.47,11.24c1.39.8,1.21,2.19-.39,3.11l-18.69,10.8A6,6,0,0,1,286.2,161.61Z"/><path class="cls-20" d="M286.89,158.12,272.79,150c-1-.58-.88-1.59.28-2.26l13.54-7.82a4.37,4.37,0,0,1,3.91-.16l14.11,8.15c1,.57.88,1.59-.28,2.25L290.8,158A4.37,4.37,0,0,1,286.89,158.12Z"/><path class="cls-17" d="M286.51,166l-26.14-15.09c-1.86-1.08-1.63-3,.52-4.19l25.1-14.5a8.4,8.4,0,0,1,3.54-1,8.62,8.62,0,0,0-4.71,1l-25.11,14.5c-2.14,1.24-2.38,3.11-.52,4.19L285.34,166a6.73,6.73,0,0,0,3.72.71A5.94,5.94,0,0,1,286.51,166Z"/><g class="cls-65"><path class="cls-22" d="M273.06,148.81,286.61,141a4.34,4.34,0,0,1,3.91-.16L304.63,149a1.56,1.56,0,0,1,.5.44,1,1,0,0,0-.5-1.54l-14.11-8.15a4.34,4.34,0,0,0-3.91.16l-13.55,7.82c-.9.52-1.17,1.25-.77,1.82A2.25,2.25,0,0,1,273.06,148.81Z"/><path class="cls-23" d="M273.06,150.14l13.55-7.82a4.34,4.34,0,0,1,3.91-.16l14.11,8.15a1.64,1.64,0,0,1,.42.34,1.05,1.05,0,0,0-.42-1.67l-14.11-8.15a4.34,4.34,0,0,0-3.91.16l-13.55,7.82c-.95.56-1.19,1.34-.69,1.92A2.42,2.42,0,0,1,273.06,150.14Z"/><path class="cls-24" d="M272.51,152.2a2.29,2.29,0,0,1,.55-.43l13.55-7.83a4.34,4.34,0,0,1,3.91-.16l14.11,8.15a1.55,1.55,0,0,1,.28.2,1.07,1.07,0,0,0-.28-1.82l-14.11-8.15a4.34,4.34,0,0,0-3.91.16l-13.55,7.82C272,150.74,271.82,151.61,272.51,152.2Z"/></g><path class="cls-66" d="M305.3,125.33H272.11V149h0a1.19,1.19,0,0,0,.68,1l14.1,8.15a4.37,4.37,0,0,0,3.91-.17l13.55-7.82a1.64,1.64,0,0,0,.95-1.2h0Z"/><path class="cls-28" d="M226.58,226.67,195,208.43c-3.63-2.1-3.18-5.76,1-8.18h0c4.19-2.42,10.53-2.68,14.16-.59l31.6,18.25c3.63,2.09,3.18,5.76-1,8.18h0C236.55,228.51,230.21,228.77,226.58,226.67Z"/><path class="cls-67" d="M234.49,230.22a14.41,14.41,0,0,1-7.06-1.62L192,208.11c-1.87-1.08-2.9-2.59-2.9-4.25,0-2,1.47-4,4-5.46,4.79-2.76,12.06-3.06,16.22-.66l35.48,20.48a5.05,5.05,0,0,1,2.9,4.26c0,2-1.47,4-4,5.46A18.83,18.83,0,0,1,234.49,230.22Zm-32.24-33.5a18.21,18.21,0,0,0-8.85,2.21c-2.37,1.37-3.73,3.17-3.73,4.93a4.47,4.47,0,0,0,2.59,3.72l35.48,20.48c4,2.3,11,2,15.6-.66,2.37-1.37,3.74-3.16,3.74-4.92a4.47,4.47,0,0,0-2.6-3.72L209,198.27A13.77,13.77,0,0,0,202.25,196.72Z"/><path class="cls-68" d="M240.22,218.2l-4.21-.78-39-22.61L193,191.06l-4.07-6-2.17-6.17-.54-5.17,1-4,2.31-3.12,3.3-.79,16.85-9.17s19.68,13.52,20.49,13.81,13.5,26.41,13.5,26.41l2.78,17.61-3.13,2.87Z"/><path class="cls-69" d="M263.75,201c0-6.75-4.74-14.95-10.58-18.32a10.3,10.3,0,0,0-4-1.41c-.61-6.07-4.82-12.93-9.94-15.89a12.31,12.31,0,0,0-2.05-.94c-1.55-5-5.07-9.83-9.17-12.19-2.88-1.67-5.48-1.76-7.3-.56h0l-7.43,4.06a7.29,7.29,0,0,0-5.11.42h0l-.15.08h0l-18.34,9.93,4.68-.11,5.7,2.16.41-3.7,2.28-2.56,1.93-.83.71-.08,2.93,1c.07-.4.69-.2.93-.2,1.47.88,2.35,2.35,3.52,3.23,3.52,2.34,3.52,7.72,6.46,9.77a36.86,36.86,0,0,1,11.44,13.7c.15.3,0,.52-.23.71l.48,2.64L235,193l3.91,3.16,3.57,4.52,1.22,2.77,1.39,3.79.33,3.81L245.1,214l-2.6,4.2L260.41,208h0l-.16.08C262.4,207,263.75,204.59,263.75,201Z"/><path class="cls-17" d="M210.33,155.53a6.34,6.34,0,0,0-2.18.64h0l-.15.08h0l-18.34,9.93,1,0c.4-.31.8-.69,1.2-.66l18-9.75h0l.16-.08h0Z"/><path class="cls-10" d="M263.75,201c0-6.75-4.74-14.95-10.58-18.32-.28-.17-.57-.31-.84-.45C258.25,185.68,263,194,263,200.84c0,3.66-1.37,6.15-3.55,7.16l.16-.08h0L243,217.47l-.46.73L260.41,208h0l-.16.08C262.4,207,263.75,204.59,263.75,201Z"/><path class="cls-70" d="M230.63,188.57c-2.35-5.28-6.06-11.93-11.93-13.74-.88-2.64-2.45-7.39-6-9.73-1.17-.88-2-2.35-3.52-3.23-.24,0-.86-.2-.93.2l.09,0c0,8,5.61,17.6,12.49,21.58l9.52,5.49,0,.11C230.63,189.09,230.78,188.87,230.63,188.57Z"/><path class="cls-71" d="M235.18,192.76a10.29,10.29,0,0,0-4-1.42c-.61-6.1-4.86-13-10-16a12.12,12.12,0,0,0-2.07-.95c-1.56-5-5.11-9.9-9.23-12.28-5.56-3.21-10.06-.61-10.07,5.8-.43-.3-.86-.57-1.3-.82-6.95-4-12.58-.76-12.58,7.26s5.63,17.78,12.58,21.8l36.71,21.19c5.88,3.39,10.65.64,10.65-6.15S241.06,196.15,235.18,192.76Z"/><path class="cls-10" d="M235.18,192.76c-.33-.19-.66-.36-1-.51,5.87,3.41,10.87,12.17,10.87,18.95,0,4.61-2.2,7.36-5.46,7.58,3.66.17,6.22-2.62,6.22-7.58C245.83,204.41,241.06,196.15,235.18,192.76Z"/><path class="cls-17" d="M186.38,174.6c0-6.46,3.6-9.85,8.61-8.94-5.26-1.28-9.1,2.07-9.1,8.7,0,7.18,4.52,15.74,10.45,20.34C190.64,189.94,186.38,181.62,186.38,174.6Z"/><path class="cls-20" d="M206.45,186c0,1.75-1.23,2.45-2.74,1.58a6.06,6.06,0,0,1-2.74-4.75c0-1.74,1.23-2.45,2.74-1.58A6.08,6.08,0,0,1,206.45,186Z"/><path class="cls-22" d="M205.07,186.9a6.06,6.06,0,0,1-2.74-4.74,2.36,2.36,0,0,1,.32-1.27c-1-.09-1.68.63-1.68,1.94a6.06,6.06,0,0,0,2.74,4.75c1.06.61,2,.44,2.42-.31A2.6,2.6,0,0,1,205.07,186.9Z"/><path class="cls-20" d="M214.87,190.86c0,1.75-1.23,2.45-2.74,1.58a6,6,0,0,1-2.74-4.75c0-1.74,1.22-2.45,2.74-1.58A6.08,6.08,0,0,1,214.87,190.86Z"/><path class="cls-20" d="M223.28,195.72c0,1.74-1.22,2.45-2.74,1.58a6.08,6.08,0,0,1-2.74-4.75c0-1.74,1.23-2.45,2.74-1.58A6,6,0,0,1,223.28,195.72Z"/><path class="cls-22" d="M213.48,191.76a6.06,6.06,0,0,1-2.74-4.74,2.45,2.45,0,0,1,.32-1.27c-1-.09-1.67.63-1.67,1.95a6,6,0,0,0,2.74,4.74c1.05.61,2,.44,2.42-.31A2.63,2.63,0,0,1,213.48,191.76Z"/><path class="cls-22" d="M221.9,196.62a6,6,0,0,1-2.74-4.74,2.36,2.36,0,0,1,.32-1.27c-1-.09-1.68.64-1.68,1.95a6.06,6.06,0,0,0,2.74,4.74c1.06.61,2,.44,2.42-.31A2.65,2.65,0,0,1,221.9,196.62Z"/></g></g></svg>